<svg xmlns="http://www.w3.org/2000/svg" width="597.1" height="123.6" viewBox="0 0 597.1 123.6"><path d="M9.6.5h3.1l9.5 23.6h-3l-2.8-7.2H5.6l-2.7 7.2H0zm5.9 14.1L11 3.2 6.6 14.6zM26.3.5h8.2a7.5 7.5 0 0 1 5.2 1.6 5.2 5.2 0 0 1 1.9 4.4 4.7 4.7 0 0 1-1 3 5.2 5.2 0 0 1-2.6 2 6.1 6.1 0 0 1 3.5 2 5.7 5.7 0 0 1 1.3 3.8 6.3 6.3 0 0 1-2.1 5 8.9 8.9 0 0 1-5.9 1.8h-8.5zm2.6 10.1H34a5.5 5.5 0 0 0 3.7-1 3.8 3.8 0 0 0 1.1-3.1 3.5 3.5 0 0 0-1.2-2.8 5.3 5.3 0 0 0-3.4-.9h-5.3zm0 11.2H35a5.3 5.3 0 0 0 3.7-1.2 4.5 4.5 0 0 0 1.3-3.3 3.9 3.9 0 0 0-1.4-3.3 6 6 0 0 0-4-1.1h-5.7zm30.2 2.6a12.9 12.9 0 0 1-6.2-1.5 9.9 9.9 0 0 1-4.4-4.2 11.8 11.8 0 0 1-1.7-6.2 13.4 13.4 0 0 1 1.6-6.3 11 11 0 0 1 4.4-4.4A13.5 13.5 0 0 1 59.5.2a12.8 12.8 0 0 1 3.8.5 11.6 11.6 0 0 1 3.4 1.4l-.5 2.5a20.5 20.5 0 0 0-3.7-1.5 12.4 12.4 0 0 0-3.3-.4 9.5 9.5 0 0 0-4.8 1.2A8.3 8.3 0 0 0 51 7.2a10.7 10.7 0 0 0-1.2 5.1 11.2 11.2 0 0 0 1.1 5 9 9 0 0 0 3.3 3.4 10.4 10.4 0 0 0 5.1 1.2 16.3 16.3 0 0 0 3.6-.5 18.2 18.2 0 0 0 3.7-1.3l.3 2.5a17.5 17.5 0 0 1-7.8 1.8zM72.2.5h8.5a14.5 14.5 0 0 1 6.5 1.4 10.6 10.6 0 0 1 4.4 4 12.9 12.9 0 0 1 1.5 6.4c0 3.7-1.1 6.6-3.4 8.7s-5.5 3.1-9.6 3.1h-7.9zM75 21.7h5.2q5 0 7.5-2.4c1.6-1.5 2.5-3.9 2.5-7a9.7 9.7 0 0 0-2.5-7.1c-1.7-1.5-4.2-2.3-7.5-2.3H75zM98.1.5h14.5v2.4h-11.7v7.9h10.4v2.4h-10.4v8.5H113v2.4H98.1zm20.5 0h14.1v2.4h-11.3v8.3h9.7v2.4h-9.7v10.5h-2.8zm29.6 23.9a14.7 14.7 0 0 1-6.4-1.4 11.8 11.8 0 0 1-4.4-4.2 12.4 12.4 0 0 1-1.6-6.4 12.6 12.6 0 0 1 1.5-6.2 11 11 0 0 1 4.4-4.4 13.5 13.5 0 0 1 6.7-1.6 15.1 15.1 0 0 1 4.2.5 15.7 15.7 0 0 1 3.8 1.4l-.5 2.4a20.1 20.1 0 0 0-3.7-1.3 19.2 19.2 0 0 0-4.1-.5 9.5 9.5 0 0 0-4.8 1.2 9.8 9.8 0 0 0-3.4 3.3 10.7 10.7 0 0 0-1.2 5.1 10 10 0 0 0 1.2 5 7.2 7.2 0 0 0 3.3 3.4 10.1 10.1 0 0 0 5.1 1.2 18.7 18.7 0 0 0 5.9-.9v-6.9h-5.5v-2.4h8.2v11.1a22.8 22.8 0 0 1-8.7 1.6zM162.7.5h2.8v10.1h14.1V.5h2.8v23.6h-2.8V13h-14.1v11.1h-2.8zm26.2 0h2.8v23.6h-2.8zm12.4 24.1a14.5 14.5 0 0 1-2.9-.4 6.7 6.7 0 0 1-2.4-1l.3-2.5a6.7 6.7 0 0 0 2.3 1 11.7 11.7 0 0 0 2.6.4 4.1 4.1 0 0 0 3.6-1.5c.8-.9 1.1-2.5 1.1-4.8V.5h2.8v15.6c0 2.9-.6 5-1.8 6.4s-3.1 2.1-5.6 2.1zM215.1.5h2.7v10.6L229.3.5h3.8l-12.4 11.2 13.6 12.4h-4.1l-12.4-11.4v11.4h-2.7zm22.8 0h2.8v21.2h11.5v2.4h-14.3zm19.8 0h2.8l9.1 16.9L278.5.5h2.8l1.1 23.6h-2.7l-.8-19.4-8.2 15.4h-2.4l-8.2-15.2-.8 19.2h-2.7zm30.9 0h2.7l14.9 19.6V.5h2.6v23.6h-2.7L291.2 4.5v19.6h-2.6zm37.3 24.1a11.2 11.2 0 0 1-6-1.6 11.9 11.9 0 0 1-4.5-4.4 12.1 12.1 0 0 1-1.6-6.3 12.8 12.8 0 0 1 1.5-6.1 11.6 11.6 0 0 1 4.3-4.5 12.4 12.4 0 0 1 6.3-1.7 11.7 11.7 0 0 1 6 1.6 11.3 11.3 0 0 1 4.4 4.3 12.5 12.5 0 0 1 1.7 6.4 11.8 11.8 0 0 1-1.6 6.1 12.3 12.3 0 0 1-4.3 4.5 12 12 0 0 1-6.2 1.7zm0-2.6a9 9 0 0 0 4.6-1.2 8.3 8.3 0 0 0 3.3-3.4 10.7 10.7 0 0 0 1.2-5.1 11 11 0 0 0-1.1-4.9 9.3 9.3 0 0 0-3.2-3.6 9.6 9.6 0 0 0-4.8-1.3 8.5 8.5 0 0 0-4.7 1.3 9.8 9.8 0 0 0-3.3 3.4 10.7 10.7 0 0 0-1.2 5.1 10.2 10.2 0 0 0 1.2 4.9 7.8 7.8 0 0 0 3.2 3.5 8.6 8.6 0 0 0 4.8 1.3zm17-21.5h6.9a8.2 8.2 0 0 1 5.7 2 6.7 6.7 0 0 1 2.3 5.2 8 8 0 0 1-1 3.8 7 7 0 0 1-2.8 2.6 8.2 8.2 0 0 1-4.2 1h-4.2v9h-2.7zm2.7 12.3h3.7a6.6 6.6 0 0 0 4.2-1.3 5 5 0 0 0 1.4-3.7 4.7 4.7 0 0 0-1.5-3.7 6.1 6.1 0 0 0-4.1-1.3h-3.7zm34.3 16.9l-4.7-5.3-1.9.2a11.2 11.2 0 0 1-6-1.6 11 11 0 0 1-4.4-4.4 11.3 11.3 0 0 1-1.7-6.3 12.8 12.8 0 0 1 1.5-6.1 11.6 11.6 0 0 1 4.3-4.5 12.4 12.4 0 0 1 6.3-1.7 11.7 11.7 0 0 1 6 1.6 11.3 11.3 0 0 1 4.4 4.3 12.5 12.5 0 0 1 1.7 6.4 12.9 12.9 0 0 1-2 6.9 12.2 12.2 0 0 1-5.4 4.4l5.6 6.1zm-6.6-7.7a9 9 0 0 0 4.6-1.2 8.3 8.3 0 0 0 3.3-3.4 10.7 10.7 0 0 0 1.2-5.1 11 11 0 0 0-1.1-4.9 9.3 9.3 0 0 0-3.2-3.6 9.6 9.6 0 0 0-4.8-1.3 8 8 0 0 0-4.6 1.3 9.2 9.2 0 0 0-3.4 3.4 10.7 10.7 0 0 0-1.2 5.1 10.2 10.2 0 0 0 1.2 4.9 7.8 7.8 0 0 0 3.2 3.5 8.6 8.6 0 0 0 4.8 1.3zm17-21.5h6.8a8.3 8.3 0 0 1 5.9 2 6.7 6.7 0 0 1 2.2 5.1 6.9 6.9 0 0 1-1.2 3.9 7 7 0 0 1-3.3 2.5l6.8 10.1h-3.3l-6.2-9.5h-5V24h-2.7zm2.7 11.8h3.5a7.1 7.1 0 0 0 4.3-1.1 4.3 4.3 0 0 0 1.5-3.6 4.7 4.7 0 0 0-1.4-3.6 6.6 6.6 0 0 0-4.2-1.2H393zm25.1 12.3a15.1 15.1 0 0 1-4.1-.6 12.1 12.1 0 0 1-3.4-1.3l.4-2.6a15.2 15.2 0 0 0 3.4 1.5 16.3 16.3 0 0 0 3.6.5 7.1 7.1 0 0 0 4.1-1.1 3.4 3.4 0 0 0 1.6-3 3.2 3.2 0 0 0-.6-2 4.1 4.1 0 0 0-1.7-1.4l-3.3-1.3a17.6 17.6 0 0 1-4.3-1.9 5.3 5.3 0 0 1-2.1-2.1 6.5 6.5 0 0 1-.6-2.9 5.6 5.6 0 0 1 2.1-4.6 8.4 8.4 0 0 1 5.6-1.8 20.9 20.9 0 0 1 3.5.4l3.2 1.3-.5 2.5a10.1 10.1 0 0 0-3-1.3 12.2 12.2 0 0 0-3.2-.4 5.8 5.8 0 0 0-3.7 1 3.1 3.1 0 0 0-1.3 2.7 3.6 3.6 0 0 0 .5 1.9 3.9 3.9 0 0 0 1.5 1.3 15.4 15.4 0 0 0 3 1.2 30.9 30.9 0 0 1 4.6 2 7.6 7.6 0 0 1 2.4 2.3 6.4 6.4 0 0 1-1.6 7.8 8.9 8.9 0 0 1-6.1 1.9zm19.4-21.7h-8.1V.5h19v2.4h-8.1v21.2h-2.8zm24.9 21.7a9.8 9.8 0 0 1-7.3-2.7 10.5 10.5 0 0 1-2.6-7.5V.5h2.8v13.6c0 2.6.6 4.6 1.8 5.9a6.8 6.8 0 0 0 5.4 2c2.3 0 4.1-.6 5.3-2s1.8-3.3 1.8-5.9V.5h2.8v13.9a10.1 10.1 0 0 1-2.7 7.5c-1.7 1.8-4.2 2.7-7.3 2.7zM476.5.5h3.1l7.7 20.7L495 .5h2.9l-9.1 23.6h-3.2zm23.7 0h2.8l6 20.6L515.1.8h2.9l6 20.2L529.9.5h2.8l-7.2 23.6h-3L516.4 4l-5.9 20.1h-3.1zm43.1 11.3L535.2.5h3.3l6.6 9.3 6.5-9.3h3.1l-8.1 11.3 8.8 12.3h-3.3l-7.3-10.4-7.3 10.4h-3.1zm21.9 2.1L556.3.5h3.1l7.3 11.2L573.9.5h3L568 13.9v10.2h-2.8zm13.8 7.8l14.7-18.8h-14V.5h17.2v2.4l-14.8 18.8h15v2.4H579zM9.9 73.6a7 7 0 0 1-3.7-1.1 6.2 6.2 0 0 1-2.6-2.9 8.9 8.9 0 0 1-1-4.4 8.7 8.7 0 0 1 1-4.2 7.1 7.1 0 0 1 2.7-3 6.5 6.5 0 0 1 3.9-1.2 5.9 5.9 0 0 1 2.9.7 4.6 4.6 0 0 1 2.1 1.8v-2h4.2v15.8h-4.2v-2a5.5 5.5 0 0 1-2.2 1.8 5.9 5.9 0 0 1-3.1.7zm1.2-3.9a4.1 4.1 0 0 0 3-1.2 4.8 4.8 0 0 0 1.2-3.3 4.6 4.6 0 0 0-1.2-3.3 3.8 3.8 0 0 0-3-1.3 4.2 4.2 0 0 0-3 1.3 4.6 4.6 0 0 0-1.2 3.3 4.8 4.8 0 0 0 1.2 3.3 4.1 4.1 0 0 0 3 1.2zm22.1 3.9a7.3 7.3 0 0 1-3-.7 4.1 4.1 0 0 1-2-1.9v2.1H24V47.9h4.3v11.2a5.9 5.9 0 0 1 5.1-2.3 6.6 6.6 0 0 1 3.7 1 8.4 8.4 0 0 1 2.7 2.9 10.5 10.5 0 0 1 .9 4.4 9.3 9.3 0 0 1-.9 4.2 9.1 9.1 0 0 1-2.7 3.1 6.9 6.9 0 0 1-3.9 1.2zm-1-3.9a3.8 3.8 0 0 0 3-1.2 4.8 4.8 0 0 0 1.2-3.3 4.6 4.6 0 0 0-1.2-3.3 4.1 4.1 0 0 0-6 0 4.6 4.6 0 0 0-1.2 3.3 4.8 4.8 0 0 0 1.2 3.3 4.1 4.1 0 0 0 3 1.2zm20.2 3.8a10.8 10.8 0 0 1-4.6-1 7 7 0 0 1-3-2.9 7.7 7.7 0 0 1-1.1-4.3 8.9 8.9 0 0 1 1-4.4 7.6 7.6 0 0 1 3-2.9 9 9 0 0 1 4.6-1.1 12.7 12.7 0 0 1 2.8.3 10.2 10.2 0 0 1 2.3.8l-.5 3.7a9.2 9.2 0 0 0-4.2-1 4.7 4.7 0 0 0-3.4 1.2 4.8 4.8 0 0 0 0 6.6 4.8 4.8 0 0 0 3.5 1.2 12.6 12.6 0 0 0 4.4-1l.4 3.5a13.3 13.3 0 0 1-2.4 1 13.3 13.3 0 0 1-2.8.3zm15.1.1a7 7 0 0 1-3.8-1.1 6.2 6.2 0 0 1-2.6-2.9 10.2 10.2 0 0 1-1-4.4 10 10 0 0 1 1-4.2 7.1 7.1 0 0 1 2.7-3 6.9 6.9 0 0 1 6.7-.6 5.1 5.1 0 0 1 2.1 1.7V47.9h4.3v25.2h-4.1v-2a4.6 4.6 0 0 1-2.1 1.8 6.4 6.4 0 0 1-3.2.7zm1.1-3.9a3.8 3.8 0 0 0 3-1.2 4.8 4.8 0 0 0 1.2-3.3 5 5 0 0 0-1.1-3.3 4.2 4.2 0 0 0-3.1-1.3 4.2 4.2 0 0 0-3 1.3 4.6 4.6 0 0 0-1.1 3.3 4.7 4.7 0 0 0 1.1 3.3 4.1 4.1 0 0 0 3 1.2zm21.2 3.9a12.2 12.2 0 0 1-4.9-1 8.9 8.9 0 0 1-3.2-2.9 9.4 9.4 0 0 1-1.1-4.5 8.8 8.8 0 0 1 1-4.3 6.8 6.8 0 0 1 2.8-3 8.2 8.2 0 0 1 4.2-1.1 8.7 8.7 0 0 1 4 .9 7.5 7.5 0 0 1 2.6 2.7 9.3 9.3 0 0 1 1 4.2 11.1 11.1 0 0 1-.2 1.9H84.9c.5 2.4 2.3 3.5 5.3 3.5a12.7 12.7 0 0 0 2.8-.3 8.5 8.5 0 0 0 2.4-.8l.5 3.4a10.2 10.2 0 0 1-2.8.9 11.9 11.9 0 0 1-3.3.4zM92 63.5a3.6 3.6 0 0 0-1-2.5 3.7 3.7 0 0 0-2.5-.9 3.2 3.2 0 0 0-2.4.9 3.8 3.8 0 0 0-1.3 2.5zm9.6-2.6h-2.8v-3.6h2.8v-2a7.8 7.8 0 0 1 1.8-5.5 5.9 5.9 0 0 1 4.9-2l1.9.2a5.8 5.8 0 0 1 1.7.5l-.4 3.5a8.5 8.5 0 0 0-2.6-.5 2.4 2.4 0 0 0-2.2 1.1 5 5 0 0 0-.8 3.1v1.6h4.3v3.6h-4.3v12.2h-4.3zM120 81a20.9 20.9 0 0 1-3.4-.4 7.1 7.1 0 0 1-2.7-.9l.4-3.9a8.5 8.5 0 0 0 2.4.9 9.5 9.5 0 0 0 2.8.4 5.7 5.7 0 0 0 3.9-1.2 5 5 0 0 0 1.2-3.7v-1.1a4.6 4.6 0 0 1-2.1 1.8 6.2 6.2 0 0 1-3.1.7 6.7 6.7 0 0 1-3.7-1.1 6.4 6.4 0 0 1-2.7-2.9 10.2 10.2 0 0 1-.9-4.4 9.9 9.9 0 0 1 .9-4.2 7.1 7.1 0 0 1 2.7-3 6.9 6.9 0 0 1 3.9-1.2 5.4 5.4 0 0 1 2.9.7 4.6 4.6 0 0 1 2.1 1.8v-2h4.1V72c0 2.9-.7 5.2-2.2 6.7A9 9 0 0 1 120 81zm.6-11.3a4.1 4.1 0 0 0 3-1.2 4.8 4.8 0 0 0 1.2-3.3 4.6 4.6 0 0 0-1.2-3.3 4.2 4.2 0 0 0-3-1.3 4.2 4.2 0 0 0-3.1 1.3 5 5 0 0 0-1.1 3.3 4.8 4.8 0 0 0 1.2 3.3 3.9 3.9 0 0 0 3 1.2zm12.8-21.8h4.3V59a4.2 4.2 0 0 1 1.9-1.6 6.1 6.1 0 0 1 2.8-.6 5.3 5.3 0 0 1 4.2 1.7 7.5 7.5 0 0 1 1.5 5v9.6h-4.3v-8.8c0-2.5-.9-3.7-2.8-3.7a3 3 0 0 0-2.4 1 4.5 4.5 0 0 0-.9 3v8.5h-4.3zm21.4 6.2a2.6 2.6 0 0 1-1.9-.8 2.4 2.4 0 0 1-.7-1.8 2.2 2.2 0 0 1 .7-1.7 2.5 2.5 0 0 1 1.9-.7 2.4 2.4 0 0 1 1.8.7 2.2 2.2 0 0 1 .7 1.7 2.1 2.1 0 0 1-.7 1.8 2.5 2.5 0 0 1-1.8.8zm-2.2 3.2h4.3v15.8h-4.3zm7 23.7l-2.2-.2-1.6-.6.5-3.6a5.3 5.3 0 0 0 2.6.6 2.6 2.6 0 0 0 2-.8 4 4 0 0 0 .6-2.5V57.3h4.3v16.9a7.3 7.3 0 0 1-1.5 5 6.1 6.1 0 0 1-4.7 1.8zm4.1-26.9a2.6 2.6 0 0 1-1.9-.8 2.4 2.4 0 0 1-.7-1.8 2.2 2.2 0 0 1 .7-1.7 2.5 2.5 0 0 1 1.9-.7 2.4 2.4 0 0 1 1.8.7 2.2 2.2 0 0 1 .7 1.7 2.1 2.1 0 0 1-.7 1.8 2.5 2.5 0 0 1-1.8.8zm6.7-6.2h4.3v15.3l5.7-5.9h5.4l-7.2 7.1 8.3 8.7h-5.6l-6.6-7.2v7.2h-4.3zm18.9 0h4.3v25.2h-4.3zm8.9 9.4h4.2v1.9a4.4 4.4 0 0 1 2-1.8 6.1 6.1 0 0 1 2.8-.6 5.1 5.1 0 0 1 4.9 2.8 4.8 4.8 0 0 1 2-2 5.2 5.2 0 0 1 3-.8 5.5 5.5 0 0 1 4.3 1.7 7.3 7.3 0 0 1 1.5 5v9.6h-4.3v-8.8a4.3 4.3 0 0 0-.7-2.8 2.3 2.3 0 0 0-2.1-.9 2.7 2.7 0 0 0-2.2 1.1 4.2 4.2 0 0 0-.9 2.9v8.5h-4.3v-8.8a5.1 5.1 0 0 0-.6-2.8 2.9 2.9 0 0 0-4.4.2 4.1 4.1 0 0 0-.9 2.8v8.6h-4.3zm29.2 0h4.2v1.9a5.5 5.5 0 0 1 1.9-1.8 6.5 6.5 0 0 1 2.9-.6 5.3 5.3 0 0 1 4.2 1.7 7.5 7.5 0 0 1 1.5 5v9.6h-4.3v-8.8c0-2.5-.9-3.7-2.8-3.7a3 3 0 0 0-2.4 1 4.5 4.5 0 0 0-.9 3v8.5h-4.3zm26.8 16.3a8.5 8.5 0 0 1-4.2-1.1 7.5 7.5 0 0 1-3.1-3 7.7 7.7 0 0 1-1.2-4.3 8.8 8.8 0 0 1 1.1-4.2 8.1 8.1 0 0 1 3-3.1 9.3 9.3 0 0 1 4.4-1.1 8.8 8.8 0 0 1 4.3 1 8.1 8.1 0 0 1 3.1 3 9 9 0 0 1 1.1 4.4 8.7 8.7 0 0 1-1 4.2 8.9 8.9 0 0 1-3.1 3 8.1 8.1 0 0 1-4.4 1.2zm0-3.9a4.1 4.1 0 0 0 3-1.2 4.8 4.8 0 0 0 1.2-3.3 4.6 4.6 0 0 0-1.2-3.3 3.8 3.8 0 0 0-3-1.3 4.2 4.2 0 0 0-3 1.3 4.6 4.6 0 0 0-1.2 3.3 4.8 4.8 0 0 0 1.2 3.3 4.1 4.1 0 0 0 3 1.2zm12.2-12.4h4.1v2a5.7 5.7 0 0 1 5.2-2.5 7 7 0 0 1 3.8 1 7.3 7.3 0 0 1 2.6 2.9 10.5 10.5 0 0 1 1 4.4 8.2 8.2 0 0 1-1 4.2 7.4 7.4 0 0 1-2.7 3.1 6.9 6.9 0 0 1-6.7.6 4.6 4.6 0 0 1-2.1-1.8v9.5h-4.3zm8.3 12.4a4.1 4.1 0 0 0 3-1.2 4.8 4.8 0 0 0 1.2-3.3 4.6 4.6 0 0 0-1.2-3.3 4.2 4.2 0 0 0-3-1.3 3.8 3.8 0 0 0-3 1.3 4.6 4.6 0 0 0-1.2 3.3 5.2 5.2 0 0 0 1.1 3.3 4.1 4.1 0 0 0 3.1 1.2zm23.9 11v-9.5a5.8 5.8 0 0 1-5.2 2.4 6.7 6.7 0 0 1-3.7-1.1 6.2 6.2 0 0 1-2.6-2.9 8.9 8.9 0 0 1-1-4.4 8.7 8.7 0 0 1 1-4.2 7.6 7.6 0 0 1 2.6-3 7 7 0 0 1 4-1.2 5.9 5.9 0 0 1 2.9.7 4.6 4.6 0 0 1 2.1 1.8v-2h4.2v23.4zm-4-11a4.1 4.1 0 0 0 3-1.2 4.8 4.8 0 0 0 1.2-3.3 4.6 4.6 0 0 0-1.2-3.3 3.8 3.8 0 0 0-3-1.3 4.2 4.2 0 0 0-3 1.3 4.6 4.6 0 0 0-1.2 3.3 4.8 4.8 0 0 0 1.2 3.3 4.1 4.1 0 0 0 3 1.2zm12.9-12.4h4.1v2.6a6.7 6.7 0 0 1 1.8-2.2 5.3 5.3 0 0 1 2.6-.7 5.7 5.7 0 0 1 1.8.3l-.4 4.1a6.5 6.5 0 0 0-1.9-.4 3.6 3.6 0 0 0-2.8 1.3 6.2 6.2 0 0 0-.9 3.6v7.2h-4.3zm18.3 16.3a18.6 18.6 0 0 1-3.4-.4 8.4 8.4 0 0 1-2.5-1.1l.6-3.6a9 9 0 0 0 2.4 1.2 9.3 9.3 0 0 0 2.7.4c1.8 0 2.7-.4 2.7-1.3a1.3 1.3 0 0 0-.6-1.1l-2.3-.9a8.8 8.8 0 0 1-4-1.9 4.4 4.4 0 0 1-1.2-3.2 4.3 4.3 0 0 1 1.7-3.6 7.5 7.5 0 0 1 4.7-1.3 14.3 14.3 0 0 1 2.9.3l2.4.9-.5 3.4-2.2-.8a7.1 7.1 0 0 0-2.4-.4c-1.5 0-2.3.4-2.3 1.2a1.1 1.1 0 0 0 .6 1.1 5.3 5.3 0 0 0 2.1.9 9.1 9.1 0 0 1 4.2 2 4.5 4.5 0 0 1 1.2 3.3 4.3 4.3 0 0 1-1.8 3.6 8.8 8.8 0 0 1-5 1.3zm17.7 0a5.9 5.9 0 0 1-4.4-1.5c-1-1-1.4-2.6-1.4-4.6v-6.6h-3.1v-3.6h3.1V53h4.3v4.3h4.9v3.6H342v5.8a4.1 4.1 0 0 0 .5 2.3 2.3 2.3 0 0 0 1.9.8 6.1 6.1 0 0 0 2.8-.7l.5 3.6a7.1 7.1 0 0 1-1.9.6 8.5 8.5 0 0 1-2.3.3zm13 0a5.2 5.2 0 0 1-4.3-1.8 7.2 7.2 0 0 1-1.5-4.9v-9.6h4.3v8.8c0 2.4 1 3.7 2.9 3.7a3 3 0 0 0 2.4-1.1 5 5 0 0 0 .8-2.9v-8.5h4.3v15.8h-4.1v-1.9a5.5 5.5 0 0 1-1.9 1.8 6.4 6.4 0 0 1-2.9.6zm11.7-16.3h4.7l3.7 11.2 3.8-11.2h4.5l-6.1 15.8h-4.5zM10.7 102.9l-6.3 2.9-.4-2.5 7.3-3.3h2.1v23.1h-2.7zm12.4 20.2v-2.3q3.9-3.9 5.7-6a37.5 37.5 0 0 0 3.9-5.3 7 7 0 0 0 1-3.6 3.8 3.8 0 0 0-1.1-2.9 3.7 3.7 0 0 0-3-1.1 7.1 7.1 0 0 0-3.2.7 10.4 10.4 0 0 0-2.5 2.2l-.6-2.5a8.6 8.6 0 0 1 2.9-2.1 9.4 9.4 0 0 1 3.7-.7 6.7 6.7 0 0 1 4.7 1.6 5.7 5.7 0 0 1 1.8 4.4 9.6 9.6 0 0 1-1.2 4.6 29.8 29.8 0 0 1-4.1 5.6c-1.7 1.9-3.3 3.5-4.7 4.9h10.7v2.5zm25 .5a17.5 17.5 0 0 1-3.2-.4 8.9 8.9 0 0 1-2.6-1.1l.2-2.4a11 11 0 0 0 5.7 1.5 5.7 5.7 0 0 0 4-1.3 4.5 4.5 0 0 0 1.4-3.5 4.4 4.4 0 0 0-1.4-3.4 5.6 5.6 0 0 0-3.9-1.3l-2 .3-.8-1.7 7.1-7.9h-10V100h13v2.3l-6.5 7.3a7.5 7.5 0 0 1 3.7.9 5.8 5.8 0 0 1 2.6 2.3 6.8 6.8 0 0 1 .9 3.5 6.4 6.4 0 0 1-2.2 5.3 8.5 8.5 0 0 1-6 2zm22.8-6.4H60.4v-2.3L70.8 100h2.7v14.9h3.2v2.3h-3.2v5.9h-2.6zm0-2.3v-11.3L63 114.9zm15.5 8.7a18.7 18.7 0 0 1-3.2-.4 8.4 8.4 0 0 1-2.5-1.1l.2-2.5a9.9 9.9 0 0 0 5.6 1.6 5.9 5.9 0 0 0 4.2-1.4 4.7 4.7 0 0 0 1.5-3.7 4.4 4.4 0 0 0-1.6-3.7 6.9 6.9 0 0 0-4.5-1.3h-2.2l-2.2.4.4-11.6h11.3v2.5h-9l-.2 6.5 2.5-.3a8.9 8.9 0 0 1 6 2 7 7 0 0 1 2.2 5.3 7.2 7.2 0 0 1-2.3 5.5 9 9 0 0 1-6.2 2.2zm20.6 0a7 7 0 0 1-3.8-1 6.5 6.5 0 0 1-2.6-2.6 8.9 8.9 0 0 1-1-4.1 17.6 17.6 0 0 1 2.4-8.2 29.2 29.2 0 0 1 6.3-7.8l3.3.2c-4.3 3.6-7.1 7.2-8.5 10.9a6.2 6.2 0 0 1 4.8-2 7 7 0 0 1 3.5.9 6.4 6.4 0 0 1 2.4 2.5 6.6 6.6 0 0 1 1 3.7 7.2 7.2 0 0 1-1 3.8 7 7 0 0 1-2.7 2.7 9.2 9.2 0 0 1-4.1 1zm.1-2.3a4.5 4.5 0 0 0 3.6-1.4 4.7 4.7 0 0 0 1.4-3.6 5.1 5.1 0 0 0-1.3-3.7 5.1 5.1 0 0 0-3.7-1.4 4.8 4.8 0 0 0-3.5 1.4 5 5 0 0 0-1.5 3.7 4.8 4.8 0 0 0 1.5 3.6 4.5 4.5 0 0 0 3.5 1.4zm14.7 1.7l8.9-20.4h-11.6V100h14.3v2.4l-8.8 20.7zm23.7.6a10.2 10.2 0 0 1-4-.8 6.8 6.8 0 0 1-2.7-2.3 6.6 6.6 0 0 1 .2-7.3 5.7 5.7 0 0 1 3.2-2.2 5.8 5.8 0 0 1-2.8-2 5.7 5.7 0 0 1-1-3.4 5.6 5.6 0 0 1 .9-3.1 6 6 0 0 1 2.5-2.2 8.7 8.7 0 0 1 3.7-.8 8.6 8.6 0 0 1 3.6.7 6 6 0 0 1 2.5 2.2 5.1 5.1 0 0 1 1 3.2 6.5 6.5 0 0 1-1 3.4 6.1 6.1 0 0 1-2.9 2 5.9 5.9 0 0 1 3.3 2.2 6.2 6.2 0 0 1 1.2 3.8 6 6 0 0 1-.9 3.3 7.3 7.3 0 0 1-2.8 2.4 8.4 8.4 0 0 1-4 .9zm0-2.3a5.2 5.2 0 0 0 3.7-1.3 4.2 4.2 0 0 0 1.3-3.3 4.4 4.4 0 0 0-1.3-3.3 5.7 5.7 0 0 0-3.7-1.2 5.5 5.5 0 0 0-3.7 1.2 4.5 4.5 0 0 0-1.4 3.3 4.2 4.2 0 0 0 1.4 3.3 5.1 5.1 0 0 0 3.7 1.3zm0-11.3a4.8 4.8 0 0 0 3.3-1.2 3.8 3.8 0 0 0 1.2-3 4.1 4.1 0 0 0-1.2-3 5.2 5.2 0 0 0-3.3-1.1 4.9 4.9 0 0 0-3.3 1.1 4.1 4.1 0 0 0-1.2 3 3.8 3.8 0 0 0 1.2 3 4.5 4.5 0 0 0 3.3 1.2zm14.6 13c4.3-3.7 7.1-7.3 8.5-10.9a6.3 6.3 0 0 1-4.8 2 6.7 6.7 0 0 1-3.4-.9 6 6 0 0 1-2.5-2.5 7.5 7.5 0 0 1-.9-3.7 7.9 7.9 0 0 1 .9-3.8 8.1 8.1 0 0 1 2.8-2.7 7.4 7.4 0 0 1 4-1 7.9 7.9 0 0 1 3.8.9 6.2 6.2 0 0 1 2.6 2.7 7.8 7.8 0 0 1 1 4.1 16.9 16.9 0 0 1-2.4 8.1 26.4 26.4 0 0 1-6.3 7.8zm4.5-11.1a5.1 5.1 0 0 0 0-10.2 4.8 4.8 0 0 0-3.6 1.5 4.9 4.9 0 0 0-1.4 3.6 5.3 5.3 0 0 0 1.4 3.7 4.9 4.9 0 0 0 3.6 1.4zm19.4 11.7a6.7 6.7 0 0 1-5.9-3.3c-1.4-2.1-2.1-5-2.1-8.8a16.1 16.1 0 0 1 2.1-8.8 6.9 6.9 0 0 1 11.7 0 16.1 16.1 0 0 1 2.2 8.8 15.6 15.6 0 0 1-2.2 8.8 6.6 6.6 0 0 1-5.8 3.3zm0-2.4a4.3 4.3 0 0 0 3.8-2.5 15.7 15.7 0 0 0 1.3-7.2c0-3.1-.4-5.5-1.3-7.1a4.2 4.2 0 0 0-7.7 0c-.9 1.6-1.3 4-1.3 7.1a15.7 15.7 0 0 0 1.3 7.2 4.4 4.4 0 0 0 3.9 2.5z"/></svg>