<svg xmlns="http://www.w3.org/2000/svg" width="506" height="121.8" viewBox="0 0 506 121.8"><path d="M17 22.5l-2.8-7H5.3l-2.7 7H0L8.8.3h2.1l8.7 22.2zm-3.6-9.4l-2.6-6.8-1-3.2a18.9 18.9 0 0 1-1 3.2l-2.6 6.8zM22.7.3h6.2c3 0 5.1.5 6.4 1.4a4.5 4.5 0 0 1 2 4.1 5.2 5.2 0 0 1-1.1 3.3 5.2 5.2 0 0 1-3.2 1.6v.2c3.3.6 5 2.3 5 5.3a5.4 5.4 0 0 1-2 4.6 8.5 8.5 0 0 1-5.6 1.7h-7.7zm2.6 9.5h4.2a7.6 7.6 0 0 0 3.9-.8 3.4 3.4 0 0 0 1.2-2.9 2.9 2.9 0 0 0-1.3-2.7 9.1 9.1 0 0 0-4.3-.8h-3.7zm0 2.2v8.3h4.6a6.4 6.4 0 0 0 4-1 3.9 3.9 0 0 0 1.4-3.3 3.4 3.4 0 0 0-1.4-3 7.1 7.1 0 0 0-4.2-1zm27-9.7a7 7 0 0 0-5.8 2.5 9.7 9.7 0 0 0-2.1 6.6c0 2.9.7 5.2 2 6.7a7.3 7.3 0 0 0 5.8 2.4 22 22 0 0 0 5.3-.8v2.2a15.5 15.5 0 0 1-5.7.9 9.6 9.6 0 0 1-7.5-3q-2.7-3-2.7-8.4a14 14 0 0 1 1.3-6 10.2 10.2 0 0 1 3.7-4A11.5 11.5 0 0 1 52.3 0a14.8 14.8 0 0 1 6.1 1.3l-1.1 2.2a11.8 11.8 0 0 0-5-1.2zM80 11.2c0 3.7-1 6.5-2.9 8.4s-4.9 2.9-8.6 2.9h-6.1V.3h6.7c3.5 0 6.2 1 8.1 2.9s2.8 4.6 2.8 8zm-2.7.1c0-2.9-.7-5.1-2.2-6.5s-3.6-2.2-6.4-2.2h-3.8v17.7h3.2A9.7 9.7 0 0 0 75 18c1.5-1.5 2.3-3.7 2.3-6.7zm20 11.2H85V.3h12.3v2.3h-9.8v7.2h9.2V12h-9.2v8.2h9.8zm7.5 0h-2.6V.3h12.4v2.3h-9.8v8.1h9.2V13h-9.2zM128 10.9h7.5v10.8l-3.6.8a25.8 25.8 0 0 1-4.2.3 10.2 10.2 0 0 1-7.8-3c-1.9-2-2.8-4.8-2.8-8.4a11.6 11.6 0 0 1 1.4-6 8.6 8.6 0 0 1 4-4 12.8 12.8 0 0 1 6.1-1.4 18.5 18.5 0 0 1 6.6 1.3l-1 2.3a16.1 16.1 0 0 0-5.8-1.3 8.2 8.2 0 0 0-6.3 2.4 9.5 9.5 0 0 0-2.3 6.7c0 3 .7 5.3 2.2 6.8s3.6 2.3 6.4 2.3a16.4 16.4 0 0 0 4.5-.5v-6.8H128zm29.6 11.6h-2.5V12.1h-11.7v10.4h-2.6V.3h2.6v9.5h11.7V.3h2.5zm6.1 0V.3h2.6v22.2zm5.4 5.8a4.6 4.6 0 0 1-2.2-.4v-2.2a8.3 8.3 0 0 0 2.2.3 2.9 2.9 0 0 0 2.3-.9 4 4 0 0 0 .8-2.6V.3h2.6v22a6 6 0 0 1-1.5 4.4 5.4 5.4 0 0 1-4.2 1.6zm27.5-5.8h-3l-8.1-10.7-2.3 2v8.7h-2.6V.3h2.6v11l10.1-11h3l-8.9 9.7zm3.1 0V.3h2.6v19.9h9.7v2.3zm25.9 0l-7.5-19.6h-.1c.1 1.5.2 3.4.2 5.5v14.1h-2.4V.3h3.9l7 18.3h.1L233.9.3h3.8v22.2h-2.6V8.2a51.3 51.3 0 0 1 .3-5.3h-.2l-7.5 19.6zm35.5 0h-2.9L246.1 3.9h-.2q.3 3.3.3 6v12.6h-2.4V.3h2.9l12.1 18.6h.1c0-.3-.1-1.2-.1-2.7s-.1-2.5-.1-3.1V.3h2.4zm25.3-11.1a12.5 12.5 0 0 1-2.7 8.4 10.9 10.9 0 0 1-15 0q-2.7-3-2.7-8.4t2.7-8.4c1.8-2 4.3-3 7.6-3a9.4 9.4 0 0 1 7.4 3q2.7 3 2.7 8.4zm-17.6 0c0 3 .6 5.3 1.9 6.8a6.6 6.6 0 0 0 5.5 2.3c2.5 0 4.4-.7 5.6-2.3s1.9-3.8 1.9-6.8-.6-5.2-1.9-6.8a6.7 6.7 0 0 0-5.5-2.3 6.9 6.9 0 0 0-5.6 2.3c-1.3 1.6-1.9 3.8-1.9 6.8zm36.6-4.6a6.4 6.4 0 0 1-2.3 5.2q-2.2 1.8-6.6 1.8h-2.6v8.7h-2.6V.3h5.8c5.5 0 8.3 2.2 8.3 6.5zm-11.5 4.8h2.3a9 9 0 0 0 5-1.1 4.3 4.3 0 0 0 1.5-3.6 3.9 3.9 0 0 0-1.4-3.2 7.1 7.1 0 0 0-4.5-1.1h-2.9zm35.3-.2a13.1 13.1 0 0 1-1.7 7.1 8.7 8.7 0 0 1-4.8 3.8l5.3 5.5h-3.8l-4.3-5h-.8c-3.3 0-5.8-1-7.6-3s-2.6-4.8-2.6-8.4.9-6.4 2.6-8.4 4.3-3 7.6-3a9.6 9.6 0 0 1 7.5 3c1.8 2 2.6 4.8 2.6 8.4zm-17.6 0c0 3 .6 5.3 1.9 6.8a6.8 6.8 0 0 0 5.6 2.3c2.4 0 4.3-.7 5.5-2.3s1.9-3.8 1.9-6.8-.6-5.2-1.8-6.8a6.9 6.9 0 0 0-5.6-2.3 7.1 7.1 0 0 0-5.6 2.3c-1.3 1.6-1.9 3.8-1.9 6.8zm25.2 1.9v9.2h-2.6V.3h6.1a9.8 9.8 0 0 1 6 1.6 5.6 5.6 0 0 1 1.9 4.7c0 2.9-1.5 4.9-4.4 5.9l6 10h-3.1l-5.3-9.2zm0-2.2h3.5a6.4 6.4 0 0 0 4-1.1 4.2 4.2 0 0 0 1.3-3.3 3.8 3.8 0 0 0-1.3-3.1 6.9 6.9 0 0 0-4.2-1h-3.3zm29.1 5.5a5.3 5.3 0 0 1-2.2 4.6 9 9 0 0 1-5.7 1.6 14.3 14.3 0 0 1-6.1-1v-2.5a13.2 13.2 0 0 0 3 .9 17.3 17.3 0 0 0 3.2.3 7 7 0 0 0 3.9-.9 3.6 3.6 0 0 0 1.3-2.8 3.2 3.2 0 0 0-.5-1.8 4.1 4.1 0 0 0-1.5-1.4l-3.3-1.4a10.5 10.5 0 0 1-4.5-2.6 6.4 6.4 0 0 1-1.3-4 5.3 5.3 0 0 1 1.9-4.1 8.1 8.1 0 0 1 5.1-1.5 15.1 15.1 0 0 1 6.1 1.2l-.8 2.3a13.1 13.1 0 0 0-5.3-1.2 4.9 4.9 0 0 0-3.2.9 2.9 2.9 0 0 0-1.2 2.4 4.9 4.9 0 0 0 .4 1.9 4.1 4.1 0 0 0 1.5 1.4 16.9 16.9 0 0 0 3.1 1.3 14.5 14.5 0 0 1 4.8 2.7 5.7 5.7 0 0 1 1.3 3.7zm11.3 5.9h-2.6V2.6h-7V.3h16.6v2.3h-7zM404.3.3v14.4a7.8 7.8 0 0 1-2.3 5.9 8.5 8.5 0 0 1-6.3 2.2 8.3 8.3 0 0 1-6.2-2.2 8.2 8.2 0 0 1-2.2-6V.3h2.6v14.5a5.9 5.9 0 0 0 1.5 4.3 6.5 6.5 0 0 0 4.5 1.4 5.9 5.9 0 0 0 4.3-1.5 5.5 5.5 0 0 0 1.5-4.2V.3zm18.5 0h2.8l-8 22.2H415L407.1.3h2.7l5.1 14.4a29 29 0 0 1 1.4 4.8 39.4 39.4 0 0 1 1.4-4.9zm25.1 22.2h-2.5l-4.5-14.8-.7-2.5a8.4 8.4 0 0 1-.4-1.8 31.3 31.3 0 0 1-1.1 4.4l-4.3 14.7h-2.5L426 .3h2.7l3.5 13.7c.5 1.9.8 3.7 1.1 5.2a26.2 26.2 0 0 1 1.2-5.4L438.4.3h2.8l4.1 13.6c.5 1.6.9 3.4 1.3 5.3.2-1.4.5-3.1 1-5.2L451.1.3h2.8zm24.2 0h-3l-5.9-9.7-6.1 9.7h-2.7l7.4-11.6L454.9.3h2.9l5.5 8.8 5.5-8.8h2.7l-6.8 10.5zm8.8-11.1L486.8.3h2.8l-7.4 13.6v8.6h-2.6V14L472.2.3h2.8zM506 22.5h-15.2v-2l11.8-17.8h-11.4V.3h14.5v2.1l-11.8 17.8H506zm-490.8 48l-.9-2.3h-.1a6.1 6.1 0 0 1-2.4 2 7.8 7.8 0 0 1-3.3.6 5.2 5.2 0 0 1-3.8-1.4 5.4 5.4 0 0 1-1.4-4 4.2 4.2 0 0 1 1.9-3.9Q7 60.2 10.9 60h2.9v-.8a2.3 2.3 0 0 0-2.6-2.6 10.8 10.8 0 0 0-4.8 1.3l-1.5-3.2a13.8 13.8 0 0 1 6.5-1.5 8.1 8.1 0 0 1 5.2 1.5 5.5 5.5 0 0 1 1.8 4.5v11.3zm-1.4-7.9H12a6 6 0 0 0-3 .7 2.7 2.7 0 0 0-1 2.1c0 1.3.8 1.9 2.3 1.9a3.7 3.7 0 0 0 2.6-.9 3.3 3.3 0 0 0 .9-2.5zm18.8-9.4a5.5 5.5 0 0 1 4.7 2.4A10.8 10.8 0 0 1 39 62a10.3 10.3 0 0 1-1.8 6.5 5.6 5.6 0 0 1-4.7 2.3 5.5 5.5 0 0 1-4.7-2.2h-.3l-.8 1.9h-3.5V46.9h4.6v5.5c0 .7-.1 1.8-.2 3.4h.2a5.4 5.4 0 0 1 4.8-2.6zm-1.5 3.7a3 3 0 0 0-2.5 1.1 6.2 6.2 0 0 0-.8 3.5v.5a7.6 7.6 0 0 0 .8 3.9 2.9 2.9 0 0 0 2.6 1.2 2.5 2.5 0 0 0 2.2-1.4 6.4 6.4 0 0 0 .9-3.8 6.3 6.3 0 0 0-.9-3.7 2.6 2.6 0 0 0-2.3-1.3zm18.6 13.9c-5.3 0-7.9-2.9-7.9-8.7q0-4.4 2.1-6.6a8.1 8.1 0 0 1 6.2-2.3 11.8 11.8 0 0 1 5.3 1.2L54 58l-2-.8-1.9-.2q-3.6 0-3.6 5.1c0 3.3 1.2 5 3.6 5a8.6 8.6 0 0 0 2.4-.4 7 7 0 0 0 2.3-1.1v3.9a7.2 7.2 0 0 1-2.2 1 12.3 12.3 0 0 1-2.9.3zm14.4 0a5.7 5.7 0 0 1-4.7-2.3 11 11 0 0 1-1.7-6.4 10.3 10.3 0 0 1 1.8-6.5 5.4 5.4 0 0 1 4.7-2.4 5.6 5.6 0 0 1 4.9 2.5h.2a14.2 14.2 0 0 1-.4-3.4v-5.4h4.6v23.6H70l-.9-2.2h-.2a5.1 5.1 0 0 1-4.8 2.5zm1.6-3.7a3 3 0 0 0 2.6-1 5.4 5.4 0 0 0 .9-3.5v-.5a7.6 7.6 0 0 0-.8-3.9 3.2 3.2 0 0 0-2.7-1.2 2.5 2.5 0 0 0-2.4 1.3 6.9 6.9 0 0 0-.9 3.8 6.7 6.7 0 0 0 .9 3.8 2.7 2.7 0 0 0 2.4 1.2zM86 70.8a8.5 8.5 0 0 1-6.3-2.3 8.3 8.3 0 0 1-2.4-6.4 9.3 9.3 0 0 1 2.2-6.5 8.5 8.5 0 0 1 11.5-.3 7.7 7.7 0 0 1 2 5.6v2.3H82a5.1 5.1 0 0 0 1.2 3.1 4.2 4.2 0 0 0 3.1 1.1 8.6 8.6 0 0 0 2.8-.4 11.1 11.1 0 0 0 2.9-1v3.6a11.4 11.4 0 0 1-2.6.9 15.8 15.8 0 0 1-3.4.3zm-.6-14.3a2.6 2.6 0 0 0-2.3 1 4.1 4.1 0 0 0-1 2.6h6.5a3.6 3.6 0 0 0-.9-2.6 2.8 2.8 0 0 0-2.3-1zm20.7.5h-4v13.5h-4.6V57h-2.6v-2.2l2.6-1.2v-1.3c0-1.9.4-3.3 1.4-4.2s2.4-1.3 4.5-1.3a11.8 11.8 0 0 1 4.3.7l-1.2 3.4a8.5 8.5 0 0 0-2.6-.5 1.7 1.7 0 0 0-1.4.6 2.4 2.4 0 0 0-.4 1.5v1.1h4zm17.4-3.4v2.3l-2.7.7a4.3 4.3 0 0 1 .7 2.5 5 5 0 0 1-1.9 4.3 8.1 8.1 0 0 1-5.2 1.5h-1.6a1.7 1.7 0 0 0-.7 1.2c0 .7.9 1 2.6 1h2.9a6.6 6.6 0 0 1 4.2 1.2 4.3 4.3 0 0 1 1.5 3.5 5.3 5.3 0 0 1-2.5 4.6c-1.7 1.1-4 1.6-7.1 1.6a9.8 9.8 0 0 1-5.4-1.2 3.8 3.8 0 0 1-1.9-3.4 3.7 3.7 0 0 1 .9-2.6 5.8 5.8 0 0 1 2.8-1.5 3.5 3.5 0 0 1-1.2-1 1.9 1.9 0 0 1-.5-1.4 2.5 2.5 0 0 1 .5-1.6 4.8 4.8 0 0 1 1.7-1.3 5 5 0 0 1-2.2-1.9 5.6 5.6 0 0 1-.7-3 5.2 5.2 0 0 1 1.8-4.2 7.3 7.3 0 0 1 5.1-1.6l1.7.2 1.3.2zm-13.1 19.3a1.8 1.8 0 0 0 .9 1.5 4.8 4.8 0 0 0 2.6.5 10.7 10.7 0 0 0 3.9-.6 2.2 2.2 0 0 0 1.4-1.9 1.3 1.3 0 0 0-.9-1.3 5.4 5.4 0 0 0-2.5-.4h-2.4a3.8 3.8 0 0 0-2.2.6 1.9 1.9 0 0 0-.8 1.6zm1.7-13.8a3.8 3.8 0 0 0 .6 2.2 2.4 2.4 0 0 0 1.9.8 2.3 2.3 0 0 0 1.9-.8 3.8 3.8 0 0 0 .6-2.2c0-2-.8-3.1-2.5-3.1s-2.5 1.1-2.5 3.1zm29.8 11.4h-4.6v-9.9c0-2.4-.9-3.7-2.8-3.7a3.1 3.1 0 0 0-2.8 1.4 8.6 8.6 0 0 0-.8 4.2v8h-4.7V46.9h4.7v4.8c0 .4-.1 1.3-.1 2.7v1.3h.2a5.5 5.5 0 0 1 4.9-2.5 6.1 6.1 0 0 1 4.5 1.6 6.4 6.4 0 0 1 1.6 4.7zm4.5-21.3c0-1.5.9-2.3 2.6-2.3s2.5.8 2.5 2.3a2.1 2.1 0 0 1-.7 1.7 2.4 2.4 0 0 1-1.8.6c-1.7 0-2.6-.8-2.6-2.3zm4.9 21.3h-4.7V53.6h4.7zm3.4 7.4a13.2 13.2 0 0 1-3-.3v-3.7a7.8 7.8 0 0 0 2.2.3 2.4 2.4 0 0 0 1.7-.6 3.7 3.7 0 0 0 .5-2v-18h4.6v18.7a5.7 5.7 0 0 1-1.5 4.2 6.4 6.4 0 0 1-4.5 1.4zm1.2-28.7c0-1.5.8-2.3 2.5-2.3s2.5.8 2.5 2.3a2.4 2.4 0 0 1-.6 1.7 2.5 2.5 0 0 1-1.9.6c-1.7 0-2.5-.8-2.5-2.3zM170 61.3l2-2.6 4.8-5.1h5.2l-6.7 7.3 7.1 9.6h-5.3l-4.9-6.9-2 1.6v5.3h-4.6V46.9h4.6v10.5l-.2 3.9zm19.4 9.2h-4.6V46.9h4.6zm20 0h-4.6v-9.9a4.9 4.9 0 0 0-.6-2.7 2 2 0 0 0-1.9-1 2.9 2.9 0 0 0-2.6 1.3 9.1 9.1 0 0 0-.8 4.3v8h-4.6V53.6h3.5l.6 2.1h.3a3.9 3.9 0 0 1 2-1.8 6.5 6.5 0 0 1 2.9-.7c2.5 0 4.3.9 5.2 2.5h.4a3.9 3.9 0 0 1 2-1.8 7.3 7.3 0 0 1 3-.7 5.8 5.8 0 0 1 4.3 1.5q1.5 1.5 1.5 4.8v11h-4.6v-9.9a4.9 4.9 0 0 0-.6-2.7 2.2 2.2 0 0 0-2-1 2.8 2.8 0 0 0-2.5 1.2 6.8 6.8 0 0 0-.9 3.9zm31 0h-4.6v-9.9a4.8 4.8 0 0 0-.7-2.7 2.2 2.2 0 0 0-2.1-1 3.3 3.3 0 0 0-2.8 1.3 9.1 9.1 0 0 0-.8 4.3v8h-4.7V53.6h3.6l.6 2.1h.3a4.6 4.6 0 0 1 2.1-1.8 7.4 7.4 0 0 1 3.1-.7 6.1 6.1 0 0 1 4.4 1.6 6.2 6.2 0 0 1 1.6 4.7zm20.1-8.5a9 9 0 0 1-2.2 6.5 7.8 7.8 0 0 1-6 2.3 8.3 8.3 0 0 1-4.3-1.1 7 7 0 0 1-2.9-3 10.2 10.2 0 0 1-1-4.7 9 9 0 0 1 2.2-6.5 7.9 7.9 0 0 1 6.1-2.3 8.9 8.9 0 0 1 4.3 1.1 6.8 6.8 0 0 1 2.8 3 10.2 10.2 0 0 1 1 4.7zm-11.7 0a7.7 7.7 0 0 0 .8 3.8 3 3 0 0 0 2.7 1.3 2.9 2.9 0 0 0 2.7-1.3 7.4 7.4 0 0 0 .8-3.8 7.7 7.7 0 0 0-.8-3.8 3.6 3.6 0 0 0-5.4 0 7.7 7.7 0 0 0-.8 3.8zm24.8 8.8a5.4 5.4 0 0 1-4.6-2.2h-.3c.2 1.4.3 2.3.3 2.5v6.8h-4.7V53.6h3.8l.6 2.2h.3a5.2 5.2 0 0 1 4.8-2.6 5.5 5.5 0 0 1 4.7 2.4 10.6 10.6 0 0 1 1.7 6.4 13.2 13.2 0 0 1-.8 4.7 7.4 7.4 0 0 1-2.3 3.1 6.5 6.5 0 0 1-3.5 1zm-1.3-13.9a2.8 2.8 0 0 0-2.5 1.1 6.2 6.2 0 0 0-.8 3.5v.5a6.7 6.7 0 0 0 .8 3.9 2.8 2.8 0 0 0 2.5 1.2c2.1 0 3.1-1.7 3.1-5.2a7.4 7.4 0 0 0-.7-3.7 2.7 2.7 0 0 0-2.4-1.3zm17 13.9a5.7 5.7 0 0 1-4.7-2.3 11 11 0 0 1-1.7-6.4 10.3 10.3 0 0 1 1.8-6.5 5.4 5.4 0 0 1 4.7-2.4 6.1 6.1 0 0 1 2.8.6 7.6 7.6 0 0 1 2.1 1.9h.2l.4-2.1h3.9v24.3h-4.7v-7.1c0-.6.1-1.4.2-2.5h-.2a5.8 5.8 0 0 1-1.9 1.9 6.8 6.8 0 0 1-2.9.6zm1.7-3.6a3.5 3.5 0 0 0 2.6-1 7.2 7.2 0 0 0 .9-3.6v-.5a6.6 6.6 0 0 0-.9-3.9 2.9 2.9 0 0 0-2.7-1.2c-2.2 0-3.2 1.7-3.2 5.1a6.5 6.5 0 0 0 .8 3.8 2.6 2.6 0 0 0 2.5 1.3zm22.1-14l1.5.2-.3 4.3h-1.4a4.5 4.5 0 0 0-3.4 1.1 3.9 3.9 0 0 0-1.3 3.2v8.6h-4.6v-17h3.5l.7 2.8h.2a6.6 6.6 0 0 1 2.1-2.3 5.3 5.3 0 0 1 3-.9zm16.4 12.3a4.6 4.6 0 0 1-1.8 3.9 8.9 8.9 0 0 1-5.4 1.4 14.5 14.5 0 0 1-3.2-.3 10.9 10.9 0 0 1-2.4-.7V66l2.9 1a10.4 10.4 0 0 0 2.8.4c1.7 0 2.5-.5 2.5-1.4a1.2 1.2 0 0 0-.3-.9l-1.1-.8-2.2-1a15 15 0 0 1-2.9-1.5 4.8 4.8 0 0 1-1.3-1.6 5.1 5.1 0 0 1-.4-2.2 3.9 3.9 0 0 1 1.7-3.5 8.8 8.8 0 0 1 5-1.3 13.8 13.8 0 0 1 5.9 1.4l-1.4 3.3-2.3-.9a9.1 9.1 0 0 0-2.3-.3c-1.4 0-2 .3-2 1.1a1.2 1.2 0 0 0 .6 1 19.8 19.8 0 0 0 2.9 1.4 10.9 10.9 0 0 1 2.9 1.5 5.2 5.2 0 0 1 1.4 1.6 4.8 4.8 0 0 1 .4 2.2zm10.7 1.6a12.5 12.5 0 0 0 3-.5V70a11 11 0 0 1-4.3.8 5.2 5.2 0 0 1-4-1.4 5.7 5.7 0 0 1-1.3-4.2V57h-2.2v-1.9l2.5-1.6 1.4-3.5h2.9v3.6h4.8V57h-4.8v8.2a1.7 1.7 0 0 0 .6 1.4 1.7 1.7 0 0 0 1.4.5zm18.4 3.4l-.6-2.2h-.3a5.5 5.5 0 0 1-2.1 1.9 7.5 7.5 0 0 1-3.1.6 5.8 5.8 0 0 1-4.5-1.6 6.5 6.5 0 0 1-1.5-4.6v-11h4.6v9.9a4.1 4.1 0 0 0 .7 2.7 2.3 2.3 0 0 0 2 .9 3 3 0 0 0 2.8-1.3 7.6 7.6 0 0 0 .9-4.3v-7.9h4.6v16.9zm12.4 0l-6.5-16.9h4.9l3.3 9.6a23.3 23.3 0 0 1 .6 3.5h.1a19.5 19.5 0 0 1 .7-3.5l3.3-9.6h4.8l-6.5 16.9zm-357.2 51h-2.4v-15.8c0-1.3 0-2.5.1-3.7l-.7.7-3.6 2.9-1.4-1.7 5.9-4.6h2.1zm23 0H22.3v-2.2l5.8-5.8a38.7 38.7 0 0 0 3.5-3.9 8.5 8.5 0 0 0 1.3-2.2 6.4 6.4 0 0 0 .4-2.4 3.8 3.8 0 0 0-1.1-2.8 4 4 0 0 0-3-1 7.5 7.5 0 0 0-2.6.4 10.7 10.7 0 0 0-2.7 1.7l-1.4-1.7a10.5 10.5 0 0 1 6.7-2.6 7.4 7.4 0 0 1 4.9 1.6 5.5 5.5 0 0 1 1.8 4.3 8.4 8.4 0 0 1-1.2 4.2 28.1 28.1 0 0 1-4.4 5.2l-4.9 4.7v.2h11.4zm16.9-16.9a4.9 4.9 0 0 1-1.2 3.4 5.9 5.9 0 0 1-3.3 1.8v.2a6.1 6.1 0 0 1 3.9 1.6 5 5 0 0 1 1.3 3.6 5.7 5.7 0 0 1-2.2 4.9 10.2 10.2 0 0 1-6.2 1.7 16.9 16.9 0 0 1-3.3-.3 10.1 10.1 0 0 1-2.8-.9v-2.4a16.3 16.3 0 0 0 3.1 1.1 17.6 17.6 0 0 0 3.1.4q5.7 0 5.7-4.5c0-2.7-2.1-4.1-6.3-4.1h-2.2V109h2.2a6.5 6.5 0 0 0 4.1-1.2 3.7 3.7 0 0 0 1.5-3.2 3.3 3.3 0 0 0-1.1-2.5 4.7 4.7 0 0 0-3-.9 8.6 8.6 0 0 0-2.8.4 10.7 10.7 0 0 0-2.9 1.4l-1.3-1.7a13.8 13.8 0 0 1 3.2-1.7 11.5 11.5 0 0 1 3.7-.6 7.5 7.5 0 0 1 5 1.5 5 5 0 0 1 1.8 4.1zm19.6 11.8H70v5.1h-2.4v-5.1H56.9v-2.2l10.5-15H70v14.9h3.3zm-5.7-2.3v-7.3c0-1.5.1-3.1.2-4.9h-.1l-1.4 2.4-6.9 9.8zm14.8-6.1a7.9 7.9 0 0 1 5.5 1.7 6.1 6.1 0 0 1 2 4.8 6.7 6.7 0 0 1-2.2 5.3 8.7 8.7 0 0 1-6 2 11 11 0 0 1-5.7-1.2v-2.4a8.8 8.8 0 0 0 2.6 1 11.5 11.5 0 0 0 3.1.4 6.6 6.6 0 0 0 4.2-1.2 5 5 0 0 0 1.4-3.7c0-3.1-1.9-4.6-5.6-4.6a21.3 21.3 0 0 0-3.9.4l-1.3-.8.8-10.4h11v2.4h-8.8l-.6 6.6a20.7 20.7 0 0 1 3.5-.3zm11.1 4c0-4.3.8-7.6 2.5-9.7s4.2-3.3 7.5-3.3a9.6 9.6 0 0 1 2.7.3v2.2a7.7 7.7 0 0 0-2.7-.4 6.7 6.7 0 0 0-5.4 2.2c-1.3 1.5-1.9 3.8-2.1 7h.2a5.9 5.9 0 0 1 5.3-2.6 6.1 6.1 0 0 1 4.7 1.8 6.9 6.9 0 0 1 1.7 4.9 7.3 7.3 0 0 1-1.9 5.4 6.6 6.6 0 0 1-5.1 2 6.5 6.5 0 0 1-5.4-2.6c-1.4-1.7-2-4.1-2-7.2zm7.4 7.7a4.1 4.1 0 0 0 3.3-1.4 5.7 5.7 0 0 0 1.2-3.9 4.9 4.9 0 0 0-1.1-3.5 4.2 4.2 0 0 0-3.3-1.2 7 7 0 0 0-2.5.5 5.5 5.5 0 0 0-1.8 1.6 3.7 3.7 0 0 0-.7 2 6.8 6.8 0 0 0 .6 2.9 6.5 6.5 0 0 0 1.8 2.2 4.4 4.4 0 0 0 2.5.8zm12.9 1.8l9.1-19.8h-12v-2.4h14.7v2.1l-9.1 20.1zM136 99a7.8 7.8 0 0 1 4.8 1.4 4.8 4.8 0 0 1 1.8 3.9 4.7 4.7 0 0 1-1 3 10.1 10.1 0 0 1-3.3 2.5 10.2 10.2 0 0 1 3.9 2.7 5.2 5.2 0 0 1 1.1 3.3 5.5 5.5 0 0 1-1.9 4.4 8 8 0 0 1-5.3 1.6c-2.4 0-4.2-.5-5.4-1.6a5.3 5.3 0 0 1-2-4.4c0-2.5 1.6-4.5 4.7-5.9a8.6 8.6 0 0 1-3-2.5 5.6 5.6 0 0 1-.9-3.1 4.5 4.5 0 0 1 1.8-3.8A6.8 6.8 0 0 1 136 99zm-4.8 16.9a3.4 3.4 0 0 0 1.3 2.8 5.2 5.2 0 0 0 3.5 1.1 5.5 5.5 0 0 0 3.6-1.1 3.7 3.7 0 0 0 1.2-2.9 3.4 3.4 0 0 0-1.2-2.6 10.1 10.1 0 0 0-4.1-2.2 8.5 8.5 0 0 0-3.3 2.1 4.5 4.5 0 0 0-1 2.8zm4.8-14.8a4.5 4.5 0 0 0-3 .9 3 3 0 0 0-1.1 2.4 3.6 3.6 0 0 0 .9 2.4 9.4 9.4 0 0 0 3.3 2 7.9 7.9 0 0 0 3.1-2 3.6 3.6 0 0 0 .9-2.4 3 3 0 0 0-1.1-2.4 4.5 4.5 0 0 0-3-.9zm25 7.7c0 8.7-3.4 13-10.1 13a10.9 10.9 0 0 1-2.8-.3v-2.2a8.2 8.2 0 0 0 2.8.4 6.8 6.8 0 0 0 5.5-2.2c1.2-1.5 1.9-3.8 2-6.9h-.2a5.9 5.9 0 0 1-2.2 1.9 7.5 7.5 0 0 1-3.1.6 6.2 6.2 0 0 1-4.7-1.7 6.9 6.9 0 0 1-1.7-4.9 8.1 8.1 0 0 1 1.9-5.5 7.4 7.4 0 0 1 9.1-.8 7.6 7.6 0 0 1 2.6 3.4 13.5 13.5 0 0 1 .9 5.2zm-7.5-7.6a3.9 3.9 0 0 0-3.3 1.4 5.7 5.7 0 0 0-1.2 3.9 5.1 5.1 0 0 0 1.1 3.4 4.2 4.2 0 0 0 3.3 1.2 6.6 6.6 0 0 0 2.5-.5 4.9 4.9 0 0 0 1.9-1.6 3.6 3.6 0 0 0 .6-2 7.2 7.2 0 0 0-.6-2.9 5.1 5.1 0 0 0-1.7-2.1 4 4 0 0 0-2.6-.8zm25.3 9.2c0 3.8-.6 6.7-1.8 8.6a6.6 6.6 0 0 1-10.9-.1c-1.3-1.9-1.9-4.8-1.9-8.5s.6-6.7 1.8-8.6a6 6 0 0 1 5.5-2.8 6.3 6.3 0 0 1 5.5 2.9c1.2 2 1.8 4.8 1.8 8.5zm-12.1 0c0 3.2.4 5.6 1.2 7a4 4 0 0 0 7.2 0c.8-1.5 1.2-3.8 1.2-7s-.4-5.5-1.2-7a4 4 0 0 0-7.2 0c-.8 1.4-1.2 3.8-1.2 7z"/></svg>