<svg xmlns="http://www.w3.org/2000/svg" width="506" height="121.8" viewBox="0 0 506 121.8"><title>open-sans</title><g id="open-sans"><path d="M17,22.5l-2.8-7H5.3l-2.7,7H0L8.8.3h2.1l8.7,22.2Zm-3.6-9.4L10.8,6.3l-1-3.2a18.9,18.9,0,0,1-1,3.2L6.2,13.1Z"/><path d="M22.7.3h6.2c3,0,5.1.5,6.4,1.4a4.5,4.5,0,0,1,2,4.1,5.2,5.2,0,0,1-1.1,3.3A5.2,5.2,0,0,1,33,10.7v.2c3.3.6,5,2.3,5,5.3a5.4,5.4,0,0,1-2,4.6,8.5,8.5,0,0,1-5.6,1.7H22.7Zm2.6,9.5h4.2A7.6,7.6,0,0,0,33.4,9a3.4,3.4,0,0,0,1.2-2.9,2.9,2.9,0,0,0-1.3-2.7A9.1,9.1,0,0,0,29,2.6H25.3Zm0,2.2v8.3h4.6a6.4,6.4,0,0,0,4-1A3.9,3.9,0,0,0,35.3,16a3.4,3.4,0,0,0-1.4-3,7.1,7.1,0,0,0-4.2-1Z"/><path d="M52.3,2.3a7,7,0,0,0-5.8,2.5,9.7,9.7,0,0,0-2.1,6.6c0,2.9.7,5.2,2,6.7a7.3,7.3,0,0,0,5.8,2.4,22,22,0,0,0,5.3-.8v2.2a15.5,15.5,0,0,1-5.7.9,9.6,9.6,0,0,1-7.5-3q-2.7-3-2.7-8.4a14,14,0,0,1,1.3-6,10.2,10.2,0,0,1,3.7-4A11.5,11.5,0,0,1,52.3,0a14.8,14.8,0,0,1,6.1,1.3L57.3,3.5A11.8,11.8,0,0,0,52.3,2.3Z"/><path d="M80,11.2c0,3.7-1,6.5-2.9,8.4s-4.9,2.9-8.6,2.9H62.4V.3h6.7c3.5,0,6.2,1,8.1,2.9S80,7.8,80,11.2Zm-2.7.1c0-2.9-.7-5.1-2.2-6.5s-3.6-2.2-6.4-2.2H64.9V20.3h3.2A9.7,9.7,0,0,0,75,18C76.5,16.5,77.3,14.3,77.3,11.3Z"/><path d="M97.3,22.5H85V.3H97.3V2.6H87.5V9.8h9.2V12H87.5v8.2h9.8Z"/><path d="M104.8,22.5h-2.6V.3h12.4V2.6h-9.8v8.1H114V13h-9.2Z"/><path d="M128,10.9h7.5V21.7l-3.6.8a25.8,25.8,0,0,1-4.2.3,10.2,10.2,0,0,1-7.8-3c-1.9-2-2.8-4.8-2.8-8.4a11.6,11.6,0,0,1,1.4-6,8.6,8.6,0,0,1,4-4A12.8,12.8,0,0,1,128.6,0a18.5,18.5,0,0,1,6.6,1.3l-1,2.3a16.1,16.1,0,0,0-5.8-1.3,8.2,8.2,0,0,0-6.3,2.4,9.5,9.5,0,0,0-2.3,6.7c0,3,.7,5.3,2.2,6.8s3.6,2.3,6.4,2.3a16.4,16.4,0,0,0,4.5-.5V13.2H128Z"/><path d="M157.6,22.5h-2.5V12.1H143.4V22.5h-2.6V.3h2.6V9.8h11.7V.3h2.5Z"/><path d="M163.7,22.5V.3h2.6V22.5Z"/><path d="M169.1,28.3a4.6,4.6,0,0,1-2.2-.4V25.7a8.3,8.3,0,0,0,2.2.3,2.9,2.9,0,0,0,2.3-.9,4,4,0,0,0,.8-2.6V.3h2.6v22a6,6,0,0,1-1.5,4.4A5.4,5.4,0,0,1,169.1,28.3Z"/><path d="M196.6,22.5h-3l-8.1-10.7-2.3,2v8.7h-2.6V.3h2.6v11L193.3.3h3L187.4,10Z"/><path d="M199.7,22.5V.3h2.6V20.2H212v2.3Z"/><path d="M225.6,22.5,218.1,2.9H218c.1,1.5.2,3.4.2,5.5V22.5h-2.4V.3h3.9l7,18.3h.1L233.9.3h3.8V22.5h-2.6V8.2a51.3,51.3,0,0,1,.3-5.3h-.2l-7.5,19.6Z"/><path d="M261.1,22.5h-2.9L246.1,3.9h-.2q.3,3.3.3,6V22.5h-2.4V.3h2.9l12.1,18.6h.1c0-.3-.1-1.2-.1-2.7s-.1-2.5-.1-3.1V.3h2.4Z"/><path d="M286.4,11.4a12.5,12.5,0,0,1-2.7,8.4,10.9,10.9,0,0,1-15,0q-2.7-3-2.7-8.4T268.7,3c1.8-2,4.3-3,7.6-3a9.4,9.4,0,0,1,7.4,3Q286.4,6,286.4,11.4Zm-17.6,0c0,3,.6,5.3,1.9,6.8a6.6,6.6,0,0,0,5.5,2.3c2.5,0,4.4-.7,5.6-2.3s1.9-3.8,1.9-6.8-.6-5.2-1.9-6.8a6.7,6.7,0,0,0-5.5-2.3,6.9,6.9,0,0,0-5.6,2.3C269.4,6.2,268.8,8.4,268.8,11.4Z"/><path d="M305.4,6.8a6.4,6.4,0,0,1-2.3,5.2q-2.2,1.8-6.6,1.8h-2.6v8.7h-2.6V.3h5.8C302.6.3,305.4,2.5,305.4,6.8Zm-11.5,4.8h2.3a9,9,0,0,0,5-1.1,4.3,4.3,0,0,0,1.5-3.6,3.9,3.9,0,0,0-1.4-3.2,7.1,7.1,0,0,0-4.5-1.1h-2.9Z"/><path d="M329.2,11.4a13.1,13.1,0,0,1-1.7,7.1,8.7,8.7,0,0,1-4.8,3.8l5.3,5.5h-3.8l-4.3-5h-.8c-3.3,0-5.8-1-7.6-3s-2.6-4.8-2.6-8.4.9-6.4,2.6-8.4,4.3-3,7.6-3a9.6,9.6,0,0,1,7.5,3C328.4,5,329.2,7.8,329.2,11.4Zm-17.6,0c0,3,.6,5.3,1.9,6.8a6.8,6.8,0,0,0,5.6,2.3c2.4,0,4.3-.7,5.5-2.3s1.9-3.8,1.9-6.8-.6-5.2-1.8-6.8a6.9,6.9,0,0,0-5.6-2.3,7.1,7.1,0,0,0-5.6,2.3C312.2,6.2,311.6,8.4,311.6,11.4Z"/><path d="M336.8,13.3v9.2h-2.6V.3h6.1a9.8,9.8,0,0,1,6,1.6,5.6,5.6,0,0,1,1.9,4.7c0,2.9-1.5,4.9-4.4,5.9l6,10h-3.1l-5.3-9.2Zm0-2.2h3.5a6.4,6.4,0,0,0,4-1.1,4.2,4.2,0,0,0,1.3-3.3,3.8,3.8,0,0,0-1.3-3.1,6.9,6.9,0,0,0-4.2-1h-3.3Z"/><path d="M365.9,16.6a5.3,5.3,0,0,1-2.2,4.6,9,9,0,0,1-5.7,1.6,14.3,14.3,0,0,1-6.1-1V19.3a13.2,13.2,0,0,0,3,.9,17.3,17.3,0,0,0,3.2.3,7,7,0,0,0,3.9-.9,3.6,3.6,0,0,0,1.3-2.8,3.2,3.2,0,0,0-.5-1.8,4.1,4.1,0,0,0-1.5-1.4L358,12.2a10.5,10.5,0,0,1-4.5-2.6,6.4,6.4,0,0,1-1.3-4,5.3,5.3,0,0,1,1.9-4.1A8.1,8.1,0,0,1,359.2,0a15.1,15.1,0,0,1,6.1,1.2l-.8,2.3a13.1,13.1,0,0,0-5.3-1.2,4.9,4.9,0,0,0-3.2.9,2.9,2.9,0,0,0-1.2,2.4,4.9,4.9,0,0,0,.4,1.9,4.1,4.1,0,0,0,1.5,1.4,16.9,16.9,0,0,0,3.1,1.3,14.5,14.5,0,0,1,4.8,2.7A5.7,5.7,0,0,1,365.9,16.6Z"/><path d="M377.2,22.5h-2.6V2.6h-7V.3h16.6V2.6h-7Z"/><path d="M404.3.3V14.7a7.8,7.8,0,0,1-2.3,5.9,8.5,8.5,0,0,1-6.3,2.2,8.3,8.3,0,0,1-6.2-2.2,8.2,8.2,0,0,1-2.2-6V.3h2.6V14.8a5.9,5.9,0,0,0,1.5,4.3,6.5,6.5,0,0,0,4.5,1.4,5.9,5.9,0,0,0,4.3-1.5,5.5,5.5,0,0,0,1.5-4.2V.3Z"/><path d="M422.8.3h2.8l-8,22.2H415L407.1.3h2.7l5.1,14.4a29,29,0,0,1,1.4,4.8,39.4,39.4,0,0,1,1.4-4.9Z"/><path d="M447.9,22.5h-2.5L440.9,7.7l-.7-2.5a8.4,8.4,0,0,1-.4-1.8,31.3,31.3,0,0,1-1.1,4.4l-4.3,14.7h-2.5L426,.3h2.7L432.2,14c.5,1.9.8,3.7,1.1,5.2a26.2,26.2,0,0,1,1.2-5.4L438.4.3h2.8l4.1,13.6c.5,1.6.9,3.4,1.3,5.3.2-1.4.5-3.1,1-5.2L451.1.3h2.8Z"/><path d="M472.1,22.5h-3l-5.9-9.7-6.1,9.7h-2.7l7.4-11.6L454.9.3h2.9l5.5,8.8L468.8.3h2.7l-6.8,10.5Z"/><path d="M480.9,11.4,486.8.3h2.8l-7.4,13.6v8.6h-2.6V14L472.2.3H475Z"/><path d="M506,22.5H490.8v-2L502.6,2.7H491.2V.3h14.5V2.4L493.9,20.2H506Z"/><path d="M15.2,70.5l-.9-2.3h-.1a6.1,6.1,0,0,1-2.4,2,7.8,7.8,0,0,1-3.3.6,5.2,5.2,0,0,1-3.8-1.4,5.4,5.4,0,0,1-1.4-4,4.2,4.2,0,0,1,1.9-3.9Q7,60.2,10.9,60h2.9v-.8a2.3,2.3,0,0,0-2.6-2.6,10.8,10.8,0,0,0-4.8,1.3L4.9,54.7a13.8,13.8,0,0,1,6.5-1.5,8.1,8.1,0,0,1,5.2,1.5,5.5,5.5,0,0,1,1.8,4.5V70.5Zm-1.4-7.9H12a6,6,0,0,0-3,.7,2.7,2.7,0,0,0-1,2.1c0,1.3.8,1.9,2.3,1.9a3.7,3.7,0,0,0,2.6-.9,3.3,3.3,0,0,0,.9-2.5Z"/><path d="M32.6,53.2a5.5,5.5,0,0,1,4.7,2.4A10.8,10.8,0,0,1,39,62a10.3,10.3,0,0,1-1.8,6.5,5.6,5.6,0,0,1-4.7,2.3,5.5,5.5,0,0,1-4.7-2.2h-.3l-.8,1.9H23.2V46.9h4.6v5.5c0,.7-.1,1.8-.2,3.4h.2A5.4,5.4,0,0,1,32.6,53.2Zm-1.5,3.7A3,3,0,0,0,28.6,58a6.2,6.2,0,0,0-.8,3.5V62a7.6,7.6,0,0,0,.8,3.9,2.9,2.9,0,0,0,2.6,1.2,2.5,2.5,0,0,0,2.2-1.4,6.4,6.4,0,0,0,.9-3.8,6.3,6.3,0,0,0-.9-3.7A2.6,2.6,0,0,0,31.1,56.9Z"/><path d="M49.7,70.8c-5.3,0-7.9-2.9-7.9-8.7q0-4.4,2.1-6.6a8.1,8.1,0,0,1,6.2-2.3,11.8,11.8,0,0,1,5.3,1.2L54,58l-2-.8L50.1,57q-3.6,0-3.6,5.1c0,3.3,1.2,5,3.6,5a8.6,8.6,0,0,0,2.4-.4,7,7,0,0,0,2.3-1.1v3.9a7.2,7.2,0,0,1-2.2,1A12.3,12.3,0,0,1,49.7,70.8Z"/><path d="M64.1,70.8a5.7,5.7,0,0,1-4.7-2.3,11,11,0,0,1-1.7-6.4,10.3,10.3,0,0,1,1.8-6.5,5.4,5.4,0,0,1,4.7-2.4,5.6,5.6,0,0,1,4.9,2.5h.2a14.2,14.2,0,0,1-.4-3.4V46.9h4.6V70.5H70l-.9-2.2h-.2A5.1,5.1,0,0,1,64.1,70.8Zm1.6-3.7a3,3,0,0,0,2.6-1,5.4,5.4,0,0,0,.9-3.5v-.5a7.6,7.6,0,0,0-.8-3.9A3.2,3.2,0,0,0,65.7,57a2.5,2.5,0,0,0-2.4,1.3,6.9,6.9,0,0,0-.9,3.8,6.7,6.7,0,0,0,.9,3.8A2.7,2.7,0,0,0,65.7,67.1Z"/><path d="M86,70.8a8.5,8.5,0,0,1-6.3-2.3,8.3,8.3,0,0,1-2.4-6.4,9.3,9.3,0,0,1,2.2-6.5A8.5,8.5,0,0,1,91,55.3a7.7,7.7,0,0,1,2,5.6v2.3H82a5.1,5.1,0,0,0,1.2,3.1,4.2,4.2,0,0,0,3.1,1.1,8.6,8.6,0,0,0,2.8-.4A11.1,11.1,0,0,0,92,66v3.6a11.4,11.4,0,0,1-2.6.9A15.8,15.8,0,0,1,86,70.8Zm-.6-14.3a2.6,2.6,0,0,0-2.3,1,4.1,4.1,0,0,0-1,2.6h6.5a3.6,3.6,0,0,0-.9-2.6A2.8,2.8,0,0,0,85.4,56.5Z"/><path d="M106.1,57h-4V70.5H97.5V57H94.9V54.8l2.6-1.2V52.3c0-1.9.4-3.3,1.4-4.2s2.4-1.3,4.5-1.3a11.8,11.8,0,0,1,4.3.7l-1.2,3.4a8.5,8.5,0,0,0-2.6-.5,1.7,1.7,0,0,0-1.4.6,2.4,2.4,0,0,0-.4,1.5v1.1h4Z"/><path d="M123.5,53.6v2.3l-2.7.7a4.3,4.3,0,0,1,.7,2.5,5,5,0,0,1-1.9,4.3,8.1,8.1,0,0,1-5.2,1.5h-1.6a1.7,1.7,0,0,0-.7,1.2c0,.7.9,1,2.6,1h2.9a6.6,6.6,0,0,1,4.2,1.2,4.3,4.3,0,0,1,1.5,3.5,5.3,5.3,0,0,1-2.5,4.6c-1.7,1.1-4,1.6-7.1,1.6a9.8,9.8,0,0,1-5.4-1.2,3.8,3.8,0,0,1-1.9-3.4,3.7,3.7,0,0,1,.9-2.6,5.8,5.8,0,0,1,2.8-1.5,3.5,3.5,0,0,1-1.2-1,1.9,1.9,0,0,1-.5-1.4,2.5,2.5,0,0,1,.5-1.6,4.8,4.8,0,0,1,1.7-1.3,5,5,0,0,1-2.2-1.9,5.6,5.6,0,0,1-.7-3,5.2,5.2,0,0,1,1.8-4.2,7.3,7.3,0,0,1,5.1-1.6l1.7.2,1.3.2ZM110.4,72.9a1.8,1.8,0,0,0,.9,1.5,4.8,4.8,0,0,0,2.6.5,10.7,10.7,0,0,0,3.9-.6,2.2,2.2,0,0,0,1.4-1.9,1.3,1.3,0,0,0-.9-1.3,5.4,5.4,0,0,0-2.5-.4h-2.4a3.8,3.8,0,0,0-2.2.6A1.9,1.9,0,0,0,110.4,72.9Zm1.7-13.8a3.8,3.8,0,0,0,.6,2.2,2.4,2.4,0,0,0,1.9.8,2.3,2.3,0,0,0,1.9-.8,3.8,3.8,0,0,0,.6-2.2c0-2-.8-3.1-2.5-3.1S112.1,57.1,112.1,59.1Z"/><path d="M141.9,70.5h-4.6V60.6c0-2.4-.9-3.7-2.8-3.7a3.1,3.1,0,0,0-2.8,1.4,8.6,8.6,0,0,0-.8,4.2v8h-4.7V46.9h4.7v4.8c0,.4-.1,1.3-.1,2.7v1.3h.2a5.5,5.5,0,0,1,4.9-2.5,6.1,6.1,0,0,1,4.5,1.6,6.4,6.4,0,0,1,1.6,4.7Z"/><path d="M146.4,49.2c0-1.5.9-2.3,2.6-2.3s2.5.8,2.5,2.3a2.1,2.1,0,0,1-.7,1.7,2.4,2.4,0,0,1-1.8.6C147.3,51.5,146.4,50.7,146.4,49.2Zm4.9,21.3h-4.7V53.6h4.7Z"/><path d="M154.7,77.9a13.2,13.2,0,0,1-3-.3V73.9a7.8,7.8,0,0,0,2.2.3,2.4,2.4,0,0,0,1.7-.6,3.7,3.7,0,0,0,.5-2v-18h4.6V72.3a5.7,5.7,0,0,1-1.5,4.2A6.4,6.4,0,0,1,154.7,77.9Zm1.2-28.7c0-1.5.8-2.3,2.5-2.3s2.5.8,2.5,2.3a2.4,2.4,0,0,1-.6,1.7,2.5,2.5,0,0,1-1.9.6C156.7,51.5,155.9,50.7,155.9,49.2Z"/><path d="M170,61.3l2-2.6,4.8-5.1H182l-6.7,7.3,7.1,9.6h-5.3l-4.9-6.9-2,1.6v5.3h-4.6V46.9h4.6V57.4l-.2,3.9Z"/><path d="M189.4,70.5h-4.6V46.9h4.6Z"/><path d="M209.4,70.5h-4.6V60.6a4.9,4.9,0,0,0-.6-2.7,2,2,0,0,0-1.9-1,2.9,2.9,0,0,0-2.6,1.3,9.1,9.1,0,0,0-.8,4.3v8h-4.6V53.6h3.5l.6,2.1h.3a3.9,3.9,0,0,1,2-1.8,6.5,6.5,0,0,1,2.9-.7c2.5,0,4.3.9,5.2,2.5h.4a3.9,3.9,0,0,1,2-1.8,7.3,7.3,0,0,1,3-.7,5.8,5.8,0,0,1,4.3,1.5q1.5,1.5,1.5,4.8v11h-4.6V60.6a4.9,4.9,0,0,0-.6-2.7,2.2,2.2,0,0,0-2-1,2.8,2.8,0,0,0-2.5,1.2,6.8,6.8,0,0,0-.9,3.9Z"/><path d="M240.4,70.5h-4.6V60.6a4.8,4.8,0,0,0-.7-2.7,2.2,2.2,0,0,0-2.1-1,3.3,3.3,0,0,0-2.8,1.3,9.1,9.1,0,0,0-.8,4.3v8h-4.7V53.6h3.6l.6,2.1h.3a4.6,4.6,0,0,1,2.1-1.8,7.4,7.4,0,0,1,3.1-.7,6.1,6.1,0,0,1,4.4,1.6,6.2,6.2,0,0,1,1.6,4.7Z"/><path d="M260.5,62a9,9,0,0,1-2.2,6.5,7.8,7.8,0,0,1-6,2.3,8.3,8.3,0,0,1-4.3-1.1,7,7,0,0,1-2.9-3,10.2,10.2,0,0,1-1-4.7,9,9,0,0,1,2.2-6.5,7.9,7.9,0,0,1,6.1-2.3,8.9,8.9,0,0,1,4.3,1.1,6.8,6.8,0,0,1,2.8,3A10.2,10.2,0,0,1,260.5,62Zm-11.7,0a7.7,7.7,0,0,0,.8,3.8,3,3,0,0,0,2.7,1.3,2.9,2.9,0,0,0,2.7-1.3,7.4,7.4,0,0,0,.8-3.8,7.7,7.7,0,0,0-.8-3.8,3.6,3.6,0,0,0-5.4,0A7.7,7.7,0,0,0,248.8,62Z"/><path d="M273.6,70.8a5.4,5.4,0,0,1-4.6-2.2h-.3c.2,1.4.3,2.3.3,2.5v6.8h-4.7V53.6h3.8l.6,2.2h.3a5.2,5.2,0,0,1,4.8-2.6,5.5,5.5,0,0,1,4.7,2.4,10.6,10.6,0,0,1,1.7,6.4,13.2,13.2,0,0,1-.8,4.7,7.4,7.4,0,0,1-2.3,3.1A6.5,6.5,0,0,1,273.6,70.8Zm-1.3-13.9a2.8,2.8,0,0,0-2.5,1.1,6.2,6.2,0,0,0-.8,3.5V62a6.7,6.7,0,0,0,.8,3.9,2.8,2.8,0,0,0,2.5,1.2c2.1,0,3.1-1.7,3.1-5.2a7.4,7.4,0,0,0-.7-3.7A2.7,2.7,0,0,0,272.3,56.9Z"/><path d="M289.3,70.8a5.7,5.7,0,0,1-4.7-2.3,11,11,0,0,1-1.7-6.4,10.3,10.3,0,0,1,1.8-6.5,5.4,5.4,0,0,1,4.7-2.4,6.1,6.1,0,0,1,2.8.6,7.6,7.6,0,0,1,2.1,1.9h.2l.4-2.1h3.9V77.9h-4.7V70.8c0-.6.1-1.4.2-2.5h-.2a5.8,5.8,0,0,1-1.9,1.9A6.8,6.8,0,0,1,289.3,70.8Zm1.7-3.6a3.5,3.5,0,0,0,2.6-1,7.2,7.2,0,0,0,.9-3.6v-.5a6.6,6.6,0,0,0-.9-3.9,2.9,2.9,0,0,0-2.7-1.2c-2.2,0-3.2,1.7-3.2,5.1a6.5,6.5,0,0,0,.8,3.8A2.6,2.6,0,0,0,291,67.2Z"/><path d="M313.1,53.2l1.5.2-.3,4.3h-1.4a4.5,4.5,0,0,0-3.4,1.1,3.9,3.9,0,0,0-1.3,3.2v8.6h-4.6V53.6h3.5l.7,2.8h.2a6.6,6.6,0,0,1,2.1-2.3A5.3,5.3,0,0,1,313.1,53.2Z"/><path d="M329.5,65.5a4.6,4.6,0,0,1-1.8,3.9,8.9,8.9,0,0,1-5.4,1.4,14.5,14.5,0,0,1-3.2-.3,10.9,10.9,0,0,1-2.4-.7V66l2.9,1a10.4,10.4,0,0,0,2.8.4c1.7,0,2.5-.5,2.5-1.4a1.2,1.2,0,0,0-.3-.9l-1.1-.8-2.2-1a15,15,0,0,1-2.9-1.5,4.8,4.8,0,0,1-1.3-1.6,5.1,5.1,0,0,1-.4-2.2,3.9,3.9,0,0,1,1.7-3.5,8.8,8.8,0,0,1,5-1.3,13.8,13.8,0,0,1,5.9,1.4l-1.4,3.3-2.3-.9a9.1,9.1,0,0,0-2.3-.3c-1.4,0-2,.3-2,1.1a1.2,1.2,0,0,0,.6,1,19.8,19.8,0,0,0,2.9,1.4,10.9,10.9,0,0,1,2.9,1.5,5.2,5.2,0,0,1,1.4,1.6A4.8,4.8,0,0,1,329.5,65.5Z"/><path d="M340.2,67.1a12.5,12.5,0,0,0,3-.5V70a11,11,0,0,1-4.3.8,5.2,5.2,0,0,1-4-1.4,5.7,5.7,0,0,1-1.3-4.2V57h-2.2V55.1l2.5-1.6,1.4-3.5h2.9v3.6H343V57h-4.8v8.2a1.7,1.7,0,0,0,.6,1.4A1.7,1.7,0,0,0,340.2,67.1Z"/><path d="M358.6,70.5l-.6-2.2h-.3a5.5,5.5,0,0,1-2.1,1.9,7.5,7.5,0,0,1-3.1.6,5.8,5.8,0,0,1-4.5-1.6,6.5,6.5,0,0,1-1.5-4.6v-11h4.6v9.9a4.1,4.1,0,0,0,.7,2.7,2.3,2.3,0,0,0,2,.9,3,3,0,0,0,2.8-1.3,7.6,7.6,0,0,0,.9-4.3V53.6h4.6V70.5Z"/><path d="M371,70.5l-6.5-16.9h4.9l3.3,9.6a23.3,23.3,0,0,1,.6,3.5h.1a19.5,19.5,0,0,1,.7-3.5l3.3-9.6h4.8l-6.5,16.9Z"/><path d="M13.8,121.5H11.4V105.7c0-1.3,0-2.5.1-3.7l-.7.7-3.6,2.9-1.4-1.7,5.9-4.6h2.1Z"/><path d="M36.8,121.5H22.3v-2.2l5.8-5.8a38.7,38.7,0,0,0,3.5-3.9,8.5,8.5,0,0,0,1.3-2.2,6.4,6.4,0,0,0,.4-2.4,3.8,3.8,0,0,0-1.1-2.8,4,4,0,0,0-3-1,7.5,7.5,0,0,0-2.6.4,10.7,10.7,0,0,0-2.7,1.7l-1.4-1.7A10.5,10.5,0,0,1,29.2,99a7.4,7.4,0,0,1,4.9,1.6,5.5,5.5,0,0,1,1.8,4.3,8.4,8.4,0,0,1-1.2,4.2,28.1,28.1,0,0,1-4.4,5.2L25.4,119v.2H36.8Z"/><path d="M53.7,104.6a4.9,4.9,0,0,1-1.2,3.4,5.9,5.9,0,0,1-3.3,1.8v.2a6.1,6.1,0,0,1,3.9,1.6,5,5,0,0,1,1.3,3.6,5.7,5.7,0,0,1-2.2,4.9,10.2,10.2,0,0,1-6.2,1.7,16.9,16.9,0,0,1-3.3-.3,10.1,10.1,0,0,1-2.8-.9v-2.4a16.3,16.3,0,0,0,3.1,1.1,17.6,17.6,0,0,0,3.1.4q5.7,0,5.7-4.5c0-2.7-2.1-4.1-6.3-4.1H43.3V109h2.2a6.5,6.5,0,0,0,4.1-1.2,3.7,3.7,0,0,0,1.5-3.2,3.3,3.3,0,0,0-1.1-2.5,4.7,4.7,0,0,0-3-.9,8.6,8.6,0,0,0-2.8.4,10.7,10.7,0,0,0-2.9,1.4L40,101.3a13.8,13.8,0,0,1,3.2-1.7,11.5,11.5,0,0,1,3.7-.6,7.5,7.5,0,0,1,5,1.5A5,5,0,0,1,53.7,104.6Z"/><path d="M73.3,116.4H70v5.1H67.6v-5.1H56.9v-2.2l10.5-15H70v14.9h3.3Zm-5.7-2.3v-7.3c0-1.5.1-3.1.2-4.9h-.1l-1.4,2.4-6.9,9.8Z"/><path d="M82.4,108a7.9,7.9,0,0,1,5.5,1.7,6.1,6.1,0,0,1,2,4.8,6.7,6.7,0,0,1-2.2,5.3,8.7,8.7,0,0,1-6,2,11,11,0,0,1-5.7-1.2v-2.4a8.8,8.8,0,0,0,2.6,1,11.5,11.5,0,0,0,3.1.4,6.6,6.6,0,0,0,4.2-1.2,5,5,0,0,0,1.4-3.7c0-3.1-1.9-4.6-5.6-4.6a21.3,21.3,0,0,0-3.9.4l-1.3-.8.8-10.4h11v2.4H79.5l-.6,6.6A20.7,20.7,0,0,1,82.4,108Z"/><path d="M93.5,112c0-4.3.8-7.6,2.5-9.7s4.2-3.3,7.5-3.3a9.6,9.6,0,0,1,2.7.3v2.2a7.7,7.7,0,0,0-2.7-.4,6.7,6.7,0,0,0-5.4,2.2c-1.3,1.5-1.9,3.8-2.1,7h.2a5.9,5.9,0,0,1,5.3-2.6,6.1,6.1,0,0,1,4.7,1.8,6.9,6.9,0,0,1,1.7,4.9,7.3,7.3,0,0,1-1.9,5.4,6.6,6.6,0,0,1-5.1,2,6.5,6.5,0,0,1-5.4-2.6C94.1,117.5,93.5,115.1,93.5,112Zm7.4,7.7a4.1,4.1,0,0,0,3.3-1.4,5.7,5.7,0,0,0,1.2-3.9,4.9,4.9,0,0,0-1.1-3.5,4.2,4.2,0,0,0-3.3-1.2,7,7,0,0,0-2.5.5,5.5,5.5,0,0,0-1.8,1.6,3.7,3.7,0,0,0-.7,2,6.8,6.8,0,0,0,.6,2.9,6.5,6.5,0,0,0,1.8,2.2A4.4,4.4,0,0,0,100.9,119.7Z"/><path d="M113.8,121.5l9.1-19.8h-12V99.3h14.7v2.1l-9.1,20.1Z"/><path d="M136,99a7.8,7.8,0,0,1,4.8,1.4,4.8,4.8,0,0,1,1.8,3.9,4.7,4.7,0,0,1-1,3,10.1,10.1,0,0,1-3.3,2.5,10.2,10.2,0,0,1,3.9,2.7,5.2,5.2,0,0,1,1.1,3.3,5.5,5.5,0,0,1-1.9,4.4,8,8,0,0,1-5.3,1.6c-2.4,0-4.2-.5-5.4-1.6a5.3,5.3,0,0,1-2-4.4c0-2.5,1.6-4.5,4.7-5.9a8.6,8.6,0,0,1-3-2.5,5.6,5.6,0,0,1-.9-3.1,4.5,4.5,0,0,1,1.8-3.8A6.8,6.8,0,0,1,136,99Zm-4.8,16.9a3.4,3.4,0,0,0,1.3,2.8,5.2,5.2,0,0,0,3.5,1.1,5.5,5.5,0,0,0,3.6-1.1,3.7,3.7,0,0,0,1.2-2.9,3.4,3.4,0,0,0-1.2-2.6,10.1,10.1,0,0,0-4.1-2.2,8.5,8.5,0,0,0-3.3,2.1A4.5,4.5,0,0,0,131.2,115.9Zm4.8-14.8a4.5,4.5,0,0,0-3,.9,3,3,0,0,0-1.1,2.4,3.6,3.6,0,0,0,.9,2.4,9.4,9.4,0,0,0,3.3,2,7.9,7.9,0,0,0,3.1-2,3.6,3.6,0,0,0,.9-2.4A3,3,0,0,0,139,102,4.5,4.5,0,0,0,136,101.1Z"/><path d="M161,108.8c0,8.7-3.4,13-10.1,13a10.9,10.9,0,0,1-2.8-.3v-2.2a8.2,8.2,0,0,0,2.8.4,6.8,6.8,0,0,0,5.5-2.2c1.2-1.5,1.9-3.8,2-6.9h-.2a5.9,5.9,0,0,1-2.2,1.9,7.5,7.5,0,0,1-3.1.6,6.2,6.2,0,0,1-4.7-1.7,6.9,6.9,0,0,1-1.7-4.9,8.1,8.1,0,0,1,1.9-5.5,7.4,7.4,0,0,1,9.1-.8,7.6,7.6,0,0,1,2.6,3.4A13.5,13.5,0,0,1,161,108.8Zm-7.5-7.6a3.9,3.9,0,0,0-3.3,1.4,5.7,5.7,0,0,0-1.2,3.9,5.1,5.1,0,0,0,1.1,3.4,4.2,4.2,0,0,0,3.3,1.2,6.6,6.6,0,0,0,2.5-.5,4.9,4.9,0,0,0,1.9-1.6,3.6,3.6,0,0,0,.6-2,7.2,7.2,0,0,0-.6-2.9,5.1,5.1,0,0,0-1.7-2.1A4,4,0,0,0,153.5,101.2Z"/><path d="M178.8,110.4c0,3.8-.6,6.7-1.8,8.6a6.6,6.6,0,0,1-10.9-.1c-1.3-1.9-1.9-4.8-1.9-8.5s.6-6.7,1.8-8.6a6,6,0,0,1,5.5-2.8,6.3,6.3,0,0,1,5.5,2.9C178.2,103.9,178.8,106.7,178.8,110.4Zm-12.1,0c0,3.2.4,5.6,1.2,7a4,4,0,0,0,7.2,0c.8-1.5,1.2-3.8,1.2-7s-.4-5.5-1.2-7a4,4,0,0,0-7.2,0C167.1,104.8,166.7,107.2,166.7,110.4Z"/></g></svg>