<svg id="org-do-not-delete" xmlns="http://www.w3.org/2000/svg" width="522.6" height="121.3" viewBox="0 0 522.6 121.3"><title>quicksand</title><path d="M18.3,21.2a.9.9,0,0,1-.3.6.9.9,0,0,1-.7.3l-.5-.2a1,1,0,0,1-.4-.5l-2.3-5.6H4L1.7,21.4a.8.8,0,0,1-.8.7.9.9,0,0,1-.7-.3.8.8,0,0,1-.2-.5H0v-.3L8.2.8a1,1,0,0,1,1-.6l.5.2c.2.1.3.3.4.4l8.1,20A.8.8,0,0,1,18.3,21.2ZM4.7,13.9h8.7L9,3.3Z"/><path d="M36.7,12.3A5.7,5.7,0,0,1,37.9,16,5.3,5.3,0,0,1,36,20.5,7.1,7.1,0,0,1,31.4,22H23l-.6-.2a.9.9,0,0,1-.3-.7V1.2a.9.9,0,0,1,.3-.6A.7.7,0,0,1,23,.3h8.2a5.8,5.8,0,0,1,4.1,1.4,5.3,5.3,0,0,1,1.5,3.9,6.1,6.1,0,0,1-.8,3,4.8,4.8,0,0,1-2.3,1.9A5.8,5.8,0,0,1,36.7,12.3ZM33.8,3.1a4.1,4.1,0,0,0-2.8-1H24.1V9.9H31a3.7,3.7,0,0,0,2.7-1.1,3.7,3.7,0,0,0,1.1-3A3.6,3.6,0,0,0,33.8,3.1Zm.8,16A3.6,3.6,0,0,0,35.9,16a3.7,3.7,0,0,0-1.3-3.2,5.3,5.3,0,0,0-3.4-1H24.1v8.4h7.2A4.9,4.9,0,0,0,34.6,19.1Z"/><path d="M58.6,2.7a1.4,1.4,0,0,1-.2.6,1,1,0,0,1-.7.4l-.5-.2a9.8,9.8,0,0,0-5.5-1.6A10,10,0,0,0,47.2,3,8.5,8.5,0,0,0,44,6.3a10.2,10.2,0,0,0-1.2,4.9A10.2,10.2,0,0,0,44,16.1a8.2,8.2,0,0,0,3.2,3.2,8.9,8.9,0,0,0,4.5,1.2,9.3,9.3,0,0,0,5.4-1.6l.6-.2a1,1,0,0,1,.7.4,1.4,1.4,0,0,1,.2.6.7.7,0,0,1-.4.7,10.5,10.5,0,0,1-3,1.4,10.6,10.6,0,0,1-3.5.5,10.4,10.4,0,0,1-5.4-1.4,10,10,0,0,1-4-3.9,11.3,11.3,0,0,1-1.4-5.8,11,11,0,0,1,1.4-5.7,10.3,10.3,0,0,1,4-4A10,10,0,0,1,51.7,0a12.7,12.7,0,0,1,3.4.5,13.8,13.8,0,0,1,3,1.4A1,1,0,0,1,58.6,2.7Z"/><path d="M76.4,1.8a8.3,8.3,0,0,1,3,3.9,14.2,14.2,0,0,1,1,5.5,13.8,13.8,0,0,1-1,5.5,8.3,8.3,0,0,1-3,3.9,8.9,8.9,0,0,1-5,1.4H63.5l-.7-.2a.9.9,0,0,1-.3-.7V1.2a.9.9,0,0,1,.3-.6.9.9,0,0,1,.7-.3h7.9A8.2,8.2,0,0,1,76.4,1.8Zm.2,15.9a10.9,10.9,0,0,0,1.9-6.5,13.4,13.4,0,0,0-.8-4.6,6.6,6.6,0,0,0-2.5-3.2,6.1,6.1,0,0,0-4.1-1.3H64.5V20.2h6.6A6.2,6.2,0,0,0,76.6,17.7Z"/><path d="M97.8,20.5a.9.9,0,0,1,.3.6.9.9,0,0,1-.3.7l-.6.2H85.8l-.7-.2a.9.9,0,0,1-.3-.7V1.2a.9.9,0,0,1,.3-.6.9.9,0,0,1,.7-.3H97.2a.7.7,0,0,1,.6.3.9.9,0,0,1,.3.6.9.9,0,0,1-.3.7c-.1.2-.4.2-.6.2H86.8V9.9h9a.7.7,0,0,1,.6.3.9.9,0,0,1,.3.7.9.9,0,0,1-.3.6.7.7,0,0,1-.6.3h-9v8.4H97.2A.7.7,0,0,1,97.8,20.5Z"/><path d="M115.4.6a1.4,1.4,0,0,1,.2.6,1.4,1.4,0,0,1-.2.7.8.8,0,0,1-.7.2H104.4V9.9h8.9a.9.9,0,0,1,.7.3,1.1,1.1,0,0,1,.2.6,1.4,1.4,0,0,1-.2.7l-.7.2h-8.9v9.4a.9.9,0,0,1-.3.7l-.7.2-.7-.2a1.4,1.4,0,0,1-.2-.7V1.2a1.4,1.4,0,0,1,.2-.6.9.9,0,0,1,.7-.3h11.3A.9.9,0,0,1,115.4.6Z"/><path d="M136.3,11.3a1.4,1.4,0,0,1,.2.7v7.5a.9.9,0,0,1-.4.8,9.9,9.9,0,0,1-3.1,1.5,10.6,10.6,0,0,1-3.5.5,10.9,10.9,0,0,1-11.2-11.1,11,11,0,0,1,1.5-5.7,10.3,10.3,0,0,1,4-4A11,11,0,0,1,129.5,0a11.7,11.7,0,0,1,3.2.4,11.1,11.1,0,0,1,2.7,1.2.8.8,0,0,1,.5.7.9.9,0,0,1-.3.7.9.9,0,0,1-.6.3l-.6-.2a10.4,10.4,0,0,0-4.9-1.2,9.1,9.1,0,0,0-4.7,1.2,8.7,8.7,0,0,0-3.3,3.3,9.5,9.5,0,0,0-1.2,4.8,9.4,9.4,0,0,0,1.2,4.7,9,9,0,0,0,3.3,3.4,9.1,9.1,0,0,0,4.7,1.2,8.4,8.4,0,0,0,2.7-.4,8.7,8.7,0,0,0,2.4-1V12.9h-4.9l-.7-.2a1,1,0,0,1,0-1.4l.7-.2h5.9Z"/><path d="M157.6.6a1.4,1.4,0,0,1,.2.7V21.1a.9.9,0,0,1-.3.7l-.7.2a.9.9,0,0,1-.9-.9V11.8H143.3v9.3l-.3.6a1.1,1.1,0,0,1-.7.3l-.7-.2a.9.9,0,0,1-.3-.7V1.3a.9.9,0,0,1,.3-.7,1,1,0,0,1,1.4,0,.9.9,0,0,1,.3.7V10h12.6V1.3a.9.9,0,0,1,.3-.7.9.9,0,0,1,.7-.3A1.1,1.1,0,0,1,157.6.6Z"/><path d="M165.3,21.7a.9.9,0,0,1-.7.3l-.7-.2a.9.9,0,0,1-.3-.7V1.3a.9.9,0,0,1,.3-.7,1.1,1.1,0,0,1,.7-.3.9.9,0,0,1,.7.3.9.9,0,0,1,.3.7V21.1A.7.7,0,0,1,165.3,21.7Z"/><path d="M173.1,21.3a6.2,6.2,0,0,1-2.4-2.9c-.1-.2-.2-.3-.2-.5a.7.7,0,0,1,.3-.6.9.9,0,0,1,.7-.3.9.9,0,0,1,.8.6,5.8,5.8,0,0,0,1.7,2.1,4.7,4.7,0,0,0,2.6.8,4.9,4.9,0,0,0,3.4-1.3,4.8,4.8,0,0,0,1.4-3.5V1.2a1.4,1.4,0,0,1,.2-.6,1.1,1.1,0,0,1,.8-.3,1.1,1.1,0,0,1,.7.3,1.4,1.4,0,0,1,.2.6V15.7a7.4,7.4,0,0,1-.8,3.4,6.4,6.4,0,0,1-2.5,2.4,6.3,6.3,0,0,1-3.4.8A6,6,0,0,1,173.1,21.3Z"/><path d="M205.7,21.2a.9.9,0,0,1-.3.7,1.1,1.1,0,0,1-.7.3,1,1,0,0,1-.7-.4l-8.7-10.9-4.2,4v6.2a.9.9,0,0,1-.3.7l-.7.2-.7-.2a.8.8,0,0,1-.2-.7V1.3a.8.8,0,0,1,.2-.7,1.1,1.1,0,0,1,.7-.3.8.8,0,0,1,.7.3.9.9,0,0,1,.3.7V12.5L203.6.7a1.1,1.1,0,0,1,.7-.3.9.9,0,0,1,.7.3.8.8,0,0,1,.2.6.9.9,0,0,1-.3.6l-8.1,7.6,8.7,11A1.4,1.4,0,0,1,205.7,21.2Z"/><path d="M222.8,20.4a1.3,1.3,0,0,1,0,1.4l-.7.2H211l-.6-.2a.9.9,0,0,1-.3-.7V1.2a.9.9,0,0,1,.3-.6,1,1,0,0,1,1.4,0,.7.7,0,0,1,.2.6v19h10.1Z"/><path d="M246.2.6a1.4,1.4,0,0,1,.2.6V21.1a.9.9,0,0,1-.3.7l-.6.2-.8-.2a1.4,1.4,0,0,1-.2-.7V4l-7.3,11.1c-.2.2-.5.4-.7.3h-.1a1.1,1.1,0,0,1-.7-.3L228.4,4V21.1a1.4,1.4,0,0,1-.2.7l-.7.2-.7-.2a1.4,1.4,0,0,1-.2-.7V1.2a.9.9,0,0,1,.3-.6.7.7,0,0,1,.6-.3h.5l.4.3,8.1,12.2L244.7.7a1,1,0,0,1,1.5-.1Z"/><path d="M268.8.6a.8.8,0,0,1,.2.6V21a1.1,1.1,0,0,1-.3.8l-.7.2h-.4l-.3-.2L254,3.8V21.2a.9.9,0,0,1-.3.6l-.6.2-.6-.2a.7.7,0,0,1-.2-.6V1.2c0-.2,0-.5.2-.6a.9.9,0,0,1,.7-.3.8.8,0,0,1,.7.4l13.4,18V1.2a.8.8,0,0,1,.2-.6.9.9,0,0,1,.6-.3A.9.9,0,0,1,268.8.6Z"/><path d="M292.9,16.9a11,11,0,0,1-3.7,4,11.1,11.1,0,0,1-10.8,0,11,11,0,0,1-3.7-4,13.4,13.4,0,0,1,0-11.5,11,11,0,0,1,3.7-4,11.1,11.1,0,0,1,10.8,0,11,11,0,0,1,3.7,4,12.1,12.1,0,0,1,1.3,5.8A12,12,0,0,1,292.9,16.9ZM291.1,6.3A8.5,8.5,0,0,0,288.2,3a9.3,9.3,0,0,0-8.8,0,8.5,8.5,0,0,0-2.9,3.3,11.4,11.4,0,0,0-1.1,4.9,10.6,10.6,0,0,0,1.1,4.8,8.5,8.5,0,0,0,2.9,3.3,8.7,8.7,0,0,0,8.8,0,8.5,8.5,0,0,0,2.9-3.3,9.5,9.5,0,0,0,1.1-4.8A10.1,10.1,0,0,0,291.1,6.3Z"/><path d="M310,1.1a5.6,5.6,0,0,1,2.1,2.2,6.6,6.6,0,0,1,.7,3.2,6.8,6.8,0,0,1-.7,3.2A5.8,5.8,0,0,1,310,12a5.8,5.8,0,0,1-3.1.8h-6.4v8.3a.9.9,0,0,1-.3.7l-.7.2-.6-.2a.9.9,0,0,1-.3-.7V1.2a.9.9,0,0,1,.3-.6.7.7,0,0,1,.6-.3h7.4A6.8,6.8,0,0,1,310,1.1Zm-.2,8.6a4.8,4.8,0,0,0,1.1-3.2,4.5,4.5,0,0,0-1.1-3.1,3.5,3.5,0,0,0-2.9-1.3h-6.4V11h6.4A3.5,3.5,0,0,0,309.8,9.7Z"/><path d="M338.5,24a.9.9,0,0,1,.3.6c0,.5-.3.9-.9,1.3a7,7,0,0,1-2.3,1.1,7.7,7.7,0,0,1-2.5.4,8.7,8.7,0,0,1-3-.4,13.3,13.3,0,0,1-2.6-1.1l-1.9-.9-1.9-.2h-.8l-.8.3-.9.3a.9.9,0,0,1-.7-.3.8.8,0,0,1-.2-.7.7.7,0,0,1,.5-.8l4-1.4a9.7,9.7,0,0,1-4.7-1.8,10.4,10.4,0,0,1-3.3-3.9,13.3,13.3,0,0,1-1.1-5.4A12.1,12.1,0,0,1,317,5.4a10.2,10.2,0,0,1,3.7-4A10.9,10.9,0,0,1,326.1,0a10.2,10.2,0,0,1,5.3,1.4,10.2,10.2,0,0,1,3.7,4,12.1,12.1,0,0,1,1.4,5.8,11.8,11.8,0,0,1-1.1,5,9,9,0,0,1-2.8,3.8,9.3,9.3,0,0,1-4.2,2.1l-3.2,1.1a4.2,4.2,0,0,1,1.6.4l1.9.8,2.2,1a8,8,0,0,0,2.3.3,4.8,4.8,0,0,0,1.8-.3l1.5-.7.5-.5.5-.3h.4C338.2,23.8,338.4,23.8,338.5,24Zm-19.8-8a8,8,0,0,0,3,3.3,8.1,8.1,0,0,0,4.4,1.2,8.1,8.1,0,0,0,7.3-4.5,10.6,10.6,0,0,0,1.1-4.8,11.4,11.4,0,0,0-1.1-4.9,8,8,0,0,0-3-3.3,8.9,8.9,0,0,0-4.3-1.1A9,9,0,0,0,321.7,3a8,8,0,0,0-3,3.3,11.3,11.3,0,0,0-1,4.9A10.6,10.6,0,0,0,318.7,16Z"/><path d="M357.5,21.1l-.2.4-.3.4h-1a4.4,4.4,0,0,1-1.4-1.6,8.6,8.6,0,0,1-.5-3.6,3.6,3.6,0,0,0-1.2-3.1,4.7,4.7,0,0,0-2.9-.8h-6.9v8.3a.9.9,0,0,1-.3.7.8.8,0,0,1-.6.2l-.8-.2a.9.9,0,0,1-.3-.7V1.2a.9.9,0,0,1,.3-.6.9.9,0,0,1,.7-.3h8.3a6.6,6.6,0,0,1,3.2.8,5.6,5.6,0,0,1,2.2,2.1,6.1,6.1,0,0,1-.3,6.5,4.5,4.5,0,0,1-2.7,2,5.8,5.8,0,0,1,2.3,1.8,7.1,7.1,0,0,1,.9,3.1,16.5,16.5,0,0,0,.2,2.7,2.3,2.3,0,0,0,.8,1.1C357.3,20.6,357.5,20.8,357.5,21.1Zm-7-10.1a4,4,0,0,0,2.1-.7A3.6,3.6,0,0,0,354,8.7a5.1,5.1,0,0,0,.6-2.5,4,4,0,0,0-1.2-2.9,4.1,4.1,0,0,0-3.1-1.2h-7.2V11Z"/><path d="M363.8,21.6a13.2,13.2,0,0,1-3.3-2.3.9.9,0,0,1-.4-.8,1.1,1.1,0,0,1,.3-.7.9.9,0,0,1,.7-.3,1.1,1.1,0,0,1,.7.3,7.7,7.7,0,0,0,6,2.7,6.2,6.2,0,0,0,3.7-1,3.5,3.5,0,0,0,1.5-2.8,3.2,3.2,0,0,0-.7-2.2,7,7,0,0,0-1.9-1.5l-3-1.1a16.2,16.2,0,0,1-3.4-1.3,6.7,6.7,0,0,1-2.2-1.9,5.7,5.7,0,0,1-.8-3.1,5.2,5.2,0,0,1,.9-2.9,6.3,6.3,0,0,1,2.5-2A8,8,0,0,1,368,0a10.5,10.5,0,0,1,3.6.6,6.5,6.5,0,0,1,2.6,1.9,1.4,1.4,0,0,1,.5.9.9.9,0,0,1-.3.6.9.9,0,0,1-.7.3l-.5-.2a5.6,5.6,0,0,0-2.3-1.6,5.9,5.9,0,0,0-2.9-.7,7,7,0,0,0-3.7,1,3.4,3.4,0,0,0-1.4,2.8,3.1,3.1,0,0,0,1.4,2.7,11.8,11.8,0,0,0,3.9,1.8,23.7,23.7,0,0,1,3.6,1.3,6.3,6.3,0,0,1,2.3,2,5.5,5.5,0,0,1-.1,6.2,6.3,6.3,0,0,1-2.5,2,8.7,8.7,0,0,1-3.7.7A10.2,10.2,0,0,1,363.8,21.6Z"/><path d="M393.9.6a.8.8,0,0,1,.2.6.8.8,0,0,1-.2.6.9.9,0,0,1-.7.3h-6.4v19a.9.9,0,0,1-.3.7l-.7.2-.7-.2a.9.9,0,0,1-.3-.7V2.1h-6.4a.7.7,0,0,1-.6-.3.7.7,0,0,1-.3-.6.6.6,0,0,1,.3-.6.7.7,0,0,1,.6-.3h14.8A.9.9,0,0,1,393.9.6Z"/><path d="M414.1.6a.9.9,0,0,1,.3.6V14.1a8.1,8.1,0,0,1-1.1,4.1,7.2,7.2,0,0,1-3,3,8,8,0,0,1-4,1.1,8.5,8.5,0,0,1-4.2-1.1,7.6,7.6,0,0,1-2.9-3,8.1,8.1,0,0,1-1.1-4.1V1.2a.9.9,0,0,1,.3-.6.8.8,0,0,1,.7-.3.7.7,0,0,1,.6.3.9.9,0,0,1,.3.6V14.1a6.2,6.2,0,0,0,.9,3.2,6.1,6.1,0,0,0,2.2,2.3,5.9,5.9,0,0,0,3.2.8,5.8,5.8,0,0,0,3.1-.8,6.3,6.3,0,0,0,2.3-2.3,6.2,6.2,0,0,0,.9-3.2V1.2a.7.7,0,0,1,.2-.6.9.9,0,0,1,.7-.3Z"/><path d="M436.6.5a.9.9,0,0,1,.3.6c0,.2-.1.3-.1.5l-8.3,19.8-.4.5h-1a1,1,0,0,1-.4-.5L418.5,1.7a.7.7,0,0,1-.1-.5.9.9,0,0,1,.3-.7l.6-.2a.9.9,0,0,1,.9.7l7.5,17.8L435,.9l.4-.5h.5Z"/><path d="M466.7.5a.9.9,0,0,1,.3.7v.4L460,21.4a.5.5,0,0,1-.3.5h-.5a.8.8,0,0,1-.9-.6L452.9,8.2l-5.4,13.2a.8.8,0,0,1-.9.6h-.5c-.2-.1-.2-.3-.3-.5L439,1.6a.6.6,0,0,1-.1-.4.9.9,0,0,1,.3-.7.9.9,0,0,1,.7-.3l.5.2c.2.1.3.3.4.4l6.1,17.8,5.2-13a.9.9,0,0,1,.8-.6h.6a.9.9,0,0,1,.3.5l5.2,13L465,.8a1,1,0,0,1,1-.6A.9.9,0,0,1,466.7.5Z"/><path d="M485.4,20.6a.7.7,0,0,1,.2.6.9.9,0,0,1-.3.7.7.7,0,0,1-.6.3,1,1,0,0,1-.8-.5l-6.7-9-6.6,9a1,1,0,0,1-.8.5.9.9,0,0,1-.6-.3,1.4,1.4,0,0,1-.2-.6,1.4,1.4,0,0,1,.2-.6l7-9.5-7-9.5c-.2-.2-.2-.3-.2-.6a1.4,1.4,0,0,1,.2-.6,1.1,1.1,0,0,1,.7-.3.9.9,0,0,1,.8.4l6.7,9.1L484,.6a1.3,1.3,0,0,1,.7-.4l.7.2a.7.7,0,0,1,.2.6.7.7,0,0,1-.2.6l-7,9.5Z"/><path d="M503.3,1.7l-6.9,9.5v9.9a.9.9,0,0,1-.3.7l-.7.2-.7-.2a1.4,1.4,0,0,1-.2-.7V11.3l-7-9.5a1.4,1.4,0,0,1-.2-.7.9.9,0,0,1,.3-.6,1,1,0,0,1,1.5.1l6.4,8.8L501.7.6a1.1,1.1,0,0,1,.9-.4.9.9,0,0,1,.6.3.9.9,0,0,1,.3.6A1.4,1.4,0,0,1,503.3,1.7Z"/><path d="M522.2,20.5a.9.9,0,0,1,.3.6.9.9,0,0,1-.3.7l-.7.2H506.7a.9.9,0,0,1-.7-.3.9.9,0,0,1-.3-.6,1.4,1.4,0,0,1,.2-.6l14-18.4H507.5a.9.9,0,0,1-.7-.3.7.7,0,0,1-.3-.6.6.6,0,0,1,.3-.6.9.9,0,0,1,.7-.3h14.1a.9.9,0,0,1,.7.3.9.9,0,0,1,.3.6,1.4,1.4,0,0,1-.2.6L508.5,20.3h13A.8.8,0,0,1,522.2,20.5Z"/><path d="M17.9,54.6a2.4,2.4,0,0,1,.5,1.4V69.1a2.2,2.2,0,0,1-.5,1.4,2.1,2.1,0,0,1-1.3.5,1.7,1.7,0,0,1-1.4-.5,2.1,2.1,0,0,1-.5-1.3,5.7,5.7,0,0,1-2.1,1.5,6.7,6.7,0,0,1-2.8.6,6.8,6.8,0,0,1-3.9-1.1,7.9,7.9,0,0,1-2.7-3,9.3,9.3,0,0,1-1-4.5,9.2,9.2,0,0,1,1-4.4,7.4,7.4,0,0,1,2.7-3.1,7,7,0,0,1,3.8-1.1,6.7,6.7,0,0,1,2.8.6A6.7,6.7,0,0,1,14.7,56h0a1.9,1.9,0,0,1,.5-1.3,1.8,1.8,0,0,1,1.4-.6A2.1,2.1,0,0,1,17.9,54.6ZM13.6,66.5a6,6,0,0,0,1.2-3.8A5.9,5.9,0,0,0,13.6,59,4.4,4.4,0,0,0,7,59a5.9,5.9,0,0,0-1.2,3.7A6,6,0,0,0,7,66.5a4.2,4.2,0,0,0,3.3,1.4A4.5,4.5,0,0,0,13.6,66.5Z"/><path d="M34.9,55.2a8.4,8.4,0,0,1,2.8,3.1,10.5,10.5,0,0,1,1,4.4,10.6,10.6,0,0,1-1,4.5,7.9,7.9,0,0,1-2.7,3,6.7,6.7,0,0,1-3.8,1.1,6.4,6.4,0,0,1-2.8-.6,7.6,7.6,0,0,1-2.2-1.4h0a1.8,1.8,0,0,1-.6,1.4,1.5,1.5,0,0,1-1.3.5,1.5,1.5,0,0,1-1.3-.5,1.7,1.7,0,0,1-.6-1.4V50a1.8,1.8,0,0,1,.6-1.4,1.9,1.9,0,0,1,2.6,0,1.8,1.8,0,0,1,.6,1.4v6.4a8.3,8.3,0,0,1,2-1.6,7.2,7.2,0,0,1,2.8-.7A7.1,7.1,0,0,1,34.9,55.2ZM33.8,66.4a5.9,5.9,0,0,0,0-7.4,3.9,3.9,0,0,0-3.2-1.5A4,4,0,0,0,27.3,59a5.9,5.9,0,0,0,0,7.4,4,4,0,0,0,3.3,1.5A3.9,3.9,0,0,0,33.8,66.4Z"/><path d="M53.3,54.9a2.7,2.7,0,0,1,1.6,2.2,2.1,2.1,0,0,1-.4,1.2,1.3,1.3,0,0,1-1.1.5h-.8l-.6-.4-.6-.4-.9-.2-1-.2A4.6,4.6,0,0,0,45.9,59a5.1,5.1,0,0,0-1.3,3.7,5.5,5.5,0,0,0,1.3,3.8,4.6,4.6,0,0,0,3.4,1.4,6.7,6.7,0,0,0,2.3-.3l.5-.4.6-.3.7-.2a1.7,1.7,0,0,1,1.2.5,2.1,2.1,0,0,1,.5,1.3,1.7,1.7,0,0,1-.9,1.4,7,7,0,0,1-2.3,1,10.6,10.6,0,0,1-3.1.4,7.8,7.8,0,0,1-4.2-1.1,7.7,7.7,0,0,1-2.8-3.1,10.2,10.2,0,0,1-1-4.4,9.3,9.3,0,0,1,1.1-4.4,7.8,7.8,0,0,1,2.9-3.1A8.2,8.2,0,0,1,49,54.1,10.3,10.3,0,0,1,53.3,54.9Z"/><path d="M72.5,48.6A1.6,1.6,0,0,1,73,50V69.1a1.7,1.7,0,0,1-.5,1.4,1.9,1.9,0,0,1-1.3.5,1.4,1.4,0,0,1-1.3-.5,1.8,1.8,0,0,1-.6-1.3,5.7,5.7,0,0,1-2.1,1.5,6.6,6.6,0,0,1-2.7.6,6.4,6.4,0,0,1-3.9-1.1,7.4,7.4,0,0,1-2.8-3,10.6,10.6,0,0,1-1-4.5,9.2,9.2,0,0,1,1-4.4,9.1,9.1,0,0,1,2.7-3.1,7.3,7.3,0,0,1,3.8-1.1,8.4,8.4,0,0,1,5,1.9V50a1.7,1.7,0,0,1,1.9-1.9A1.5,1.5,0,0,1,72.5,48.6ZM68.2,66.5a5.5,5.5,0,0,0,1.3-3.8A5.4,5.4,0,0,0,68.2,59a4,4,0,0,0-3.3-1.5A3.9,3.9,0,0,0,61.7,59a5.4,5.4,0,0,0-1.3,3.7,6,6,0,0,0,1.2,3.8,4.5,4.5,0,0,0,3.3,1.4A4.2,4.2,0,0,0,68.2,66.5Z"/><path d="M91.4,63.6a2,2,0,0,1-1.3.4H79.8a5.6,5.6,0,0,0,1.7,2.9,4.8,4.8,0,0,0,3.1,1l1.9-.2,1.2-.5.5-.4,1.1-.2a1.5,1.5,0,0,1,1.1.4,1.6,1.6,0,0,1,.5,1.1,1.8,1.8,0,0,1-.9,1.5,6.2,6.2,0,0,1-2.3,1.2,7.9,7.9,0,0,1-3,.5,9.3,9.3,0,0,1-4.5-1,8.6,8.6,0,0,1-3-3,9.4,9.4,0,0,1,.1-9,7.3,7.3,0,0,1,2.9-3.1,7.5,7.5,0,0,1,7.8,0,9.2,9.2,0,0,1,2.9,3A8.7,8.7,0,0,1,92,62.3,2.2,2.2,0,0,1,91.4,63.6ZM79.9,60.9H88v-.2a3,3,0,0,0-1.3-2.2,3.5,3.5,0,0,0-2.6-1A3.8,3.8,0,0,0,79.9,60.9Z"/><path d="M101.6,52a2.1,2.1,0,0,0-.5,1.3v1.4h2.8a1.9,1.9,0,0,1,1.3.5,1.7,1.7,0,0,1,.5,1.2,1.7,1.7,0,0,1-1.8,1.8h-2.8V69.1a2.2,2.2,0,0,1-.5,1.4,2.1,2.1,0,0,1-1.3.5,1.7,1.7,0,0,1-1.9-1.9V58.2H95.7a1.7,1.7,0,0,1-1.2-.5,1.9,1.9,0,0,1-.5-1.3,1.7,1.7,0,0,1,1.7-1.7h1.7V53.3A4.9,4.9,0,0,1,99,49.5a7,7,0,0,1,4.6-1.4,4.2,4.2,0,0,1,2,.4,1.6,1.6,0,0,1,.9,1.5,1.7,1.7,0,0,1-.5,1.2,1.3,1.3,0,0,1-1,.4h-2C102.3,51.4,101.8,51.6,101.6,52Z"/><path d="M123.1,54.6a2.4,2.4,0,0,1,.5,1.4V69.8a6.8,6.8,0,0,1-2.3,5.6,9.7,9.7,0,0,1-6,1.8l-2.5-.3-2.3-.6c-1.1-.4-1.6-1-1.6-1.8a4.3,4.3,0,0,0,.1-.5,2,2,0,0,1,.7-1,1.2,1.2,0,0,1,.9-.4h.6l1.6.6a8.5,8.5,0,0,0,2.5.5,5.6,5.6,0,0,0,3.5-.9,3.3,3.3,0,0,0,1.1-2.6V68.8a7.6,7.6,0,0,1-2.1,1.8,5.9,5.9,0,0,1-2.9.7,6.9,6.9,0,0,1-4-1.1,7.4,7.4,0,0,1-2.8-3,9.3,9.3,0,0,1-1-4.5,9.2,9.2,0,0,1,1-4.4,9.1,9.1,0,0,1,2.7-3.1,7.7,7.7,0,0,1,3.9-1.1,6,6,0,0,1,3,.7,6,6,0,0,1,2.2,1.6V56a1.9,1.9,0,0,1,.5-1.3,1.8,1.8,0,0,1,1.4-.6A2.1,2.1,0,0,1,123.1,54.6Zm-4.4,11.9a5.5,5.5,0,0,0,1.3-3.8,5.4,5.4,0,0,0-1.3-3.7,4.6,4.6,0,0,0-6.8,0,5.9,5.9,0,0,0-1.3,3.7,6,6,0,0,0,1.3,3.8,4.8,4.8,0,0,0,6.8,0Z"/><path d="M140.6,56a9.5,9.5,0,0,1,1.2,5.2v7.9a1.7,1.7,0,0,1-1.9,1.9,1.9,1.9,0,0,1-1.3-.5,1.7,1.7,0,0,1-.5-1.4V61.2a5.4,5.4,0,0,0-.7-2.7,2.7,2.7,0,0,0-2.3-1,3.4,3.4,0,0,0-3.7,3.7v7.9a1.8,1.8,0,0,1-.6,1.4,1.9,1.9,0,0,1-2.6,0,1.8,1.8,0,0,1-.6-1.4V50a1.8,1.8,0,0,1,.6-1.4,1.9,1.9,0,0,1,2.6,0,1.8,1.8,0,0,1,.6,1.4v6.8a6.5,6.5,0,0,1,2.1-1.9,5.7,5.7,0,0,1,2.9-.8C138.4,54.1,139.8,54.7,140.6,56Z"/><path d="M145.9,52.1a2.1,2.1,0,0,1-.4-1.2v-.6a1.4,1.4,0,0,1,.5-1.2,3,3,0,0,1,3,0c.3.2.4.6.4,1.2v.6c0,.6-.1,1-.4,1.2a3,3,0,0,1-1.6.3A2.8,2.8,0,0,1,145.9,52.1Zm2.9,18.4a1.9,1.9,0,0,1-1.3.5,1.7,1.7,0,0,1-1.9-1.9V56.3a1.9,1.9,0,0,1,.5-1.3,1.8,1.8,0,0,1,1.4-.6,1.6,1.6,0,0,1,1.3.6,1.5,1.5,0,0,1,.5,1.3V69.1A1.7,1.7,0,0,1,148.8,70.5Z"/><path d="M151,76.6a1.7,1.7,0,0,1-.5-1.2V75c0-.8.5-1.4,1.6-1.7s1.1-.5,1.2-1a5.6,5.6,0,0,0,.3-2v-14a1.9,1.9,0,0,1,.5-1.3,1.8,1.8,0,0,1,1.4-.6,1.6,1.6,0,0,1,1.3.6,1.5,1.5,0,0,1,.5,1.3v15a7.5,7.5,0,0,1-.6,3.1,6.1,6.1,0,0,1-1.9,2,4.4,4.4,0,0,1-2.6.7A1.8,1.8,0,0,1,151,76.6Zm2.9-24.5a1.6,1.6,0,0,1-.4-1.2v-.6c0-.6.1-1,.5-1.2a2,2,0,0,1,1.4-.4,2.2,2.2,0,0,1,1.6.4c.3.2.4.6.4,1.2v.6a1.4,1.4,0,0,1-.5,1.2,3.9,3.9,0,0,1-3,0Z"/><path d="M176.1,69.2a1.8,1.8,0,0,1-.6,1.3,2.4,2.4,0,0,1-1.3.5,1.8,1.8,0,0,1-1.4-.6l-5.6-5.9-1.5,1.4v3.2a1.7,1.7,0,0,1-1.9,1.9,2.1,2.1,0,0,1-1.3-.5,2.2,2.2,0,0,1-.5-1.4V50a2.2,2.2,0,0,1,.5-1.4,2.1,2.1,0,0,1,1.3-.5,1.7,1.7,0,0,1,1.9,1.9V61.4l6.6-6.4a2,2,0,0,1,1.4-.6,1.4,1.4,0,0,1,1.2.6,1.7,1.7,0,0,1,.6,1.2,2.1,2.1,0,0,1-.8,1.4l-4.6,4.3,5.4,5.9A1.8,1.8,0,0,1,176.1,69.2Z"/><path d="M182.7,70.5a2.2,2.2,0,0,1-1.4.5,2.1,2.1,0,0,1-1.3-.5,2.2,2.2,0,0,1-.5-1.4V50a1.7,1.7,0,0,1,1.9-1.9,2.1,2.1,0,0,1,1.3.5,2.2,2.2,0,0,1,.5,1.4V69.1A2.2,2.2,0,0,1,182.7,70.5Z"/><path d="M210.9,56a9.5,9.5,0,0,1,1.2,5.2v7.9a2.2,2.2,0,0,1-.5,1.4,2.1,2.1,0,0,1-1.3.5,1.7,1.7,0,0,1-1.9-1.9V61.2a4.5,4.5,0,0,0-.7-2.7,2.7,2.7,0,0,0-2.3-1,3.6,3.6,0,0,0-3.7,3.7v7.9a1.7,1.7,0,0,1-1.9,1.9,2.1,2.1,0,0,1-1.3-.5,2.2,2.2,0,0,1-.5-1.4V61.2a4.5,4.5,0,0,0-.7-2.7,2.7,2.7,0,0,0-2.3-1,3.6,3.6,0,0,0-3.7,3.7v7.9a1.8,1.8,0,0,1-.6,1.4,1.7,1.7,0,0,1-1.3.5,1.9,1.9,0,0,1-1.3-.5,1.7,1.7,0,0,1-.5-1.4V56.3a1.5,1.5,0,0,1,.5-1.3,1.6,1.6,0,0,1,1.3-.6,1.5,1.5,0,0,1,1.3.6,1.6,1.6,0,0,1,.6,1.3v.5a6.5,6.5,0,0,1,2.1-1.9,5.7,5.7,0,0,1,2.9-.8,4.8,4.8,0,0,1,5,3.4,7.5,7.5,0,0,1,2.1-2.3,5.7,5.7,0,0,1,3.3-1.1C208.7,54.1,210.2,54.7,210.9,56Z"/><path d="M229.4,56a9.5,9.5,0,0,1,1.2,5.2v7.9a2.2,2.2,0,0,1-.5,1.4,2.1,2.1,0,0,1-1.3.5,1.7,1.7,0,0,1-1.9-1.9V61.2a4.5,4.5,0,0,0-.7-2.7,3.1,3.1,0,0,0-2.5-1,3.8,3.8,0,0,0-2.8,1.1,3.4,3.4,0,0,0-1,2.6v7.9A1.7,1.7,0,0,1,218,71a1.9,1.9,0,0,1-1.3-.5,1.7,1.7,0,0,1-.5-1.4V56.3a1.5,1.5,0,0,1,.5-1.3,1.6,1.6,0,0,1,1.3-.6,1.8,1.8,0,0,1,1.4.6,1.9,1.9,0,0,1,.5,1.3v.5a8.4,8.4,0,0,1,2.2-1.9,6,6,0,0,1,2.9-.8C227.1,54.1,228.6,54.7,229.4,56Z"/><path d="M249.5,67.2a9.2,9.2,0,0,1-3.1,3.1,8.7,8.7,0,0,1-4.2,1,8.8,8.8,0,0,1-4.3-1,9.2,9.2,0,0,1-3.1-3.1,9.4,9.4,0,0,1-1.1-4.5,8.4,8.4,0,0,1,4.2-7.5,8.9,8.9,0,0,1,4.3-1.1,8.8,8.8,0,0,1,4.2,1.1,8.4,8.4,0,0,1,4.2,7.5A9.4,9.4,0,0,1,249.5,67.2ZM246.2,60a4.2,4.2,0,0,0-1.7-1.8,3.9,3.9,0,0,0-2.3-.7,4,4,0,0,0-2.4.7,4.2,4.2,0,0,0-1.7,1.8,5,5,0,0,0-.7,2.7,4.5,4.5,0,0,0,.7,2.7,5.2,5.2,0,0,0,1.7,1.9,4.8,4.8,0,0,0,2.4.6,4.6,4.6,0,0,0,2.3-.6,5.2,5.2,0,0,0,1.7-1.9,4.5,4.5,0,0,0,.7-2.7A5,5,0,0,0,246.2,60Z"/><path d="M266.2,55.2a9.1,9.1,0,0,1,2.7,3.1,9.2,9.2,0,0,1,1,4.4,9.3,9.3,0,0,1-1,4.5,6.6,6.6,0,0,1-2.7,3,6.3,6.3,0,0,1-3.8,1.1,6.7,6.7,0,0,1-2.8-.6,9.3,9.3,0,0,1-2.2-1.4v6a2.2,2.2,0,0,1-.5,1.4,1.7,1.7,0,0,1-1.3.5,1.7,1.7,0,0,1-1.4-.5,2,2,0,0,1-.5-1.4v-19a1.9,1.9,0,0,1,.5-1.3,1.8,1.8,0,0,1,1.4-.6,1.8,1.8,0,0,1,1.3.6,1.9,1.9,0,0,1,.5,1.3h0a7.2,7.2,0,0,1,2.1-1.6,6.8,6.8,0,0,1,2.8-.7A7.7,7.7,0,0,1,266.2,55.2Zm-1.1,11.2a5.9,5.9,0,0,0,0-7.4,4,4,0,0,0-3.3-1.5,4.3,4.3,0,0,0-3.3,1.5,6.3,6.3,0,0,0,0,7.4,4.4,4.4,0,0,0,6.6,0Z"/><path d="M287.8,55a1.9,1.9,0,0,1,.5,1.3v19a2.2,2.2,0,0,1-.5,1.4,1.7,1.7,0,0,1-1.3.5,1.7,1.7,0,0,1-1.4-.5,2.2,2.2,0,0,1-.5-1.4V69.2a5.7,5.7,0,0,1-2.1,1.5,6.7,6.7,0,0,1-2.8.6,6.8,6.8,0,0,1-3.9-1.1,7.9,7.9,0,0,1-2.7-3,9.3,9.3,0,0,1-1-4.5,9.2,9.2,0,0,1,1-4.4,8.1,8.1,0,0,1,2.7-3.1,7,7,0,0,1,3.8-1.1,6.4,6.4,0,0,1,2.8.6,5.5,5.5,0,0,1,2.2,1.4,2.3,2.3,0,0,1,.6-1.2,1.9,1.9,0,0,1,1.3-.5A1.8,1.8,0,0,1,287.8,55Zm-4.3,11.5a6,6,0,0,0,1.2-3.8,5.9,5.9,0,0,0-1.2-3.7,4.4,4.4,0,0,0-6.6,0,5.9,5.9,0,0,0-1.2,3.7,6,6,0,0,0,1.2,3.8,4.4,4.4,0,0,0,3.3,1.4A4.5,4.5,0,0,0,283.5,66.5Z"/><path d="M302.5,54.6a1.6,1.6,0,0,1,.7,1.3,2,2,0,0,1-.5,1.4,1.5,1.5,0,0,1-1.2.5l-1.1-.2h-1.1a2.3,2.3,0,0,0-1.5.5,3.1,3.1,0,0,0-1.2,1.5,4.5,4.5,0,0,0-.5,2.4v7.3a1.8,1.8,0,0,1-.6,1.4,1.9,1.9,0,0,1-2.6,0,1.8,1.8,0,0,1-.6-1.4V56.3a1.9,1.9,0,0,1,3.8,0v.4a4.1,4.1,0,0,1,2-1.9,5.9,5.9,0,0,1,2.9-.7A2.5,2.5,0,0,1,302.5,54.6Z"/><path d="M304.6,67.5a1.4,1.4,0,0,1,.8-1.3,1.6,1.6,0,0,1,.9-.3,1.7,1.7,0,0,1,1.2.6,6.6,6.6,0,0,0,2,1.4,5.4,5.4,0,0,0,2.4.5c1.6-.1,2.4-.7,2.4-1.9a1.4,1.4,0,0,0-.8-1.3,11.8,11.8,0,0,0-2.6-1,13.9,13.9,0,0,1-2.9-1,4.8,4.8,0,0,1-2-1.5,4.6,4.6,0,0,1,.1-5.3,5.4,5.4,0,0,1,2.2-1.7,7.2,7.2,0,0,1,2.9-.6,8.7,8.7,0,0,1,3.2.6,5.8,5.8,0,0,1,2.5,1.7,1.7,1.7,0,0,1,.4,1.2,1.4,1.4,0,0,1-.6,1.1,1.3,1.3,0,0,1-1,.4,1.6,1.6,0,0,1-1.1-.5,5,5,0,0,0-3.5-1.4c-1.5,0-2.3.5-2.3,1.7a1.5,1.5,0,0,0,.4,1.1,3.9,3.9,0,0,0,1.1.6l1.9.6a12.8,12.8,0,0,1,2.8,1,4.3,4.3,0,0,1,2.7,4.2,3.9,3.9,0,0,1-.9,2.6,4.8,4.8,0,0,1-2.3,1.7,7.9,7.9,0,0,1-2.9.6,12.3,12.3,0,0,1-3.9-.6,6.7,6.7,0,0,1-2.8-2.2A1.7,1.7,0,0,1,304.6,67.5Z"/><path d="M329.6,67.9a2,2,0,0,1,.3,1.1,1.8,1.8,0,0,1-.9,1.5,4.6,4.6,0,0,1-2.1.5,5.7,5.7,0,0,1-3.2-.8c-.9-.5-1.3-1.7-1.3-3.5V58.2H321a1.9,1.9,0,0,1-1.3-.5,2.1,2.1,0,0,1-.5-1.3,1.7,1.7,0,0,1,.5-1.2,1.9,1.9,0,0,1,1.3-.5h1.4V52.8a2.2,2.2,0,0,1,.5-1.4,1.7,1.7,0,0,1,1.4-.5,1.7,1.7,0,0,1,1.3.5,2.2,2.2,0,0,1,.5,1.4v1.9h2.2a1.7,1.7,0,0,1,1.7,1.8,1.3,1.3,0,0,1-.5,1.2,1.7,1.7,0,0,1-1.2.5h-2.2v8.4a1.2,1.2,0,0,0,.3.9,1.7,1.7,0,0,0,1,.3h.7l.7-.2C329.1,67.5,329.3,67.7,329.6,67.9Z"/><path d="M347.1,55a1.5,1.5,0,0,1,.5,1.3v7.9a7.1,7.1,0,0,1-1.8,5.2,6.9,6.9,0,0,1-5.3,1.9,6.8,6.8,0,0,1-5.2-1.9,7.1,7.1,0,0,1-1.8-5.2V56.3A1.5,1.5,0,0,1,334,55a1.6,1.6,0,0,1,1.3-.6,1.5,1.5,0,0,1,1.3.6,1.6,1.6,0,0,1,.6,1.3v7.9A4.3,4.3,0,0,0,338,67a3.3,3.3,0,0,0,2.5.9,3.4,3.4,0,0,0,2.6-.9,4.3,4.3,0,0,0,.8-2.8V56.3a1.9,1.9,0,0,1,.5-1.3,1.8,1.8,0,0,1,1.4-.6A1.6,1.6,0,0,1,347.1,55Z"/><path d="M365.7,54.9a2.1,2.1,0,0,1,.5,1.2,2.2,2.2,0,0,1-.3,1l-5.8,12.7a2,2,0,0,1-.6.9,1.7,1.7,0,0,1-1,.3h-.3a1.8,1.8,0,0,1-.9-.4,1.6,1.6,0,0,1-.7-.9l-5.8-12.7a4.4,4.4,0,0,1-.2-1,2.1,2.1,0,0,1,.5-1.2,2.1,2.1,0,0,1,1.3-.5,2,2,0,0,1,1.1.3,1.6,1.6,0,0,1,.7.9l4.3,9.8,4.3-9.8a1.6,1.6,0,0,1,.7-.9,1,1,0,0,1,.9-.2A2,2,0,0,1,365.7,54.9Z"/><path d="M12.3,99.6a.7.7,0,0,1,.2.6v19.9a1.4,1.4,0,0,1-.2.7l-.8.2-.7-.2a1.4,1.4,0,0,1-.2-.7V101.9l-3.9,2.3-.5.2a.7.7,0,0,1-.6-.3,1.1,1.1,0,0,1-.3-.7.9.9,0,0,1,.1-.5l.4-.3L11,99.4h.7A.6.6,0,0,1,12.3,99.6Z"/><path d="M31.4,119.5a1.4,1.4,0,0,1,.2.6,1.4,1.4,0,0,1-.2.7l-.7.2H19.1l-.7-.2a.9.9,0,0,1-.3-.7,2.5,2.5,0,0,1,.2-.7l7.2-7.9a16.8,16.8,0,0,0,2.6-3.3,6.7,6.7,0,0,0,.8-2.9,4.5,4.5,0,0,0-1.2-3.3,5.2,5.2,0,0,0-3.6-1.2,5,5,0,0,0-2.7.7,4.4,4.4,0,0,0-1.8,2.2.9.9,0,0,1-.8.6.9.9,0,0,1-.6-.3.5.5,0,0,1-.3-.5.9.9,0,0,1,.1-.5l.3-.5a6,6,0,0,1,2.4-2.6,7.3,7.3,0,0,1,3.5-.9,6.8,6.8,0,0,1,4.9,1.7,5.8,5.8,0,0,1,1.8,4.5,7.9,7.9,0,0,1-.9,3.5,22,22,0,0,1-3.1,4.1l-5.7,6.4h9.5A.9.9,0,0,1,31.4,119.5Z"/><path d="M44.1,108.1a6.1,6.1,0,0,1,2.5,2.3,7.5,7.5,0,0,1,.9,3.7,8,8,0,0,1-1,3.8,6.8,6.8,0,0,1-2.8,2.5,7.9,7.9,0,0,1-3.8.9,7.5,7.5,0,0,1-2.6-.4,5.7,5.7,0,0,1-2.1-1.3.9.9,0,0,1-.4-.7,1.4,1.4,0,0,1,.2-.7.8.8,0,0,1,.7-.4,1.2,1.2,0,0,1,.8.4,4.6,4.6,0,0,0,3.6,1.4,6,6,0,0,0,2.7-.7,5.2,5.2,0,0,0,2-1.9,5.7,5.7,0,0,0,.8-2.8,5.2,5.2,0,0,0-.8-2.9,4.8,4.8,0,0,0-2-1.7,7.1,7.1,0,0,0-2.6-.5H38.5a.9.9,0,0,1-.6-.3,1.1,1.1,0,0,1-.2-.6.9.9,0,0,1,.3-.7l5.9-6.6H35.3a.9.9,0,0,1-.6-.3.7.7,0,0,1-.3-.6.6.6,0,0,1,.3-.6l.6-.3H45.7a1,1,0,0,1,.8.3,1.4,1.4,0,0,1,.2.7,1.3,1.3,0,0,1-.3.7l-5.7,6.3h.2A6.9,6.9,0,0,1,44.1,108.1Z"/><path d="M64.8,112.8a.9.9,0,0,1,.3.7.9.9,0,0,1-.3.6l-.6.2H62.1v5.8a.9.9,0,0,1-.3.7l-.6.2-.7-.2a.8.8,0,0,1-.2-.7v-5.8H51.1a1.1,1.1,0,0,1-.9-.9,1.4,1.4,0,0,1,.2-.7l10-13a.8.8,0,0,1,.8-.4.9.9,0,0,1,.7.3,1.4,1.4,0,0,1,.2.6v12.4h2.1Zm-12-.2h7.5v-9.9Z"/><path d="M77.8,107.5a6,6,0,0,1,2.5,2.5,6.1,6.1,0,0,1,1,3.6,8,8,0,0,1-1,3.8,6.9,6.9,0,0,1-2.9,2.7,7.7,7.7,0,0,1-4,1,10.9,10.9,0,0,1-2.6-.4,6.5,6.5,0,0,1-2.3-1.3l-.3-.3a.9.9,0,0,1-.1-.5.9.9,0,0,1,.3-.6.7.7,0,0,1,.6-.3,1.1,1.1,0,0,1,.7.3,5.6,5.6,0,0,0,1.7.9,4.8,4.8,0,0,0,2,.4,6.4,6.4,0,0,0,3.1-.7,5.8,5.8,0,0,0,2.1-2,6.1,6.1,0,0,0,.8-3,5,5,0,0,0-1.5-3.8,6,6,0,0,0-4.1-1.4l-1.8.2-1.8.8-1,.4a.9.9,0,0,1-.7-.3,1.1,1.1,0,0,1-.3-.7v-.3l1.3-8.4.4-.6.6-.2h9.3a.9.9,0,0,1,.7.3,1.4,1.4,0,0,1,.2.6,1.4,1.4,0,0,1-.2.7.8.8,0,0,1-.7.2H71.1l-1,6.5a8.4,8.4,0,0,1,1.9-.7,8.5,8.5,0,0,1,2.3-.3A6.8,6.8,0,0,1,77.8,107.5Z"/><path d="M96,108.3a6.3,6.3,0,0,1,2.2,2.6,7.3,7.3,0,0,1,.9,3.5,6.7,6.7,0,0,1-.9,3.4,7.5,7.5,0,0,1-2.4,2.6,7,7,0,0,1-3.5.9,7.2,7.2,0,0,1-4-1,8.5,8.5,0,0,1-2.4-2.9,10,10,0,0,1-.8-3.8,15.4,15.4,0,0,1,1.2-5.7,18,18,0,0,1,3.2-5.5,12.4,12.4,0,0,1,5.1-3.7H95a.8.8,0,0,1,.7.2.9.9,0,0,1,.3.7.9.9,0,0,1-.8.9,12.6,12.6,0,0,0-4.6,3.6,14.3,14.3,0,0,0-3,5.5,6.2,6.2,0,0,1,2.2-1.7,6.7,6.7,0,0,1,2.8-.6A5.7,5.7,0,0,1,96,108.3Zm-.2,9.8a5.3,5.3,0,0,0,1.4-3.7,5.8,5.8,0,0,0-.6-2.6,4.7,4.7,0,0,0-1.7-2,4.1,4.1,0,0,0-2.5-.7,5.7,5.7,0,0,0-2.9.7,4.4,4.4,0,0,0-1.8,2,5,5,0,0,0-.7,2.7,4.5,4.5,0,0,0,.7,2.5,3.9,3.9,0,0,0,1.8,1.8,4.7,4.7,0,0,0,2.7.7A4.5,4.5,0,0,0,95.8,118.1Z"/><path d="M114.9,99.6a.6.6,0,0,1,.3.6c0,.1-.1.2-.1.4l-8.6,19.9c0,.2-.2.3-.3.4a.7.7,0,0,1-.6.2l-.6-.2a.9.9,0,0,1-.3-.6.7.7,0,0,1,.1-.5l8-18.7h-9.9a.9.9,0,0,1-.7-.3c-.2-.1-.2-.4-.2-.6s0-.5.2-.6a.9.9,0,0,1,.7-.3h11.4A.6.6,0,0,1,114.9,99.6Z"/><path d="M130.6,112.1a5,5,0,0,1,1,3.1,5.9,5.9,0,0,1-.9,3.1,7.3,7.3,0,0,1-2.4,2.2,7.7,7.7,0,0,1-3.4.8,7.3,7.3,0,0,1-3.3-.8,5.7,5.7,0,0,1-2.4-2.2,5.9,5.9,0,0,1-.9-3.1,5.4,5.4,0,0,1,.9-3.1,7.2,7.2,0,0,1,2.5-2.1,6.3,6.3,0,0,1-2.1-1.9,4.9,4.9,0,0,1-.8-2.9,5.2,5.2,0,0,1,.8-3,5.6,5.6,0,0,1,2.2-2.1,6.8,6.8,0,0,1,3.1-.8,6.5,6.5,0,0,1,3.1.8,5.6,5.6,0,0,1,2.2,2.1,5.2,5.2,0,0,1,.8,3,5.7,5.7,0,0,1-.8,2.9,7.6,7.6,0,0,1-2.1,1.9A6.4,6.4,0,0,1,130.6,112.1Zm-2.2,6.2a4.2,4.2,0,0,0,1.3-3.1,3.6,3.6,0,0,0-.7-2.2,4.1,4.1,0,0,0-1.7-1.5,4.8,4.8,0,0,0-2.4-.6,4.6,4.6,0,0,0-2.3.6,4.4,4.4,0,0,0-1.8,1.5,4.3,4.3,0,0,0-.6,2.2,3.9,3.9,0,0,0,1.3,3.1,4.9,4.9,0,0,0,3.4,1.2A5.1,5.1,0,0,0,128.4,118.3Zm-6.6-16.1a4.4,4.4,0,0,0-1.1,3,4.3,4.3,0,0,0,.6,2.2,3.4,3.4,0,0,0,1.5,1.4,4.2,4.2,0,0,0,2.1.6,3.7,3.7,0,0,0,2.1-.6,3.6,3.6,0,0,0,1.6-1.4,5.4,5.4,0,0,0,.5-2.2,4.4,4.4,0,0,0-1.1-3,4.5,4.5,0,0,0-3.1-1.1A4.7,4.7,0,0,0,121.8,102.2Z"/><path d="M146.1,100.1a6,6,0,0,1,2.4,2.8,8.4,8.4,0,0,1,.8,3.8,14.7,14.7,0,0,1-1.1,5.6,18.8,18.8,0,0,1-3.2,5.4,13.3,13.3,0,0,1-5.1,3.5h-.4a1,1,0,0,1-1-1,.9.9,0,0,1,.7-.9,12.5,12.5,0,0,0,4.7-3.4,12.3,12.3,0,0,0,3-5.3,6.4,6.4,0,0,1-5.1,2.3,6.4,6.4,0,0,1-3.3-1,8.3,8.3,0,0,1-2.3-2.6,8.5,8.5,0,0,1-.8-3.5,6.9,6.9,0,0,1,.9-3.4,7.5,7.5,0,0,1,2.4-2.6,7,7,0,0,1,3.5-.9A6,6,0,0,1,146.1,100.1ZM145,110.4a4.1,4.1,0,0,0,1.8-1.9,6,6,0,0,0,.6-2.7,5.4,5.4,0,0,0-.6-2.5,3.9,3.9,0,0,0-1.8-1.8,5,5,0,0,0-2.7-.7,5.5,5.5,0,0,0-2.6.6,5.8,5.8,0,0,0-1.7,1.8,5,5,0,0,0-.7,2.7,5.8,5.8,0,0,0,.6,2.6,4.9,4.9,0,0,0,1.6,1.9,4.5,4.5,0,0,0,2.6.8A5.7,5.7,0,0,0,145,110.4Z"/><path d="M155.9,119.9a9.5,9.5,0,0,1-2.5-4,17.1,17.1,0,0,1-.8-5.7,17.3,17.3,0,0,1,.8-5.8,9.1,9.1,0,0,1,2.5-3.9,6,6,0,0,1,4.2-1.5,6.4,6.4,0,0,1,4.1,1.4,8.6,8.6,0,0,1,2.5,4,17.2,17.2,0,0,1,.9,5.8,17,17,0,0,1-.9,5.7,8.6,8.6,0,0,1-2.5,4,5.9,5.9,0,0,1-4.1,1.4A6.1,6.1,0,0,1,155.9,119.9Zm8.3-3a13.9,13.9,0,0,0,1.4-6.7,14.4,14.4,0,0,0-1.4-6.8,4.6,4.6,0,0,0-4.1-2.5,4.4,4.4,0,0,0-4.1,2.5,13.2,13.2,0,0,0-1.5,6.8,12.8,12.8,0,0,0,1.5,6.7,4.4,4.4,0,0,0,4.1,2.5A4.6,4.6,0,0,0,164.2,116.9Z"/></svg>