<svg xmlns="http://www.w3.org/2000/svg" width="522.6" height="121.3" viewBox="0 0 522.6 121.3"><path d="M18.3 21.2a.9.9 0 0 1-.3.6.9.9 0 0 1-.7.3l-.5-.2a1 1 0 0 1-.4-.5l-2.3-5.6H4l-2.3 5.6a.8.8 0 0 1-.8.7.9.9 0 0 1-.7-.3.8.8 0 0 1-.2-.5V21L8.2.8a1 1 0 0 1 1-.6l.5.2c.2.1.3.3.4.4l8.1 20a.8.8 0 0 1 .1.4zM4.7 13.9h8.7L9 3.3zm32-1.6a5.7 5.7 0 0 1 1.2 3.7 5.3 5.3 0 0 1-1.9 4.5 7.1 7.1 0 0 1-4.6 1.5H23l-.6-.2a.9.9 0 0 1-.3-.7V1.2a.9.9 0 0 1 .3-.6.7.7 0 0 1 .6-.3h8.2a5.8 5.8 0 0 1 4.1 1.4 5.3 5.3 0 0 1 1.5 3.9 6.1 6.1 0 0 1-.8 3 4.8 4.8 0 0 1-2.3 1.9 5.8 5.8 0 0 1 3 1.8zm-2.9-9.2a4.1 4.1 0 0 0-2.8-1h-6.9v7.8H31a3.7 3.7 0 0 0 2.7-1.1 3.7 3.7 0 0 0 1.1-3 3.6 3.6 0 0 0-1-2.7zm.8 16a3.6 3.6 0 0 0 1.3-3.1 3.7 3.7 0 0 0-1.3-3.2 5.3 5.3 0 0 0-3.4-1h-7.1v8.4h7.2a4.9 4.9 0 0 0 3.3-1.1zm24-16.4a1.4 1.4 0 0 1-.2.6 1 1 0 0 1-.7.4l-.5-.2a9.8 9.8 0 0 0-5.5-1.6A10 10 0 0 0 47.2 3 8.5 8.5 0 0 0 44 6.3a10.2 10.2 0 0 0-1.2 4.9 10.2 10.2 0 0 0 1.2 4.9 8.2 8.2 0 0 0 3.2 3.2 8.9 8.9 0 0 0 4.5 1.2 9.3 9.3 0 0 0 5.4-1.6l.6-.2a1 1 0 0 1 .7.4 1.4 1.4 0 0 1 .2.6.7.7 0 0 1-.4.7 10.5 10.5 0 0 1-3 1.4 10.6 10.6 0 0 1-3.5.5 10.4 10.4 0 0 1-5.4-1.4 10 10 0 0 1-4-3.9 11.3 11.3 0 0 1-1.4-5.8 11 11 0 0 1 1.4-5.7 10.3 10.3 0 0 1 4-4A10 10 0 0 1 51.7 0a12.7 12.7 0 0 1 3.4.5 13.8 13.8 0 0 1 3 1.4 1 1 0 0 1 .5.8zm17.8-.9a8.3 8.3 0 0 1 3 3.9 14.2 14.2 0 0 1 1 5.5 13.8 13.8 0 0 1-1 5.5 8.3 8.3 0 0 1-3 3.9 8.9 8.9 0 0 1-5 1.4h-7.9l-.7-.2a.9.9 0 0 1-.3-.7V1.2a.9.9 0 0 1 .3-.6.9.9 0 0 1 .7-.3h7.9a8.2 8.2 0 0 1 5 1.5zm.2 15.9a10.9 10.9 0 0 0 1.9-6.5 13.4 13.4 0 0 0-.8-4.6 6.6 6.6 0 0 0-2.5-3.2 6.1 6.1 0 0 0-4.1-1.3h-6.6v18.1h6.6a6.2 6.2 0 0 0 5.5-2.5zm21.2 2.8a.9.9 0 0 1 .3.6.9.9 0 0 1-.3.7l-.6.2H85.8l-.7-.2a.9.9 0 0 1-.3-.7V1.2a.9.9 0 0 1 .3-.6.9.9 0 0 1 .7-.3h11.4a.7.7 0 0 1 .6.3.9.9 0 0 1 .3.6.9.9 0 0 1-.3.7c-.1.2-.4.2-.6.2H86.8v7.8h9a.7.7 0 0 1 .6.3.9.9 0 0 1 .3.7.9.9 0 0 1-.3.6.7.7 0 0 1-.6.3h-9v8.4h10.4a.7.7 0 0 1 .6.3zM115.4.6a1.4 1.4 0 0 1 .2.6 1.4 1.4 0 0 1-.2.7.8.8 0 0 1-.7.2h-10.3v7.8h8.9a.9.9 0 0 1 .7.3 1.1 1.1 0 0 1 .2.6 1.4 1.4 0 0 1-.2.7l-.7.2h-8.9v9.4a.9.9 0 0 1-.3.7l-.7.2-.7-.2a1.4 1.4 0 0 1-.2-.7V1.2a1.4 1.4 0 0 1 .2-.6.9.9 0 0 1 .7-.3h11.3a.9.9 0 0 1 .7.3zm20.9 10.7a1.4 1.4 0 0 1 .2.7v7.5a.9.9 0 0 1-.4.8 9.9 9.9 0 0 1-3.1 1.5 10.6 10.6 0 0 1-3.5.5 10.9 10.9 0 0 1-11.2-11.1 11 11 0 0 1 1.5-5.7 10.3 10.3 0 0 1 4-4 11 11 0 0 1 5.7-1.5 11.7 11.7 0 0 1 3.2.4 11.1 11.1 0 0 1 2.7 1.2.8.8 0 0 1 .5.7.9.9 0 0 1-.3.7.9.9 0 0 1-.6.3l-.6-.2a10.4 10.4 0 0 0-4.9-1.2 9.1 9.1 0 0 0-4.7 1.2 8.7 8.7 0 0 0-3.3 3.3 9.5 9.5 0 0 0-1.2 4.8 9.4 9.4 0 0 0 1.2 4.7 9 9 0 0 0 3.3 3.4 9.1 9.1 0 0 0 4.7 1.2 8.4 8.4 0 0 0 2.7-.4 8.7 8.7 0 0 0 2.4-1v-6.2h-4.9l-.7-.2a1 1 0 0 1 0-1.4l.7-.2h5.9zM157.6.6a1.4 1.4 0 0 1 .2.7v19.8a.9.9 0 0 1-.3.7l-.7.2a.9.9 0 0 1-.9-.9v-9.3h-12.6v9.3l-.3.6a1.1 1.1 0 0 1-.7.3l-.7-.2a.9.9 0 0 1-.3-.7V1.3a.9.9 0 0 1 .3-.7 1 1 0 0 1 1.4 0 .9.9 0 0 1 .3.7V10h12.6V1.3a.9.9 0 0 1 .3-.7.9.9 0 0 1 .7-.3 1.1 1.1 0 0 1 .7.3zm7.7 21.1a.9.9 0 0 1-.7.3l-.7-.2a.9.9 0 0 1-.3-.7V1.3a.9.9 0 0 1 .3-.7 1.1 1.1 0 0 1 .7-.3.9.9 0 0 1 .7.3.9.9 0 0 1 .3.7v19.8a.7.7 0 0 1-.3.6zm7.8-.4a6.2 6.2 0 0 1-2.4-2.9c-.1-.2-.2-.3-.2-.5a.7.7 0 0 1 .3-.6.9.9 0 0 1 .7-.3.9.9 0 0 1 .8.6 5.8 5.8 0 0 0 1.7 2.1 4.7 4.7 0 0 0 2.6.8 4.9 4.9 0 0 0 3.4-1.3 4.8 4.8 0 0 0 1.4-3.5V1.2a1.4 1.4 0 0 1 .2-.6 1.1 1.1 0 0 1 .8-.3 1.1 1.1 0 0 1 .7.3 1.4 1.4 0 0 1 .2.6v14.5a7.4 7.4 0 0 1-.8 3.4 6.4 6.4 0 0 1-2.5 2.4 6.3 6.3 0 0 1-3.4.8 6 6 0 0 1-3.5-1zm32.6-.1a.9.9 0 0 1-.3.7 1.1 1.1 0 0 1-.7.3 1 1 0 0 1-.7-.4l-8.7-10.9-4.2 4v6.2a.9.9 0 0 1-.3.7l-.7.2-.7-.2a.8.8 0 0 1-.2-.7V1.3a.8.8 0 0 1 .2-.7 1.1 1.1 0 0 1 .7-.3.8.8 0 0 1 .7.3.9.9 0 0 1 .3.7v11.2L203.6.7a1.1 1.1 0 0 1 .7-.3.9.9 0 0 1 .7.3.8.8 0 0 1 .2.6.9.9 0 0 1-.3.6l-8.1 7.6 8.7 11a1.4 1.4 0 0 1 .2.7zm17.1-.8a1.3 1.3 0 0 1 0 1.4l-.7.2H211l-.6-.2a.9.9 0 0 1-.3-.7V1.2a.9.9 0 0 1 .3-.6 1 1 0 0 1 1.4 0 .7.7 0 0 1 .2.6v19h10.1zM246.2.6a1.4 1.4 0 0 1 .2.6v19.9a.9.9 0 0 1-.3.7l-.6.2-.8-.2a1.4 1.4 0 0 1-.2-.7V4l-7.3 11.1c-.2.2-.5.4-.7.3h-.1a1.1 1.1 0 0 1-.7-.3L228.4 4v17.1a1.4 1.4 0 0 1-.2.7l-.7.2-.7-.2a1.4 1.4 0 0 1-.2-.7V1.2a.9.9 0 0 1 .3-.6.7.7 0 0 1 .6-.3h.5l.4.3 8.1 12.2L244.7.7a1 1 0 0 1 1.5-.1zm22.6 0a.8.8 0 0 1 .2.6V21a1.1 1.1 0 0 1-.3.8l-.7.2h-.4l-.3-.2-13.3-18v17.4a.9.9 0 0 1-.3.6l-.6.2-.6-.2a.7.7 0 0 1-.2-.6v-20c0-.2 0-.5.2-.6a.9.9 0 0 1 .7-.3.8.8 0 0 1 .7.4l13.4 18V1.2a.8.8 0 0 1 .2-.6.9.9 0 0 1 .6-.3.9.9 0 0 1 .7.3zm24.1 16.3a11 11 0 0 1-3.7 4 11.1 11.1 0 0 1-10.8 0 11 11 0 0 1-3.7-4 13.4 13.4 0 0 1 0-11.5 11 11 0 0 1 3.7-4 11.1 11.1 0 0 1 10.8 0 11 11 0 0 1 3.7 4 12.1 12.1 0 0 1 1.3 5.8 12 12 0 0 1-1.3 5.7zm-1.8-10.6a8.5 8.5 0 0 0-2.9-3.3 9.3 9.3 0 0 0-8.8 0 8.5 8.5 0 0 0-2.9 3.3 11.4 11.4 0 0 0-1.1 4.9 10.6 10.6 0 0 0 1.1 4.8 8.5 8.5 0 0 0 2.9 3.3 8.7 8.7 0 0 0 8.8 0 8.5 8.5 0 0 0 2.9-3.3 9.5 9.5 0 0 0 1.1-4.8 10.1 10.1 0 0 0-1.1-4.9zM310 1.1a5.6 5.6 0 0 1 2.1 2.2 6.6 6.6 0 0 1 .7 3.2 6.8 6.8 0 0 1-.7 3.2A5.8 5.8 0 0 1 310 12a5.8 5.8 0 0 1-3.1.8h-6.4v8.3a.9.9 0 0 1-.3.7l-.7.2-.6-.2a.9.9 0 0 1-.3-.7V1.2a.9.9 0 0 1 .3-.6.7.7 0 0 1 .6-.3h7.4a6.8 6.8 0 0 1 3.1.8zm-.2 8.6a4.8 4.8 0 0 0 1.1-3.2 4.5 4.5 0 0 0-1.1-3.1 3.5 3.5 0 0 0-2.9-1.3h-6.4V11h6.4a3.5 3.5 0 0 0 2.9-1.3zM338.5 24a.9.9 0 0 1 .3.6c0 .5-.3.9-.9 1.3a7 7 0 0 1-2.3 1.1 7.7 7.7 0 0 1-2.5.4 8.7 8.7 0 0 1-3-.4 13.3 13.3 0 0 1-2.6-1.1l-1.9-.9-1.9-.2h-.8l-.8.3-.9.3a.9.9 0 0 1-.7-.3.8.8 0 0 1-.2-.7.7.7 0 0 1 .5-.8l4-1.4a9.7 9.7 0 0 1-4.7-1.8 10.4 10.4 0 0 1-3.3-3.9 13.3 13.3 0 0 1-1.1-5.4 12.1 12.1 0 0 1 1.3-5.7 10.2 10.2 0 0 1 3.7-4 10.9 10.9 0 0 1 5.4-1.4 10.2 10.2 0 0 1 5.3 1.4 10.2 10.2 0 0 1 3.7 4 12.1 12.1 0 0 1 1.4 5.8 11.8 11.8 0 0 1-1.1 5 9 9 0 0 1-2.8 3.8 9.3 9.3 0 0 1-4.2 2.1l-3.2 1.1a4.2 4.2 0 0 1 1.6.4l1.9.8 2.2 1a8 8 0 0 0 2.3.3 4.8 4.8 0 0 0 1.8-.3l1.5-.7.5-.5.5-.3h.4c.3-.1.5-.1.6.1zm-19.8-8a8 8 0 0 0 3 3.3 8.1 8.1 0 0 0 4.4 1.2 8.1 8.1 0 0 0 7.3-4.5 10.6 10.6 0 0 0 1.1-4.8 11.4 11.4 0 0 0-1.1-4.9 8 8 0 0 0-3-3.3 8.9 8.9 0 0 0-4.3-1.1 9 9 0 0 0-4.4 1.1 8 8 0 0 0-3 3.3 11.3 11.3 0 0 0-1 4.9 10.6 10.6 0 0 0 1 4.8zm38.8 5.1l-.2.4-.3.4h-1a4.4 4.4 0 0 1-1.4-1.6 8.6 8.6 0 0 1-.5-3.6 3.6 3.6 0 0 0-1.2-3.1 4.7 4.7 0 0 0-2.9-.8h-6.9v8.3a.9.9 0 0 1-.3.7.8.8 0 0 1-.6.2l-.8-.2a.9.9 0 0 1-.3-.7V1.2a.9.9 0 0 1 .3-.6.9.9 0 0 1 .7-.3h8.3a6.6 6.6 0 0 1 3.2.8 5.6 5.6 0 0 1 2.2 2.1 6.1 6.1 0 0 1-.3 6.5 4.5 4.5 0 0 1-2.7 2 5.8 5.8 0 0 1 2.3 1.8 7.1 7.1 0 0 1 .9 3.1 16.5 16.5 0 0 0 .2 2.7 2.3 2.3 0 0 0 .8 1.1c.3.2.5.4.5.7zm-7-10.1a4 4 0 0 0 2.1-.7 3.6 3.6 0 0 0 1.4-1.6 5.1 5.1 0 0 0 .6-2.5 4 4 0 0 0-1.2-2.9 4.1 4.1 0 0 0-3.1-1.2h-7.2V11zm13.3 10.6a13.2 13.2 0 0 1-3.3-2.3.9.9 0 0 1-.4-.8 1.1 1.1 0 0 1 .3-.7.9.9 0 0 1 .7-.3 1.1 1.1 0 0 1 .7.3 7.7 7.7 0 0 0 6 2.7 6.2 6.2 0 0 0 3.7-1 3.5 3.5 0 0 0 1.5-2.8 3.2 3.2 0 0 0-.7-2.2 7 7 0 0 0-1.9-1.5l-3-1.1a16.2 16.2 0 0 1-3.4-1.3 6.7 6.7 0 0 1-2.2-1.9 5.7 5.7 0 0 1-.8-3.1 5.2 5.2 0 0 1 .9-2.9 6.3 6.3 0 0 1 2.5-2A8 8 0 0 1 368 0a10.5 10.5 0 0 1 3.6.6 6.5 6.5 0 0 1 2.6 1.9 1.4 1.4 0 0 1 .5.9.9.9 0 0 1-.3.6.9.9 0 0 1-.7.3l-.5-.2a5.6 5.6 0 0 0-2.3-1.6 5.9 5.9 0 0 0-2.9-.7 7 7 0 0 0-3.7 1 3.4 3.4 0 0 0-1.4 2.8 3.1 3.1 0 0 0 1.4 2.7 11.8 11.8 0 0 0 3.9 1.8 23.7 23.7 0 0 1 3.6 1.3 6.3 6.3 0 0 1 2.3 2 5.5 5.5 0 0 1-.1 6.2 6.3 6.3 0 0 1-2.5 2 8.7 8.7 0 0 1-3.7.7 10.2 10.2 0 0 1-4-.7zm30.1-21a.8.8 0 0 1 .2.6.8.8 0 0 1-.2.6.9.9 0 0 1-.7.3h-6.4v19a.9.9 0 0 1-.3.7l-.7.2-.7-.2a.9.9 0 0 1-.3-.7v-19h-6.4a.7.7 0 0 1-.6-.3.7.7 0 0 1-.3-.6.6.6 0 0 1 .3-.6.7.7 0 0 1 .6-.3h14.8a.9.9 0 0 1 .7.3zm20.2 0a.9.9 0 0 1 .3.6v12.9a8.1 8.1 0 0 1-1.1 4.1 7.2 7.2 0 0 1-3 3 8 8 0 0 1-4 1.1 8.5 8.5 0 0 1-4.2-1.1 7.6 7.6 0 0 1-2.9-3 8.1 8.1 0 0 1-1.1-4.1V1.2a.9.9 0 0 1 .3-.6.8.8 0 0 1 .7-.3.7.7 0 0 1 .6.3.9.9 0 0 1 .3.6v12.9a6.2 6.2 0 0 0 .9 3.2 6.1 6.1 0 0 0 2.2 2.3 5.9 5.9 0 0 0 3.2.8 5.8 5.8 0 0 0 3.1-.8 6.3 6.3 0 0 0 2.3-2.3 6.2 6.2 0 0 0 .9-3.2V1.2a.7.7 0 0 1 .2-.6.9.9 0 0 1 .7-.3zm22.5-.1a.9.9 0 0 1 .3.6c0 .2-.1.3-.1.5l-8.3 19.8-.4.5h-1a1 1 0 0 1-.4-.5l-8.2-19.7a.7.7 0 0 1-.1-.5.9.9 0 0 1 .3-.7l.6-.2a.9.9 0 0 1 .9.7l7.5 17.8L435 .9l.4-.5h.5zm30.1 0a.9.9 0 0 1 .3.7v.4l-7 19.8a.5.5 0 0 1-.3.5h-.5a.8.8 0 0 1-.9-.6l-5.4-13.1-5.4 13.2a.8.8 0 0 1-.9.6h-.5c-.2-.1-.2-.3-.3-.5L439 1.6a.6.6 0 0 1-.1-.4.9.9 0 0 1 .3-.7.9.9 0 0 1 .7-.3l.5.2c.2.1.3.3.4.4l6.1 17.8 5.2-13a.9.9 0 0 1 .8-.6h.6a.9.9 0 0 1 .3.5l5.2 13 6-17.7a1 1 0 0 1 1-.6.9.9 0 0 1 .7.3zm18.7 20.1a.7.7 0 0 1 .2.6.9.9 0 0 1-.3.7.7.7 0 0 1-.6.3 1 1 0 0 1-.8-.5l-6.7-9-6.6 9a1 1 0 0 1-.8.5.9.9 0 0 1-.6-.3 1.4 1.4 0 0 1-.2-.6 1.4 1.4 0 0 1 .2-.6l7-9.5-7-9.5c-.2-.2-.2-.3-.2-.6a1.4 1.4 0 0 1 .2-.6 1.1 1.1 0 0 1 .7-.3.9.9 0 0 1 .8.4l6.7 9.1L484 .6a1.3 1.3 0 0 1 .7-.4l.7.2a.7.7 0 0 1 .2.6.7.7 0 0 1-.2.6l-7 9.5zm17.9-18.9l-6.9 9.5v9.9a.9.9 0 0 1-.3.7l-.7.2-.7-.2a1.4 1.4 0 0 1-.2-.7v-9.8l-7-9.5a1.4 1.4 0 0 1-.2-.7.9.9 0 0 1 .3-.6 1 1 0 0 1 1.5.1l6.4 8.8 6.2-8.8a1.1 1.1 0 0 1 .9-.4.9.9 0 0 1 .6.3.9.9 0 0 1 .3.6 1.4 1.4 0 0 1-.2.6zm18.9 18.8a.9.9 0 0 1 .3.6.9.9 0 0 1-.3.7l-.7.2h-14.8a.9.9 0 0 1-.7-.3.9.9 0 0 1-.3-.6 1.4 1.4 0 0 1 .2-.6l14-18.4h-12.4a.9.9 0 0 1-.7-.3.7.7 0 0 1-.3-.6.6.6 0 0 1 .3-.6.9.9 0 0 1 .7-.3h14.1a.9.9 0 0 1 .7.3.9.9 0 0 1 .3.6 1.4 1.4 0 0 1-.2.6l-13.9 18.5h13a.8.8 0 0 1 .7.2zM17.9 54.6a2.4 2.4 0 0 1 .5 1.4v13.1a2.2 2.2 0 0 1-.5 1.4 2.1 2.1 0 0 1-1.3.5 1.7 1.7 0 0 1-1.4-.5 2.1 2.1 0 0 1-.5-1.3 5.7 5.7 0 0 1-2.1 1.5 6.7 6.7 0 0 1-2.8.6 6.8 6.8 0 0 1-3.9-1.1 7.9 7.9 0 0 1-2.7-3 9.3 9.3 0 0 1-1-4.5 9.2 9.2 0 0 1 1-4.4 7.4 7.4 0 0 1 2.7-3.1 7 7 0 0 1 3.8-1.1 6.7 6.7 0 0 1 2.8.6 6.7 6.7 0 0 1 2.2 1.3 1.9 1.9 0 0 1 .5-1.3 1.8 1.8 0 0 1 1.4-.6 2.1 2.1 0 0 1 1.3.5zm-4.3 11.9a6 6 0 0 0 1.2-3.8 5.9 5.9 0 0 0-1.2-3.7A4.4 4.4 0 0 0 7 59a5.9 5.9 0 0 0-1.2 3.7A6 6 0 0 0 7 66.5a4.2 4.2 0 0 0 3.3 1.4 4.5 4.5 0 0 0 3.3-1.4zm21.3-11.3a8.4 8.4 0 0 1 2.8 3.1 10.5 10.5 0 0 1 1 4.4 10.6 10.6 0 0 1-1 4.5 7.9 7.9 0 0 1-2.7 3 6.7 6.7 0 0 1-3.8 1.1 6.4 6.4 0 0 1-2.8-.6 7.6 7.6 0 0 1-2.2-1.4 1.8 1.8 0 0 1-.6 1.4 1.5 1.5 0 0 1-1.3.5 1.5 1.5 0 0 1-1.3-.5 1.7 1.7 0 0 1-.6-1.4V50a1.8 1.8 0 0 1 .6-1.4 1.9 1.9 0 0 1 2.6 0 1.8 1.8 0 0 1 .6 1.4v6.4a8.3 8.3 0 0 1 2-1.6 7.2 7.2 0 0 1 2.8-.7 7.1 7.1 0 0 1 3.9 1.1zm-1.1 11.2a5.9 5.9 0 0 0 0-7.4 3.9 3.9 0 0 0-3.2-1.5 4 4 0 0 0-3.3 1.5 5.9 5.9 0 0 0 0 7.4 4 4 0 0 0 3.3 1.5 3.9 3.9 0 0 0 3.2-1.5zm19.5-11.5a2.7 2.7 0 0 1 1.6 2.2 2.1 2.1 0 0 1-.4 1.2 1.3 1.3 0 0 1-1.1.5h-.8l-.6-.4-.6-.4-.9-.2-1-.2a4.6 4.6 0 0 0-3.6 1.4 5.1 5.1 0 0 0-1.3 3.7 5.5 5.5 0 0 0 1.3 3.8 4.6 4.6 0 0 0 3.4 1.4 6.7 6.7 0 0 0 2.3-.3l.5-.4.6-.3.7-.2a1.7 1.7 0 0 1 1.2.5 2.1 2.1 0 0 1 .5 1.3 1.7 1.7 0 0 1-.9 1.4 7 7 0 0 1-2.3 1 10.6 10.6 0 0 1-3.1.4 7.8 7.8 0 0 1-4.2-1.1 7.7 7.7 0 0 1-2.8-3.1 10.2 10.2 0 0 1-1-4.4 9.3 9.3 0 0 1 1.1-4.4 7.8 7.8 0 0 1 2.9-3.1 8.2 8.2 0 0 1 4.2-1.1 10.3 10.3 0 0 1 4.3.8zm19.2-6.3A1.6 1.6 0 0 1 73 50v19.1a1.7 1.7 0 0 1-.5 1.4 1.9 1.9 0 0 1-1.3.5 1.4 1.4 0 0 1-1.3-.5 1.8 1.8 0 0 1-.6-1.3 5.7 5.7 0 0 1-2.1 1.5 6.6 6.6 0 0 1-2.7.6 6.4 6.4 0 0 1-3.9-1.1 7.4 7.4 0 0 1-2.8-3 10.6 10.6 0 0 1-1-4.5 9.2 9.2 0 0 1 1-4.4 9.1 9.1 0 0 1 2.7-3.1 7.3 7.3 0 0 1 3.8-1.1 8.4 8.4 0 0 1 5 1.9v-6a1.7 1.7 0 0 1 1.9-1.9 1.5 1.5 0 0 1 1.3.5zm-4.3 17.9a5.5 5.5 0 0 0 1.3-3.8 5.4 5.4 0 0 0-1.3-3.7 4 4 0 0 0-3.3-1.5 3.9 3.9 0 0 0-3.2 1.5 5.4 5.4 0 0 0-1.3 3.7 6 6 0 0 0 1.2 3.8 4.5 4.5 0 0 0 3.3 1.4 4.2 4.2 0 0 0 3.3-1.4zm23.2-2.9a2 2 0 0 1-1.3.4H79.8a5.6 5.6 0 0 0 1.7 2.9 4.8 4.8 0 0 0 3.1 1l1.9-.2 1.2-.5.5-.4 1.1-.2a1.5 1.5 0 0 1 1.1.4 1.6 1.6 0 0 1 .5 1.1 1.8 1.8 0 0 1-.9 1.5 6.2 6.2 0 0 1-2.3 1.2 7.9 7.9 0 0 1-3 .5 9.3 9.3 0 0 1-4.5-1 8.6 8.6 0 0 1-3-3 9.4 9.4 0 0 1 .1-9 7.3 7.3 0 0 1 2.9-3.1 7.5 7.5 0 0 1 7.8 0 9.2 9.2 0 0 1 2.9 3 8.7 8.7 0 0 1 1.1 4.1 2.2 2.2 0 0 1-.6 1.3zm-11.5-2.7H88v-.2a3 3 0 0 0-1.3-2.2 3.5 3.5 0 0 0-2.6-1 3.8 3.8 0 0 0-4.2 3.4zm21.7-8.9a2.1 2.1 0 0 0-.5 1.3v1.4h2.8a1.9 1.9 0 0 1 1.3.5 1.7 1.7 0 0 1 .5 1.2 1.7 1.7 0 0 1-1.8 1.8h-2.8v10.9a2.2 2.2 0 0 1-.5 1.4 2.1 2.1 0 0 1-1.3.5 1.7 1.7 0 0 1-1.9-1.9V58.2h-1.7a1.7 1.7 0 0 1-1.2-.5 1.9 1.9 0 0 1-.5-1.3 1.7 1.7 0 0 1 1.7-1.7h1.7v-1.4a4.9 4.9 0 0 1 1.6-3.8 7 7 0 0 1 4.6-1.4 4.2 4.2 0 0 1 2 .4 1.6 1.6 0 0 1 .9 1.5 1.7 1.7 0 0 1-.5 1.2 1.3 1.3 0 0 1-1 .4h-2c-.7-.2-1.2 0-1.4.4zm21.5 2.6a2.4 2.4 0 0 1 .5 1.4v13.8a6.8 6.8 0 0 1-2.3 5.6 9.7 9.7 0 0 1-6 1.8l-2.5-.3-2.3-.6c-1.1-.4-1.6-1-1.6-1.8a4.3 4.3 0 0 0 .1-.5 2 2 0 0 1 .7-1 1.2 1.2 0 0 1 .9-.4h.6l1.6.6a8.5 8.5 0 0 0 2.5.5 5.6 5.6 0 0 0 3.5-.9 3.3 3.3 0 0 0 1.1-2.6v-1.4a7.6 7.6 0 0 1-2.1 1.8 5.9 5.9 0 0 1-2.9.7 6.9 6.9 0 0 1-4-1.1 7.4 7.4 0 0 1-2.8-3 9.3 9.3 0 0 1-1-4.5 9.2 9.2 0 0 1 1-4.4 9.1 9.1 0 0 1 2.7-3.1 7.7 7.7 0 0 1 3.9-1.1 6 6 0 0 1 3 .7 6 6 0 0 1 2.2 1.6V56a1.9 1.9 0 0 1 .5-1.3 1.8 1.8 0 0 1 1.4-.6 2.1 2.1 0 0 1 1.3.5zm-4.4 11.9a5.5 5.5 0 0 0 1.3-3.8 5.4 5.4 0 0 0-1.3-3.7 4.6 4.6 0 0 0-6.8 0 5.9 5.9 0 0 0-1.3 3.7 6 6 0 0 0 1.3 3.8 4.8 4.8 0 0 0 6.8 0zM140.6 56a9.5 9.5 0 0 1 1.2 5.2v7.9a1.7 1.7 0 0 1-1.9 1.9 1.9 1.9 0 0 1-1.3-.5 1.7 1.7 0 0 1-.5-1.4v-7.9a5.4 5.4 0 0 0-.7-2.7 2.7 2.7 0 0 0-2.3-1 3.4 3.4 0 0 0-3.7 3.7v7.9a1.8 1.8 0 0 1-.6 1.4 1.9 1.9 0 0 1-2.6 0 1.8 1.8 0 0 1-.6-1.4V50a1.8 1.8 0 0 1 .6-1.4 1.9 1.9 0 0 1 2.6 0 1.8 1.8 0 0 1 .6 1.4v6.8a6.5 6.5 0 0 1 2.1-1.9 5.7 5.7 0 0 1 2.9-.8c2 0 3.4.6 4.2 1.9zm5.3-3.9a2.1 2.1 0 0 1-.4-1.2v-.6a1.4 1.4 0 0 1 .5-1.2 3 3 0 0 1 3 0c.3.2.4.6.4 1.2v.6c0 .6-.1 1-.4 1.2a3 3 0 0 1-1.6.3 2.8 2.8 0 0 1-1.5-.3zm2.9 18.4a1.9 1.9 0 0 1-1.3.5 1.7 1.7 0 0 1-1.9-1.9V56.3a1.9 1.9 0 0 1 .5-1.3 1.8 1.8 0 0 1 1.4-.6 1.6 1.6 0 0 1 1.3.6 1.5 1.5 0 0 1 .5 1.3v12.8a1.7 1.7 0 0 1-.5 1.4zm2.2 6.1a1.7 1.7 0 0 1-.5-1.2V75c0-.8.5-1.4 1.6-1.7s1.1-.5 1.2-1a5.6 5.6 0 0 0 .3-2v-14a1.9 1.9 0 0 1 .5-1.3 1.8 1.8 0 0 1 1.4-.6 1.6 1.6 0 0 1 1.3.6 1.5 1.5 0 0 1 .5 1.3v15a7.5 7.5 0 0 1-.6 3.1 6.1 6.1 0 0 1-1.9 2 4.4 4.4 0 0 1-2.6.7 1.8 1.8 0 0 1-1.2-.5zm2.9-24.5a1.6 1.6 0 0 1-.4-1.2v-.6c0-.6.1-1 .5-1.2a2 2 0 0 1 1.4-.4 2.2 2.2 0 0 1 1.6.4c.3.2.4.6.4 1.2v.6a1.4 1.4 0 0 1-.5 1.2 3.9 3.9 0 0 1-3 0zm22.2 17.1a1.8 1.8 0 0 1-.6 1.3 2.4 2.4 0 0 1-1.3.5 1.8 1.8 0 0 1-1.4-.6l-5.6-5.9-1.5 1.4v3.2a1.7 1.7 0 0 1-1.9 1.9 2.1 2.1 0 0 1-1.3-.5 2.2 2.2 0 0 1-.5-1.4V50a2.2 2.2 0 0 1 .5-1.4 2.1 2.1 0 0 1 1.3-.5 1.7 1.7 0 0 1 1.9 1.9v11.4l6.6-6.4a2 2 0 0 1 1.4-.6 1.4 1.4 0 0 1 1.2.6 1.7 1.7 0 0 1 .6 1.2 2.1 2.1 0 0 1-.8 1.4l-4.6 4.3 5.4 5.9a1.8 1.8 0 0 1 .6 1.4zm6.6 1.3a2.2 2.2 0 0 1-1.4.5 2.1 2.1 0 0 1-1.3-.5 2.2 2.2 0 0 1-.5-1.4V50a1.7 1.7 0 0 1 1.9-1.9 2.1 2.1 0 0 1 1.3.5 2.2 2.2 0 0 1 .5 1.4v19.1a2.2 2.2 0 0 1-.5 1.4zM210.9 56a9.5 9.5 0 0 1 1.2 5.2v7.9a2.2 2.2 0 0 1-.5 1.4 2.1 2.1 0 0 1-1.3.5 1.7 1.7 0 0 1-1.9-1.9v-7.9a4.5 4.5 0 0 0-.7-2.7 2.7 2.7 0 0 0-2.3-1 3.6 3.6 0 0 0-3.7 3.7v7.9a1.7 1.7 0 0 1-1.9 1.9 2.1 2.1 0 0 1-1.3-.5 2.2 2.2 0 0 1-.5-1.4v-7.9a4.5 4.5 0 0 0-.7-2.7 2.7 2.7 0 0 0-2.3-1 3.6 3.6 0 0 0-3.7 3.7v7.9a1.8 1.8 0 0 1-.6 1.4 1.7 1.7 0 0 1-1.3.5 1.9 1.9 0 0 1-1.3-.5 1.7 1.7 0 0 1-.5-1.4V56.3a1.5 1.5 0 0 1 .5-1.3 1.6 1.6 0 0 1 1.3-.6 1.5 1.5 0 0 1 1.3.6 1.6 1.6 0 0 1 .6 1.3v.5a6.5 6.5 0 0 1 2.1-1.9 5.7 5.7 0 0 1 2.9-.8 4.8 4.8 0 0 1 5 3.4 7.5 7.5 0 0 1 2.1-2.3 5.7 5.7 0 0 1 3.3-1.1c2 0 3.5.6 4.2 1.9zm18.5 0a9.5 9.5 0 0 1 1.2 5.2v7.9a2.2 2.2 0 0 1-.5 1.4 2.1 2.1 0 0 1-1.3.5 1.7 1.7 0 0 1-1.9-1.9v-7.9a4.5 4.5 0 0 0-.7-2.7 3.1 3.1 0 0 0-2.5-1 3.8 3.8 0 0 0-2.8 1.1 3.4 3.4 0 0 0-1 2.6v7.9A1.7 1.7 0 0 1 218 71a1.9 1.9 0 0 1-1.3-.5 1.7 1.7 0 0 1-.5-1.4V56.3a1.5 1.5 0 0 1 .5-1.3 1.6 1.6 0 0 1 1.3-.6 1.8 1.8 0 0 1 1.4.6 1.9 1.9 0 0 1 .5 1.3v.5a8.4 8.4 0 0 1 2.2-1.9 6 6 0 0 1 2.9-.8c2.1 0 3.6.6 4.4 1.9zm20.1 11.2a9.2 9.2 0 0 1-3.1 3.1 8.7 8.7 0 0 1-4.2 1 8.8 8.8 0 0 1-4.3-1 9.2 9.2 0 0 1-3.1-3.1 9.4 9.4 0 0 1-1.1-4.5 8.4 8.4 0 0 1 4.2-7.5 8.9 8.9 0 0 1 4.3-1.1 8.8 8.8 0 0 1 4.2 1.1 8.4 8.4 0 0 1 4.2 7.5 9.4 9.4 0 0 1-1.1 4.5zm-3.3-7.2a4.2 4.2 0 0 0-1.7-1.8 3.9 3.9 0 0 0-2.3-.7 4 4 0 0 0-2.4.7 4.2 4.2 0 0 0-1.7 1.8 5 5 0 0 0-.7 2.7 4.5 4.5 0 0 0 .7 2.7 5.2 5.2 0 0 0 1.7 1.9 4.8 4.8 0 0 0 2.4.6 4.6 4.6 0 0 0 2.3-.6 5.2 5.2 0 0 0 1.7-1.9 4.5 4.5 0 0 0 .7-2.7 5 5 0 0 0-.7-2.7zm20-4.8a9.1 9.1 0 0 1 2.7 3.1 9.2 9.2 0 0 1 1 4.4 9.3 9.3 0 0 1-1 4.5 6.6 6.6 0 0 1-2.7 3 6.3 6.3 0 0 1-3.8 1.1 6.7 6.7 0 0 1-2.8-.6 9.3 9.3 0 0 1-2.2-1.4v6a2.2 2.2 0 0 1-.5 1.4 1.7 1.7 0 0 1-1.3.5 1.7 1.7 0 0 1-1.4-.5 2 2 0 0 1-.5-1.4v-19a1.9 1.9 0 0 1 .5-1.3 1.8 1.8 0 0 1 1.4-.6 1.8 1.8 0 0 1 1.3.6 1.9 1.9 0 0 1 .5 1.3 7.2 7.2 0 0 1 2.1-1.6 6.8 6.8 0 0 1 2.8-.7 7.7 7.7 0 0 1 3.9 1.2zm-1.1 11.2a5.9 5.9 0 0 0 0-7.4 4 4 0 0 0-3.3-1.5 4.3 4.3 0 0 0-3.3 1.5 6.3 6.3 0 0 0 0 7.4 4.4 4.4 0 0 0 6.6 0zM287.8 55a1.9 1.9 0 0 1 .5 1.3v19a2.2 2.2 0 0 1-.5 1.4 1.7 1.7 0 0 1-1.3.5 1.7 1.7 0 0 1-1.4-.5 2.2 2.2 0 0 1-.5-1.4v-6.1a5.7 5.7 0 0 1-2.1 1.5 6.7 6.7 0 0 1-2.8.6 6.8 6.8 0 0 1-3.9-1.1 7.9 7.9 0 0 1-2.7-3 9.3 9.3 0 0 1-1-4.5 9.2 9.2 0 0 1 1-4.4 8.1 8.1 0 0 1 2.7-3.1 7 7 0 0 1 3.8-1.1 6.4 6.4 0 0 1 2.8.6 5.5 5.5 0 0 1 2.2 1.4 2.3 2.3 0 0 1 .6-1.2 1.9 1.9 0 0 1 1.3-.5 1.8 1.8 0 0 1 1.3.6zm-4.3 11.5a6 6 0 0 0 1.2-3.8 5.9 5.9 0 0 0-1.2-3.7 4.4 4.4 0 0 0-6.6 0 5.9 5.9 0 0 0-1.2 3.7 6 6 0 0 0 1.2 3.8 4.4 4.4 0 0 0 3.3 1.4 4.5 4.5 0 0 0 3.3-1.4zm19-11.9a1.6 1.6 0 0 1 .7 1.3 2 2 0 0 1-.5 1.4 1.5 1.5 0 0 1-1.2.5l-1.1-.2h-1.1a2.3 2.3 0 0 0-1.5.5 3.1 3.1 0 0 0-1.2 1.5 4.5 4.5 0 0 0-.5 2.4v7.3a1.8 1.8 0 0 1-.6 1.4 1.9 1.9 0 0 1-2.6 0 1.8 1.8 0 0 1-.6-1.4v-13a1.9 1.9 0 0 1 3.8 0v.4a4.1 4.1 0 0 1 2-1.9 5.9 5.9 0 0 1 2.9-.7 2.5 2.5 0 0 1 1.5.5zm2.1 12.9a1.4 1.4 0 0 1 .8-1.3 1.6 1.6 0 0 1 .9-.3 1.7 1.7 0 0 1 1.2.6 6.6 6.6 0 0 0 2 1.4 5.4 5.4 0 0 0 2.4.5c1.6-.1 2.4-.7 2.4-1.9a1.4 1.4 0 0 0-.8-1.3 11.8 11.8 0 0 0-2.6-1 13.9 13.9 0 0 1-2.9-1 4.8 4.8 0 0 1-2-1.5 4.6 4.6 0 0 1 .1-5.3 5.4 5.4 0 0 1 2.2-1.7 7.2 7.2 0 0 1 2.9-.6 8.7 8.7 0 0 1 3.2.6 5.8 5.8 0 0 1 2.5 1.7 1.7 1.7 0 0 1 .4 1.2 1.4 1.4 0 0 1-.6 1.1 1.3 1.3 0 0 1-1 .4 1.6 1.6 0 0 1-1.1-.5 5 5 0 0 0-3.5-1.4c-1.5 0-2.3.5-2.3 1.7a1.5 1.5 0 0 0 .4 1.1 3.9 3.9 0 0 0 1.1.6l1.9.6a12.8 12.8 0 0 1 2.8 1 4.3 4.3 0 0 1 2.7 4.2 3.9 3.9 0 0 1-.9 2.6 4.8 4.8 0 0 1-2.3 1.7 7.9 7.9 0 0 1-2.9.6 12.3 12.3 0 0 1-3.9-.6 6.7 6.7 0 0 1-2.8-2.2 1.7 1.7 0 0 1-.3-1zm25 .4a2 2 0 0 1 .3 1.1 1.8 1.8 0 0 1-.9 1.5 4.6 4.6 0 0 1-2.1.5 5.7 5.7 0 0 1-3.2-.8c-.9-.5-1.3-1.7-1.3-3.5v-8.5H321a1.9 1.9 0 0 1-1.3-.5 2.1 2.1 0 0 1-.5-1.3 1.7 1.7 0 0 1 .5-1.2 1.9 1.9 0 0 1 1.3-.5h1.4v-1.9a2.2 2.2 0 0 1 .5-1.4 1.7 1.7 0 0 1 1.4-.5 1.7 1.7 0 0 1 1.3.5 2.2 2.2 0 0 1 .5 1.4v1.9h2.2a1.7 1.7 0 0 1 1.7 1.8 1.3 1.3 0 0 1-.5 1.2 1.7 1.7 0 0 1-1.2.5h-2.2v8.4a1.2 1.2 0 0 0 .3.9 1.7 1.7 0 0 0 1 .3h.7l.7-.2c.3-.1.5.1.8.3zM347.1 55a1.5 1.5 0 0 1 .5 1.3v7.9a7.1 7.1 0 0 1-1.8 5.2 6.9 6.9 0 0 1-5.3 1.9 6.8 6.8 0 0 1-5.2-1.9 7.1 7.1 0 0 1-1.8-5.2v-7.9a1.5 1.5 0 0 1 .5-1.3 1.6 1.6 0 0 1 1.3-.6 1.5 1.5 0 0 1 1.3.6 1.6 1.6 0 0 1 .6 1.3v7.9a4.3 4.3 0 0 0 .8 2.8 3.3 3.3 0 0 0 2.5.9 3.4 3.4 0 0 0 2.6-.9 4.3 4.3 0 0 0 .8-2.8v-7.9a1.9 1.9 0 0 1 .5-1.3 1.8 1.8 0 0 1 1.4-.6 1.6 1.6 0 0 1 1.3.6zm18.6-.1a2.1 2.1 0 0 1 .5 1.2 2.2 2.2 0 0 1-.3 1l-5.8 12.7a2 2 0 0 1-.6.9 1.7 1.7 0 0 1-1 .3h-.3a1.8 1.8 0 0 1-.9-.4 1.6 1.6 0 0 1-.7-.9L350.8 57a4.4 4.4 0 0 1-.2-1 2.1 2.1 0 0 1 .5-1.2 2.1 2.1 0 0 1 1.3-.5 2 2 0 0 1 1.1.3 1.6 1.6 0 0 1 .7.9l4.3 9.8 4.3-9.8a1.6 1.6 0 0 1 .7-.9 1 1 0 0 1 .9-.2 2 2 0 0 1 1.3.5zM12.3 99.6a.7.7 0 0 1 .2.6v19.9a1.4 1.4 0 0 1-.2.7l-.8.2-.7-.2a1.4 1.4 0 0 1-.2-.7v-18.2l-3.9 2.3-.5.2a.7.7 0 0 1-.6-.3 1.1 1.1 0 0 1-.3-.7.9.9 0 0 1 .1-.5l.4-.3 5.2-3.2h.7a.6.6 0 0 1 .6.2zm19.1 19.9a1.4 1.4 0 0 1 .2.6 1.4 1.4 0 0 1-.2.7l-.7.2H19.1l-.7-.2a.9.9 0 0 1-.3-.7 2.5 2.5 0 0 1 .2-.7l7.2-7.9a16.8 16.8 0 0 0 2.6-3.3 6.7 6.7 0 0 0 .8-2.9 4.5 4.5 0 0 0-1.2-3.3 5.2 5.2 0 0 0-3.6-1.2 5 5 0 0 0-2.7.7 4.4 4.4 0 0 0-1.8 2.2.9.9 0 0 1-.8.6.9.9 0 0 1-.6-.3.5.5 0 0 1-.3-.5.9.9 0 0 1 .1-.5l.3-.5a6 6 0 0 1 2.4-2.6 7.3 7.3 0 0 1 3.5-.9 6.8 6.8 0 0 1 4.9 1.7 5.8 5.8 0 0 1 1.8 4.5 7.9 7.9 0 0 1-.9 3.5 22 22 0 0 1-3.1 4.1l-5.7 6.4h9.5a.9.9 0 0 1 .7.3zm12.7-11.4a6.1 6.1 0 0 1 2.5 2.3 7.5 7.5 0 0 1 .9 3.7 8 8 0 0 1-1 3.8 6.8 6.8 0 0 1-2.8 2.5 7.9 7.9 0 0 1-3.8.9 7.5 7.5 0 0 1-2.6-.4 5.7 5.7 0 0 1-2.1-1.3.9.9 0 0 1-.4-.7 1.4 1.4 0 0 1 .2-.7.8.8 0 0 1 .7-.4 1.2 1.2 0 0 1 .8.4 4.6 4.6 0 0 0 3.6 1.4 6 6 0 0 0 2.7-.7 5.2 5.2 0 0 0 2-1.9 5.7 5.7 0 0 0 .8-2.8 5.2 5.2 0 0 0-.8-2.9 4.8 4.8 0 0 0-2-1.7 7.1 7.1 0 0 0-2.6-.5h-1.7a.9.9 0 0 1-.6-.3 1.1 1.1 0 0 1-.2-.6.9.9 0 0 1 .3-.7l5.9-6.6h-8.6a.9.9 0 0 1-.6-.3.7.7 0 0 1-.3-.6.6.6 0 0 1 .3-.6l.6-.3h10.4a1 1 0 0 1 .8.3 1.4 1.4 0 0 1 .2.7 1.3 1.3 0 0 1-.3.7l-5.7 6.3h.2a6.9 6.9 0 0 1 3.2 1zm20.7 4.7a.9.9 0 0 1 .3.7.9.9 0 0 1-.3.6l-.6.2h-2.1v5.8a.9.9 0 0 1-.3.7l-.6.2-.7-.2a.8.8 0 0 1-.2-.7v-5.8h-9.2a1.1 1.1 0 0 1-.9-.9 1.4 1.4 0 0 1 .2-.7l10-13a.8.8 0 0 1 .8-.4.9.9 0 0 1 .7.3 1.4 1.4 0 0 1 .2.6v12.4h2.1zm-12-.2h7.5v-9.9zm25-5.1a6 6 0 0 1 2.5 2.5 6.1 6.1 0 0 1 1 3.6 8 8 0 0 1-1 3.8 6.9 6.9 0 0 1-2.9 2.7 7.7 7.7 0 0 1-4 1 10.9 10.9 0 0 1-2.6-.4 6.5 6.5 0 0 1-2.3-1.3l-.3-.3a.9.9 0 0 1-.1-.5.9.9 0 0 1 .3-.6.7.7 0 0 1 .6-.3 1.1 1.1 0 0 1 .7.3 5.6 5.6 0 0 0 1.7.9 4.8 4.8 0 0 0 2 .4 6.4 6.4 0 0 0 3.1-.7 5.8 5.8 0 0 0 2.1-2 6.1 6.1 0 0 0 .8-3 5 5 0 0 0-1.5-3.8 6 6 0 0 0-4.1-1.4l-1.8.2-1.8.8-1 .4a.9.9 0 0 1-.7-.3 1.1 1.1 0 0 1-.3-.7v-.3l1.3-8.4.4-.6.6-.2h9.3a.9.9 0 0 1 .7.3 1.4 1.4 0 0 1 .2.6 1.4 1.4 0 0 1-.2.7.8.8 0 0 1-.7.2h-8.7l-1 6.5a8.4 8.4 0 0 1 1.9-.7 8.5 8.5 0 0 1 2.3-.3 6.8 6.8 0 0 1 3.5.9zm18.2.8a6.3 6.3 0 0 1 2.2 2.6 7.3 7.3 0 0 1 .9 3.5 6.7 6.7 0 0 1-.9 3.4 7.5 7.5 0 0 1-2.4 2.6 7 7 0 0 1-3.5.9 7.2 7.2 0 0 1-4-1 8.5 8.5 0 0 1-2.4-2.9 10 10 0 0 1-.8-3.8 15.4 15.4 0 0 1 1.2-5.7 18 18 0 0 1 3.2-5.5 12.4 12.4 0 0 1 5.1-3.7h.4a.8.8 0 0 1 .7.2.9.9 0 0 1 .3.7.9.9 0 0 1-.8.9 12.6 12.6 0 0 0-4.6 3.6 14.3 14.3 0 0 0-3 5.5 6.2 6.2 0 0 1 2.2-1.7 6.7 6.7 0 0 1 2.8-.6 5.7 5.7 0 0 1 3.4 1zm-.2 9.8a5.3 5.3 0 0 0 1.4-3.7 5.8 5.8 0 0 0-.6-2.6 4.7 4.7 0 0 0-1.7-2 4.1 4.1 0 0 0-2.5-.7 5.7 5.7 0 0 0-2.9.7 4.4 4.4 0 0 0-1.8 2 5 5 0 0 0-.7 2.7 4.5 4.5 0 0 0 .7 2.5 3.9 3.9 0 0 0 1.8 1.8 4.7 4.7 0 0 0 2.7.7 4.5 4.5 0 0 0 3.6-1.4zm19.1-18.5a.6.6 0 0 1 .3.6c0 .1-.1.2-.1.4l-8.6 19.9c0 .2-.2.3-.3.4a.7.7 0 0 1-.6.2l-.6-.2a.9.9 0 0 1-.3-.6.7.7 0 0 1 .1-.5l8-18.7h-9.9a.9.9 0 0 1-.7-.3c-.2-.1-.2-.4-.2-.6s0-.5.2-.6a.9.9 0 0 1 .7-.3h11.4a.6.6 0 0 1 .6.3zm15.7 12.5a5 5 0 0 1 1 3.1 5.9 5.9 0 0 1-.9 3.1 7.3 7.3 0 0 1-2.4 2.2 7.7 7.7 0 0 1-3.4.8 7.3 7.3 0 0 1-3.3-.8 5.7 5.7 0 0 1-2.4-2.2 5.9 5.9 0 0 1-.9-3.1 5.4 5.4 0 0 1 .9-3.1 7.2 7.2 0 0 1 2.5-2.1 6.3 6.3 0 0 1-2.1-1.9 4.9 4.9 0 0 1-.8-2.9 5.2 5.2 0 0 1 .8-3 5.6 5.6 0 0 1 2.2-2.1 6.8 6.8 0 0 1 3.1-.8 6.5 6.5 0 0 1 3.1.8 5.6 5.6 0 0 1 2.2 2.1 5.2 5.2 0 0 1 .8 3 5.7 5.7 0 0 1-.8 2.9 7.6 7.6 0 0 1-2.1 1.9 6.4 6.4 0 0 1 2.5 2.1zm-2.2 6.2a4.2 4.2 0 0 0 1.3-3.1 3.6 3.6 0 0 0-.7-2.2 4.1 4.1 0 0 0-1.7-1.5 4.8 4.8 0 0 0-2.4-.6 4.6 4.6 0 0 0-2.3.6 4.4 4.4 0 0 0-1.8 1.5 4.3 4.3 0 0 0-.6 2.2 3.9 3.9 0 0 0 1.3 3.1 4.9 4.9 0 0 0 3.4 1.2 5.1 5.1 0 0 0 3.5-1.2zm-6.6-16.1a4.4 4.4 0 0 0-1.1 3 4.3 4.3 0 0 0 .6 2.2 3.4 3.4 0 0 0 1.5 1.4 4.2 4.2 0 0 0 2.1.6 3.7 3.7 0 0 0 2.1-.6 3.6 3.6 0 0 0 1.6-1.4 5.4 5.4 0 0 0 .5-2.2 4.4 4.4 0 0 0-1.1-3 4.5 4.5 0 0 0-3.1-1.1 4.7 4.7 0 0 0-3.1 1.1zm24.3-2.1a6 6 0 0 1 2.4 2.8 8.4 8.4 0 0 1 .8 3.8 14.7 14.7 0 0 1-1.1 5.6 18.8 18.8 0 0 1-3.2 5.4 13.3 13.3 0 0 1-5.1 3.5h-.4a1 1 0 0 1-1-1 .9.9 0 0 1 .7-.9 12.5 12.5 0 0 0 4.7-3.4 12.3 12.3 0 0 0 3-5.3 6.4 6.4 0 0 1-5.1 2.3 6.4 6.4 0 0 1-3.3-1 8.3 8.3 0 0 1-2.3-2.6 8.5 8.5 0 0 1-.8-3.5 6.9 6.9 0 0 1 .9-3.4 7.5 7.5 0 0 1 2.4-2.6 7 7 0 0 1 3.5-.9 6 6 0 0 1 3.9 1.2zm-1.1 10.3a4.1 4.1 0 0 0 1.8-1.9 6 6 0 0 0 .6-2.7 5.4 5.4 0 0 0-.6-2.5 3.9 3.9 0 0 0-1.8-1.8 5 5 0 0 0-2.7-.7 5.5 5.5 0 0 0-2.6.6 5.8 5.8 0 0 0-1.7 1.8 5 5 0 0 0-.7 2.7 5.8 5.8 0 0 0 .6 2.6 4.9 4.9 0 0 0 1.6 1.9 4.5 4.5 0 0 0 2.6.8 5.7 5.7 0 0 0 2.9-.8zm10.9 9.5a9.5 9.5 0 0 1-2.5-4 17.1 17.1 0 0 1-.8-5.7 17.3 17.3 0 0 1 .8-5.8 9.1 9.1 0 0 1 2.5-3.9 6 6 0 0 1 4.2-1.5 6.4 6.4 0 0 1 4.1 1.4 8.6 8.6 0 0 1 2.5 4 17.2 17.2 0 0 1 .9 5.8 17 17 0 0 1-.9 5.7 8.6 8.6 0 0 1-2.5 4 5.9 5.9 0 0 1-4.1 1.4 6.1 6.1 0 0 1-4.2-1.4zm8.3-3a13.9 13.9 0 0 0 1.4-6.7 14.4 14.4 0 0 0-1.4-6.8 4.6 4.6 0 0 0-4.1-2.5 4.4 4.4 0 0 0-4.1 2.5 13.2 13.2 0 0 0-1.5 6.8 12.8 12.8 0 0 0 1.5 6.7 4.4 4.4 0 0 0 4.1 2.5 4.6 4.6 0 0 0 4.1-2.5z"/></svg>