<svg xmlns="http://www.w3.org/2000/svg" width="537.2" height="126" viewBox="0 0 537.2 126"><path d="M9.2.2H11l9.2 22h-2.3L15 15.3H5.2l-2.9 6.9H0zm5.4 13.4L10.1 2.7 5.6 13.6zm25.3 2.9a4.6 4.6 0 0 1-.5 2.3 4.6 4.6 0 0 1-1.3 1.8 6.7 6.7 0 0 1-2 1.2 8.5 8.5 0 0 1-2.3.4H23.4V.2H34a3.5 3.5 0 0 1 2 .5 4 4 0 0 1 1.6 1.2 5.4 5.4 0 0 1 1 1.8 5.2 5.2 0 0 1 .4 2.1 6.1 6.1 0 0 1-.8 3 6.1 6.1 0 0 1-2.4 2.1 5.5 5.5 0 0 1 3 2.1 5.4 5.4 0 0 1 1.1 3.5zM25.5 2v8.2h7.6a2.8 2.8 0 0 0 1.5-.4 2.7 2.7 0 0 0 1.2-.9 4.1 4.1 0 0 0 .8-1.3 3.7 3.7 0 0 0 .3-1.5 4.5 4.5 0 0 0-.3-1.6 3.5 3.5 0 0 0-.8-1.3 3.1 3.1 0 0 0-1.1-.8 3.3 3.3 0 0 0-1.4-.4zm12.3 14.1a4 4 0 0 0-.3-1.5 6.4 6.4 0 0 0-.8-1.4l-1.2-.9a4.2 4.2 0 0 0-1.5-.4h-8.5v8.4h8.3a2.8 2.8 0 0 0 1.5-.4 3.8 3.8 0 0 0 1.3-.9 2.9 2.9 0 0 0 .8-1.3 2.9 2.9 0 0 0 .4-1.6zm4.8-5.1a10.7 10.7 0 0 1 .7-3.9 9.8 9.8 0 0 1 2-3.6A12 12 0 0 1 48.6 1 10.5 10.5 0 0 1 53 0a9.3 9.3 0 0 1 5.1 1.4 7.5 7.5 0 0 1 3 3.4l-1.7 1.1a5.7 5.7 0 0 0-1.2-1.8 8.8 8.8 0 0 0-1.7-1.2 4.5 4.5 0 0 0-1.8-.7L52.9 2a7.8 7.8 0 0 0-3.5.8 7.5 7.5 0 0 0-2.6 2.1 8 8 0 0 0-1.5 2.9 9.6 9.6 0 0 0-.6 3.3 8.1 8.1 0 0 0 .7 3.5 9.8 9.8 0 0 0 1.7 3 8.9 8.9 0 0 0 2.6 2.1 7.2 7.2 0 0 0 3.3.7l1.9-.2a7.7 7.7 0 0 0 1.9-.8 6.6 6.6 0 0 0 1.7-1.2 9.1 9.1 0 0 0 1.3-1.9l1.8.9a7.1 7.1 0 0 1-1.5 2.2A7.8 7.8 0 0 1 58 21a8.7 8.7 0 0 1-2.5 1 8.2 8.2 0 0 1-2.6.4 10 10 0 0 1-4.2-1 14 14 0 0 1-3.3-2.6 13.1 13.1 0 0 1-2.1-3.6 12.3 12.3 0 0 1-.7-4.2zm22.7 11.2V.2h7.5a11.1 11.1 0 0 1 4.6.8 10 10 0 0 1 3.3 2.4 10 10 0 0 1 2 3.5 14.2 14.2 0 0 1 .6 4.2 13.5 13.5 0 0 1-.7 4.6 11.3 11.3 0 0 1-2.1 3.5 11.1 11.1 0 0 1-3.4 2.2 11.8 11.8 0 0 1-4.3.8zm15.9-11.1a10.5 10.5 0 0 0-.6-3.6A9 9 0 0 0 79 4.6a7.7 7.7 0 0 0-2.7-1.9 9.5 9.5 0 0 0-3.5-.6h-5.3v18.2h5.3a10 10 0 0 0 3.6-.7 7.3 7.3 0 0 0 2.6-2 7.1 7.1 0 0 0 1.6-2.8 11.5 11.5 0 0 0 .6-3.7zm21.1 9.2v1.9H87.5V.2H102v1.9H89.7V10h10.7v1.9H89.7v8.4zm4.1 1.9V.2h14.4v1.9h-12.2v8.1h10.3V12h-10.3v10.2zm33.7-3.2a9.5 9.5 0 0 1-7.1 3.3 9.1 9.1 0 0 1-4.1-.9 11.9 11.9 0 0 1-3.3-2.6 10.7 10.7 0 0 1-2.1-3.6 11.5 11.5 0 0 1-.8-4.1 12.5 12.5 0 0 1 .8-4.2 11.3 11.3 0 0 1 2.1-3.5 9.6 9.6 0 0 1 3.2-2.5 9.5 9.5 0 0 1 4.1-.9 9.2 9.2 0 0 1 2.9.4 8.5 8.5 0 0 1 2.4.9 9.3 9.3 0 0 1 1.8 1.6 12.7 12.7 0 0 1 1.3 1.9l-1.7 1.1a8.1 8.1 0 0 0-2.8-3 8.7 8.7 0 0 0-4-.9 7.2 7.2 0 0 0-3.3.7 8.2 8.2 0 0 0-2.5 2.1 10.2 10.2 0 0 0-1.6 2.9 13.4 13.4 0 0 0-.5 3.5 10.3 10.3 0 0 0 .6 3.5 7.9 7.9 0 0 0 1.8 2.9 8 8 0 0 0 5.9 2.8 8 8 0 0 0 3.6-.9 11.7 11.7 0 0 0 3.3-2.8V13h-4.9v-1.6h6.7v10.8h-1.8zM163.7.2v22h-2.1V11.9h-13.1v10.3h-2.1V.2h2.1V10h13.1V.2zm5.6 22V.2h2.1v22zm6-2.8a5.4 5.4 0 0 0 1.7.8 6.1 6.1 0 0 0 2.4.4 5.4 5.4 0 0 0 2.7-.6 3.4 3.4 0 0 0 1.5-1.8 8.2 8.2 0 0 0 .7-2.9c.1-1.2.2-2.5.2-3.9V.2h2.1v11.2a31.7 31.7 0 0 1-.2 4.5 11.8 11.8 0 0 1-1 3.6 5.6 5.6 0 0 1-2.1 2.2 7.5 7.5 0 0 1-3.9.8 8.4 8.4 0 0 1-4.8-1.3zm16.6 2.8V.2h2.2V13L206.2.2h2.4l-9 9.6 9.4 12.4h-2.4l-8.4-11.1-4.1 4.3v6.8zm19.9 0V.2h2.2v20.1h12.7v1.9zm37.6 0V4.1l-8 14h-1.3l-8-14v18.1h-2.2V.2h2.2l8.6 15 8.7-15h2.2v22zm9.9-18v18h-2.2V.2h1.7l14.6 18.3V.2h2.2v22h-1.9zm30.6 18.1a9.9 9.9 0 0 1-4.2-.9 11.1 11.1 0 0 1-3.2-2.5 13.1 13.1 0 0 1-2.1-3.6 11.5 11.5 0 0 1-.8-4.1 12.6 12.6 0 0 1 .8-4.3 11.5 11.5 0 0 1 2.2-3.5 9 9 0 0 1 3.3-2.5A9.1 9.1 0 0 1 290 0a8.7 8.7 0 0 1 4.2 1 9.9 9.9 0 0 1 3.2 2.5 13.1 13.1 0 0 1 2.1 3.6 11.9 11.9 0 0 1 .8 4.1 11.6 11.6 0 0 1-.8 4.2 12 12 0 0 1-2.2 3.6 10 10 0 0 1-3.3 2.4 9.1 9.1 0 0 1-4.1.9zm-8.1-11.1a9.7 9.7 0 0 0 .6 3.4 9 9 0 0 0 1.7 3 8.2 8.2 0 0 0 2.5 2 7.3 7.3 0 0 0 3.3.8 7.4 7.4 0 0 0 3.4-.8 10.9 10.9 0 0 0 2.6-2.1 10.8 10.8 0 0 0 1.6-3 9.6 9.6 0 0 0 .6-3.3 10.3 10.3 0 0 0-.6-3.5 9.2 9.2 0 0 0-1.7-2.9 8.9 8.9 0 0 0-2.6-2.1 7.2 7.2 0 0 0-3.3-.7 6.2 6.2 0 0 0-3.3.8 6.7 6.7 0 0 0-2.6 2.1 7.5 7.5 0 0 0-1.6 2.9 9.7 9.7 0 0 0-.6 3.4zm22.6 11V.2h9.1a5.8 5.8 0 0 1 2.6.6 8 8 0 0 1 2.1 1.5 6.5 6.5 0 0 1 1.3 2.3 5.3 5.3 0 0 1 .5 2.5 7.5 7.5 0 0 1-.4 2.6 8 8 0 0 1-1.3 2.2 7.4 7.4 0 0 1-2 1.6 5.8 5.8 0 0 1-2.6.6h-7.2v8.1zm2.1-10.1h7.1a3.3 3.3 0 0 0 1.7-.4 3.8 3.8 0 0 0 1.4-1.1 8.3 8.3 0 0 0 .9-1.6 6.3 6.3 0 0 0 .3-1.9 6.5 6.5 0 0 0-.4-2 3.9 3.9 0 0 0-1-1.6 3.6 3.6 0 0 0-1.4-1 3.3 3.3 0 0 0-1.7-.4h-6.9zm32.1 8.1a11.2 11.2 0 0 1-2.8 1.6 8.8 8.8 0 0 1-3.3.5 9.9 9.9 0 0 1-4.2-.9 13.1 13.1 0 0 1-3.2-2.5 13.1 13.1 0 0 1-2.1-3.6 11.5 11.5 0 0 1-.8-4.1 12.6 12.6 0 0 1 .8-4.3 11.5 11.5 0 0 1 2.2-3.5 9 9 0 0 1 3.3-2.5 9.1 9.1 0 0 1 4.1-.9 8.7 8.7 0 0 1 4.2 1 11.1 11.1 0 0 1 3.2 2.5 13.1 13.1 0 0 1 2.1 3.6 11.9 11.9 0 0 1 .8 4.1 10.7 10.7 0 0 1-.9 4.3 10.9 10.9 0 0 1-2.2 3.6l2.6 3.1h-2.2zm-6.1.2a7.1 7.1 0 0 0 2.6-.5 9.4 9.4 0 0 0 2.2-1.2l-2.8-3.3h2.2l1.7 2.1a7.7 7.7 0 0 0 1.7-2.9 10.2 10.2 0 0 0 .6-3.4 10.3 10.3 0 0 0-.6-3.5 9.2 9.2 0 0 0-1.7-2.9 7.5 7.5 0 0 0-2.6-2.1 8.1 8.1 0 0 0-6.6 0 9.2 9.2 0 0 0-2.6 2.1 8.7 8.7 0 0 0-1.6 3 9.9 9.9 0 0 0 0 6.8 10.8 10.8 0 0 0 1.6 3 10 10 0 0 0 2.6 2 7.3 7.3 0 0 0 3.3.8zm14.4 1.8V.2h9.3a5.5 5.5 0 0 1 2.6.6 8 8 0 0 1 2.1 1.5 6.5 6.5 0 0 1 1.3 2.3 5.3 5.3 0 0 1 .5 2.5 8.5 8.5 0 0 1-.3 2.3 12.4 12.4 0 0 1-1 2 5.7 5.7 0 0 1-1.6 1.5 6 6 0 0 1-2 .8l5.4 8.5h-2.4l-5.2-8.1h-6.5v8.1zm2.2-10.1h7.2a3.3 3.3 0 0 0 1.7-.4 3.8 3.8 0 0 0 1.4-1.1 8 8 0 0 0 .8-1.6 4.3 4.3 0 0 0 .4-1.9 5.8 5.8 0 0 0-.4-1.9 4.4 4.4 0 0 0-1-1.6 3.8 3.8 0 0 0-1.4-1.1 3.3 3.3 0 0 0-1.7-.4h-7zM380 4.3a6.1 6.1 0 0 0-2.4-1.7 8.6 8.6 0 0 0-3.6-.7 6.8 6.8 0 0 0-4.2 1.1 3.9 3.9 0 0 0-1.4 3 3.4 3.4 0 0 0 .4 1.6 2.3 2.3 0 0 0 1.1 1.1 6.7 6.7 0 0 0 1.9.9l2.7.6 3.2.9a9 9 0 0 1 2.4 1.1 6.4 6.4 0 0 1 1.6 1.7 6.2 6.2 0 0 1 .5 2.5 5.3 5.3 0 0 1-.6 2.6 5.2 5.2 0 0 1-1.7 1.9 6.4 6.4 0 0 1-2.5 1.1 14.7 14.7 0 0 1-3.2.4 13.2 13.2 0 0 1-8.8-3.2l1.1-1.8a8.7 8.7 0 0 0 1.4 1.2 10.4 10.4 0 0 0 1.8 1 14.1 14.1 0 0 0 2.2.6 9.3 9.3 0 0 0 2.4.2 7.8 7.8 0 0 0 4.1-.9 3.2 3.2 0 0 0 1.5-2.9 4.3 4.3 0 0 0-.4-1.7 3 3 0 0 0-1.3-1.2l-2.1-.9-2.9-.7-3-.9a6.5 6.5 0 0 1-2.2-1.1 3.7 3.7 0 0 1-1.3-1.5 5.2 5.2 0 0 1-.5-2.3 6 6 0 0 1 .6-2.7 6.2 6.2 0 0 1 1.6-2 8.3 8.3 0 0 1 2.5-1.2 10.4 10.4 0 0 1 3.2-.4 10 10 0 0 1 3.9.7 9.7 9.7 0 0 1 3.1 1.8zm21.5-2.2h-7.9v20.1h-2.1V2.1h-7.9V.2h17.9zm12.2 18.3a7.5 7.5 0 0 0 3.5-.8 6.3 6.3 0 0 0 2.2-2.1 8.3 8.3 0 0 0 1.1-2.9 18.4 18.4 0 0 0 .3-3.3V.2h2.2v11.1a18.6 18.6 0 0 1-.5 4.2 10.2 10.2 0 0 1-1.6 3.5 7.6 7.6 0 0 1-2.9 2.4 9.1 9.1 0 0 1-4.3.9 9.9 9.9 0 0 1-4.4-.9 8.4 8.4 0 0 1-2.8-2.5 8.6 8.6 0 0 1-1.6-3.5 19 19 0 0 1-.4-4.1V.2h2.1v11.1a18.4 18.4 0 0 0 .3 3.3 13.4 13.4 0 0 0 1.2 3 6.1 6.1 0 0 0 2.2 2 6.8 6.8 0 0 0 3.4.8zM428.1.2l7.9 19.3L443.8.2h2.3l-9.2 22H435l-9.2-22zm29.4.1h2.1l3.1 7.8 3.1-7.8h2.1L464 9.7l4.3 10L476.2.2h2.4l-9.3 22h-2l-4.6-10.9-4.6 10.9h-1.9l-9.3-22h2.3l8 19.5 4.2-10zm24-.1l7.3 9.6L496 .2h2.4l-8.5 11.1 8.2 10.9h-2.3l-7-9.3-7 9.3h-2.5l8.3-10.9L479.1.2zm19.9 0l7.2 11.8L515.9.2h2.3L509.7 14v8.2h-2.2v-8.3L499 .2zm18.3 20.3l15-18.4H520V.2h17.2v1.7l-14.8 18.4h14.8v1.9h-17.5zM8 71.5a5.1 5.1 0 0 1-2.2-.4A5.4 5.4 0 0 1 4 70a4.8 4.8 0 0 1-1.2-1.6 4.6 4.6 0 0 1-.4-2.1 5.4 5.4 0 0 1 .5-2.1 5.4 5.4 0 0 1 1.4-1.6 6.5 6.5 0 0 1 2.2-1.1 8.6 8.6 0 0 1 2.8-.4l2.1.2 1.9.5v-.9a3.3 3.3 0 0 0-.9-2.5 3.7 3.7 0 0 0-2.7-.9 7.5 7.5 0 0 0-2.6.5 10.5 10.5 0 0 0-2.5 1.4l-1.3-2.7a11.9 11.9 0 0 1 6.8-2.1 7.7 7.7 0 0 1 5.4 1.8 6.2 6.2 0 0 1 2 4.9v5.1c0 .4 0 .7.2.9a.8.8 0 0 0 .7.3v3.6l-1.8.2a3 3 0 0 1-1.8-.5 2.5 2.5 0 0 1-.8-1.4v-.9a6.6 6.6 0 0 1-2.6 2.1 8 8 0 0 1-3.4.8zm1.1-3a6.5 6.5 0 0 0 2-.4 3.6 3.6 0 0 0 1.5-1 1.5 1.5 0 0 0 .7-1.2V64l-1.6-.4-1.7-.2a4 4 0 0 0-2.6.8A2.1 2.1 0 0 0 6.3 66a2.3 2.3 0 0 0 .9 1.8 2.9 2.9 0 0 0 1.9.7zm21.5 3a6.7 6.7 0 0 1-3.3-.8 6.3 6.3 0 0 1-2.3-2.3v2.8h-3.7V48.5h4.2v9.3a5.7 5.7 0 0 1 2.3-2.3 5.8 5.8 0 0 1 3.3-.9 7.3 7.3 0 0 1 2.9.7 7.9 7.9 0 0 1 2.2 1.9 8.7 8.7 0 0 1 1.5 2.7 11.3 11.3 0 0 1 .5 3.2 8.8 8.8 0 0 1-.6 3.3 9.2 9.2 0 0 1-1.6 2.7 8.1 8.1 0 0 1-2.4 1.7 6.3 6.3 0 0 1-3 .7zM29.4 68a5.8 5.8 0 0 0 1.9-.4 4.9 4.9 0 0 0 1.4-1.1 3.8 3.8 0 0 0 .9-1.5 5.8 5.8 0 0 0 .3-1.9 5.7 5.7 0 0 0-.3-1.8 4.2 4.2 0 0 0-.9-1.6 4.5 4.5 0 0 0-1.3-1.1 3.3 3.3 0 0 0-1.7-.4 3.7 3.7 0 0 0-2.5.9 6 6 0 0 0-1.7 2.2v3.9a2.4 2.4 0 0 0 .6 1.1 2.8 2.8 0 0 0 1 .9l1.1.6zM40 63.1a8.8 8.8 0 0 1 .6-3.3 6.5 6.5 0 0 1 1.7-2.6 7.7 7.7 0 0 1 2.7-1.9 9.5 9.5 0 0 1 3.5-.7 8.5 8.5 0 0 1 4.6 1.2 8 8 0 0 1 2.8 3L51.8 60a2.9 2.9 0 0 0-1.4-1.3 3.2 3.2 0 0 0-1.9-.5 4.7 4.7 0 0 0-1.7.3l-1.3 1a5.1 5.1 0 0 0-.9 1.6 6 6 0 0 0-.3 2 5.8 5.8 0 0 0 .3 1.9 4.2 4.2 0 0 0 .9 1.6 3.6 3.6 0 0 0 1.4 1 3.7 3.7 0 0 0 3.7-.2 3.5 3.5 0 0 0 1.3-1.4l4.1 1.3a7.3 7.3 0 0 1-2.8 3 8.5 8.5 0 0 1-4.6 1.2 8.3 8.3 0 0 1-3.6-.7 7.5 7.5 0 0 1-2.7-1.8 9.5 9.5 0 0 1-1.7-2.7 9.1 9.1 0 0 1-.6-3.2zm25 8.4a6.7 6.7 0 0 1-3.1-.7 6.9 6.9 0 0 1-2.4-1.8 7.6 7.6 0 0 1-1.6-2.6 9.6 9.6 0 0 1-.6-3.3 8.8 8.8 0 0 1 .6-3.3 7.2 7.2 0 0 1 1.5-2.7 5.8 5.8 0 0 1 2.3-1.8 6.5 6.5 0 0 1 2.9-.7 5.7 5.7 0 0 1 3.2.9 6.3 6.3 0 0 1 2.3 2.3v-9.3h4.1v17.9a2 2 0 0 0 .2.9 1 1 0 0 0 .8.3v3.6l-1.8.2a2.8 2.8 0 0 1-1.8-.6 1.6 1.6 0 0 1-.8-1.4v-1a5.9 5.9 0 0 1-2.4 2.3 7.6 7.6 0 0 1-3.4.8zm1.1-3.5l1.2-.2 1.2-.6.9-.9a4.1 4.1 0 0 0 .7-1.1v-3.9a7.5 7.5 0 0 0-.7-1.2 5.2 5.2 0 0 0-1.1-1 3.5 3.5 0 0 0-1.2-.7l-1.2-.2a3.3 3.3 0 0 0-1.7.4 3.8 3.8 0 0 0-1.4 1.1 5.1 5.1 0 0 0-.9 1.6 5.7 5.7 0 0 0-.3 1.8A3.8 3.8 0 0 0 62 65a5.1 5.1 0 0 0 .9 1.6 7.1 7.1 0 0 0 1.4 1 5.8 5.8 0 0 0 1.8.4zm19.8 3.5a8.6 8.6 0 0 1-3.6-.7 8 8 0 0 1-2.7-1.8 8.6 8.6 0 0 1-2.3-5.9 8.7 8.7 0 0 1 .6-3.2 6.2 6.2 0 0 1 1.7-2.7 7.7 7.7 0 0 1 2.7-1.9 10.5 10.5 0 0 1 3.6-.7 9.5 9.5 0 0 1 3.5.7 7.7 7.7 0 0 1 2.7 1.9 7.8 7.8 0 0 1 1.7 2.6 8.7 8.7 0 0 1 .6 3.2 2.2 2.2 0 0 1-.1.8v.6H81.7a4.8 4.8 0 0 0 .5 1.7 3.8 3.8 0 0 0 .9 1.3l1.4.8a4 4 0 0 0 1.5.3 5.5 5.5 0 0 0 2.4-.7 3.3 3.3 0 0 0 1.5-1.6l3.5 1a7 7 0 0 1-2.8 3.1 9.1 9.1 0 0 1-4.7 1.2zm4.2-9.8a4.2 4.2 0 0 0-1.4-2.9 3.8 3.8 0 0 0-2.9-1.1l-1.5.2a3 3 0 0 0-1.3.9 2.7 2.7 0 0 0-.9 1.2 4.8 4.8 0 0 0-.5 1.7zm7.6 9.5V59h-2.1v-3.2h2.1v-1a7.3 7.3 0 0 1 1.5-4.8 4.9 4.9 0 0 1 4-1.8 8.8 8.8 0 0 1 4 1l-.9 3.1-1.1-.4-1.1-.2c-1.5 0-2.2 1-2.2 2.9v1.2h4V59h-4v12.2zm16.1.1a5.7 5.7 0 0 1-2.9-.7 5.8 5.8 0 0 1-2.3-1.8 7.6 7.6 0 0 1-1.6-2.6 10.6 10.6 0 0 1-.5-3.1 8.8 8.8 0 0 1 .6-3.3 8.9 8.9 0 0 1 1.5-2.7 6.9 6.9 0 0 1 2.4-1.8 7.8 7.8 0 0 1 3.1-.7 6 6 0 0 1 3.3.9 7.5 7.5 0 0 1 2.4 2.3v-2.9h3.6v15.5a6.6 6.6 0 0 1-.7 3.2 6.7 6.7 0 0 1-1.9 2.5 10.6 10.6 0 0 1-2.8 1.5 13.6 13.6 0 0 1-3.6.5 10 10 0 0 1-4.5-.9 8.4 8.4 0 0 1-3.1-2.5l2.2-2.2a7.4 7.4 0 0 0 5.4 2.5 5.7 5.7 0 0 0 1.8-.3 4.8 4.8 0 0 0 1.6-.8 7.6 7.6 0 0 0 1.1-1.4 6.6 6.6 0 0 0 .3-2.1v-2a5.6 5.6 0 0 1-2.2 2.1 6.9 6.9 0 0 1-3.2.8zm1.4-3.3a2.8 2.8 0 0 0 1.3-.3 2.7 2.7 0 0 0 1.2-.6l.9-.8a3 3 0 0 0 .6-1.1v-3.9a4.1 4.1 0 0 0-1.7-2.2 4 4 0 0 0-2.5-.9 3.1 3.1 0 0 0-1.7.4 5.3 5.3 0 0 0-1.4 1.1 4.8 4.8 0 0 0-.8 1.6 5.8 5.8 0 0 0-.3 1.9 5.2 5.2 0 0 0 .3 1.8 5.4 5.4 0 0 0 1 1.6 5 5 0 0 0 1.4 1 4.7 4.7 0 0 0 1.7.4zm27.1 3.2h-4.2v-9.1a4.6 4.6 0 0 0-.7-2.9 2.5 2.5 0 0 0-2-.9 2.7 2.7 0 0 0-1.2.3 3.7 3.7 0 0 0-1.2.7 4.7 4.7 0 0 0-1 1 6.1 6.1 0 0 0-.7 1.4v9.5h-4.1V48.5h4.1v9.4a6.6 6.6 0 0 1 5.8-3.3 4.8 4.8 0 0 1 2.6.6 4.4 4.4 0 0 1 1.6 1.4 6.5 6.5 0 0 1 .7 2.1 8.5 8.5 0 0 1 .3 2.3zm3.6-18.5v-4.2h4.1v4.2zm0 18.5V54.9h4.1v16.3z"/><path d="M152.5 77.3a8.5 8.5 0 0 1-2.3-.4 5.2 5.2 0 0 1-1.9-1.1l1.8-2.8a2.6 2.6 0 0 0 .9.5l1 .2a2 2 0 0 0 1.4-.6 2 2 0 0 0 .6-1.5V54.9h4.1v16.4a6.1 6.1 0 0 1-.4 2.4 6.2 6.2 0 0 1-1.2 1.9 5.7 5.7 0 0 1-1.8 1.2 5.9 5.9 0 0 1-2.2.5zm1.5-24.6v-4.2h4.1v4.2zm19 18.5l-4.7-7.1-2.2 2.2v4.9h-4.2V48.5h4.2v13.8l6.5-7.3h4.4l-6 6.8 6.4 9.4zm6.2-22.7h4.1V66a2.2 2.2 0 0 0 .5 1.4 1.7 1.7 0 0 0 1.2.5l.8-.2.9-.3.5 3.2a5.3 5.3 0 0 1-1.9.6 7.5 7.5 0 0 1-2 .2 4.5 4.5 0 0 1-3.1-1 4 4 0 0 1-1-3zm35.1 22.7h-4.2v-9.1a5.5 5.5 0 0 0-.6-2.9 2.3 2.3 0 0 0-1.9-.9 3.2 3.2 0 0 0-2.3 1 6 6 0 0 0-1.6 2.4v9.5h-4.1v-9.1a4.6 4.6 0 0 0-.7-2.9 2 2 0 0 0-1.8-.9 3.5 3.5 0 0 0-2.3.9 5.1 5.1 0 0 0-1.6 2.5v9.5H189V54.9h3.8v3a6.4 6.4 0 0 1 2.5-2.4 6.8 6.8 0 0 1 3.5-.9 4.9 4.9 0 0 1 3.2 1 4.2 4.2 0 0 1 1.4 2.5 7.8 7.8 0 0 1 2.5-2.6 7 7 0 0 1 3.5-.9 4.9 4.9 0 0 1 2.5.6 5.4 5.4 0 0 1 1.5 1.5 5.9 5.9 0 0 1 .7 2 19.5 19.5 0 0 1 .2 2.3zm18.7 0h-4.1v-9.1a5.4 5.4 0 0 0-.7-2.9 2.3 2.3 0 0 0-1.9-.9l-1.3.3a3.7 3.7 0 0 0-1.2.7 4.7 4.7 0 0 0-1 1 3.7 3.7 0 0 0-.7 1.4v9.5h-4.2V54.9h3.8v3a6.1 6.1 0 0 1 2.6-2.4 7.9 7.9 0 0 1 3.8-.9 4.6 4.6 0 0 1 2.5.6 3.6 3.6 0 0 1 1.5 1.5 4.3 4.3 0 0 1 .7 2 9.3 9.3 0 0 1 .2 2.3zm11.2.3a8.3 8.3 0 0 1-3.6-.7 8.5 8.5 0 0 1-2.7-1.8 9.5 9.5 0 0 1-1.7-2.7 8.7 8.7 0 0 1-.6-3.2 8.3 8.3 0 0 1 .6-3.2 7.3 7.3 0 0 1 1.7-2.7 8.8 8.8 0 0 1 2.7-1.9 10 10 0 0 1 3.6-.7 9.5 9.5 0 0 1 3.5.7 7.7 7.7 0 0 1 2.7 1.9 7.3 7.3 0 0 1 1.7 2.7 8.3 8.3 0 0 1 .6 3.2 8.7 8.7 0 0 1-.6 3.2 9.5 9.5 0 0 1-1.7 2.7 7.5 7.5 0 0 1-2.7 1.8 7.8 7.8 0 0 1-3.5.7zm-4.3-8.4a6.4 6.4 0 0 0 .3 2l.9 1.5a4.5 4.5 0 0 0 1.4 1 4.7 4.7 0 0 0 1.7.4 4.2 4.2 0 0 0 1.6-.4 3.6 3.6 0 0 0 1.4-1 4.2 4.2 0 0 0 .9-1.6 5.8 5.8 0 0 0 .3-1.9 6.4 6.4 0 0 0-.3-2 5.1 5.1 0 0 0-.9-1.6 5 5 0 0 0-1.4-1 4.1 4.1 0 0 0-1.6-.3 4.5 4.5 0 0 0-3.1 1.4l-.9 1.5a6.4 6.4 0 0 0-.3 2zm25.3 8.4a5.8 5.8 0 0 1-3.3-.9 5.7 5.7 0 0 1-2.3-2.3v9.5h-4.1V54.9h3.6v2.8a6.9 6.9 0 0 1 2.3-2.2 6.3 6.3 0 0 1 3.3-.9 7.3 7.3 0 0 1 3 .7 9.4 9.4 0 0 1 2.5 1.8 8.9 8.9 0 0 1 1.5 2.7 8.7 8.7 0 0 1 .6 3.2 11.4 11.4 0 0 1-.5 3.3 8.7 8.7 0 0 1-1.5 2.7 6.3 6.3 0 0 1-2.2 1.8 5.9 5.9 0 0 1-2.9.7zm-1.4-3.5a4.7 4.7 0 0 0 1.7-.4 5.3 5.3 0 0 0 1.4-1.1 4.8 4.8 0 0 0 .8-1.6 4.1 4.1 0 0 0 .4-1.9 5.8 5.8 0 0 0-.4-1.9 3.8 3.8 0 0 0-.9-1.5 3.1 3.1 0 0 0-1.5-1 3.3 3.3 0 0 0-1.7-.4 3.2 3.2 0 0 0-1.3.2 3 3 0 0 0-1.1.6 2.4 2.4 0 0 0-.9.8l-.7 1.1v3.8a5.8 5.8 0 0 0 1.7 2.3 3.6 3.6 0 0 0 2.5 1zm17.5 3.5a5.7 5.7 0 0 1-2.9-.7 6.3 6.3 0 0 1-2.2-1.8 7.2 7.2 0 0 1-1.5-2.7 8.8 8.8 0 0 1-.5-3.3 11.4 11.4 0 0 1 .5-3.3 9.5 9.5 0 0 1 1.6-2.6 6.4 6.4 0 0 1 2.5-1.8 7.3 7.3 0 0 1 3-.7 6.3 6.3 0 0 1 3.3.9 8 8 0 0 1 2.3 2.2v-2.8h3.6v17.9c0 .4.1.8.3.9s.4.3.8.3v3.6h-2.2l-1.2-.3a1.9 1.9 0 0 1-.9-.5l-.7-.9a2.5 2.5 0 0 1-.2-1.2v-6.4a5.6 5.6 0 0 1-2.4 2.4 6.6 6.6 0 0 1-3.2.8zm1.5-3.5a4.1 4.1 0 0 0 2.4-.8 7.9 7.9 0 0 0 1.7-1.9v-3.9l-.6-1.2-1-1.1-1.2-.7-1.3-.2a3.4 3.4 0 0 0-1.8.4 4.9 4.9 0 0 0-1.4 1.1l-.9 1.6a5.7 5.7 0 0 0-.3 1.8 5.4 5.4 0 0 0 .3 1.9l.9 1.6a7.1 7.1 0 0 0 1.4 1 5.8 5.8 0 0 0 1.8.4zm21.7-9.5a7.4 7.4 0 0 0-3.4.8 3.8 3.8 0 0 0-2.1 2v9.9h-4.2V54.9h3.8v3.5a5.6 5.6 0 0 1 1-1.5l1.3-1.2a4.6 4.6 0 0 1 1.4-.7l1.3-.3h.9zm8.4 13a11.2 11.2 0 0 1-4-.7 8.8 8.8 0 0 1-3.3-1.8l1.5-2.6A17.1 17.1 0 0 0 310 68a9.8 9.8 0 0 0 2.9.5 2.9 2.9 0 0 0 1.9-.5 1.4 1.4 0 0 0 .7-1.3 1.4 1.4 0 0 0-.8-1.3l-2.7-.9-2.7-.8a7.4 7.4 0 0 1-1.8-.9 3.5 3.5 0 0 1-1-1.2 4.1 4.1 0 0 1-.3-1.6 5.9 5.9 0 0 1 .4-2.3 5.4 5.4 0 0 1 1.4-1.6 4.9 4.9 0 0 1 2-1.1 6.9 6.9 0 0 1 2.5-.4 12.9 12.9 0 0 1 3.5.5 12.2 12.2 0 0 1 2.9 1.7l-1.7 2.6a7.5 7.5 0 0 0-2.4-1.4 6.2 6.2 0 0 0-2.3-.4 3.4 3.4 0 0 0-1.8.4 1.7 1.7 0 0 0-.7 1.4 1.4 1.4 0 0 0 .2.7l.5.5 1 .4 1.5.4 2.9.9 2 1a4.5 4.5 0 0 1 1.1 1.3 5.1 5.1 0 0 1-1.4 5.5 7.9 7.9 0 0 1-4.9 1.4zm19.1-1.2l-2.1.8a10.1 10.1 0 0 1-2.5.4 5.1 5.1 0 0 1-1.7-.3 2.4 2.4 0 0 1-1.3-.7 2.7 2.7 0 0 1-.9-1.2 4.8 4.8 0 0 1-.3-1.8v-9.4H321v-3.2h2.2v-5.2h4.1v5.2h3.4v3.2h-3.4v8a1.5 1.5 0 0 0 .5 1.2 1.8 1.8 0 0 0 1.1.3 2.5 2.5 0 0 0 1.2-.2l1-.3zm7.1 1.2a4.5 4.5 0 0 1-3.8-1.6 7.4 7.4 0 0 1-1.3-4.8V54.9h4.1v9.3c0 2.5.9 3.8 2.7 3.8a4.6 4.6 0 0 0 2.4-.8A5 5 0 0 0 345 65V54.9h4.2v11.5a2 2 0 0 0 .2.9 1 1 0 0 0 .8.3v3.6h-1.8a3 3 0 0 1-1.8-.5 2.4 2.4 0 0 1-.9-1.5v-1.1a6.7 6.7 0 0 1-2.7 2.6 9.6 9.6 0 0 1-3.9.8zm18.6-.3l-6-16.3h4.3l4.1 12.9 4.2-12.9h3.9l-6 16.3zM14.2 119.3v1.9H3.7v-1.9h4.4V106a5.9 5.9 0 0 1-.8.8l-1.4.8-1.5.6-1.3.3v-2.1a3.1 3.1 0 0 0 1.5-.4l1.6-.9 1.3-1 .6-.6h2.2v15.8zm2.1 1.9a7.5 7.5 0 0 1 .2-2.1 5.7 5.7 0 0 1 .7-2.2 8.7 8.7 0 0 1 1.5-2 9.1 9.1 0 0 1 2.7-1.8l1.9-1 1.8-1a5 5 0 0 0 1.3-1.2 2.5 2.5 0 0 0 .6-1.7 2.6 2.6 0 0 0-.3-1.1 2.5 2.5 0 0 0-.8-1 3.6 3.6 0 0 0-1.2-.8 4.8 4.8 0 0 0-1.8-.3 5.8 5.8 0 0 0-1.9.3l-1.4.7-1 .9-.7.7-1.4-1.5.8-.7 1.3-1 2-.9a10.9 10.9 0 0 1 2.6-.3 10.3 10.3 0 0 1 2.6.3 11.8 11.8 0 0 1 1.9 1.1 4.2 4.2 0 0 1 1.1 1.6 3.9 3.9 0 0 1 .4 1.8 3.8 3.8 0 0 1-.5 2.2 5.6 5.6 0 0 1-1.4 1.6 5.7 5.7 0 0 1-1.8 1.2l-1.6.8-2 1-1.7 1.2a4.4 4.4 0 0 0-1.2 1.5 3.5 3.5 0 0 0-.5 1.8h11.1v1.9zm25.4-7.3a4.9 4.9 0 0 1 3.3 1.8 6 6 0 0 1 1.2 3.8 6.6 6.6 0 0 1-.5 2.5 4.3 4.3 0 0 1-1.5 2 5.4 5.4 0 0 1-2.2 1.3 9.5 9.5 0 0 1-3 .4 9.1 9.1 0 0 1-4.1-.9 6.2 6.2 0 0 1-2.7-2.6l1.5-1.4a4.3 4.3 0 0 0 2 2.2 6.7 6.7 0 0 0 3.3.8 5.8 5.8 0 0 0 3.7-1.1 4 4 0 0 0 1.3-3.3 3.9 3.9 0 0 0-1.4-3.3 5.4 5.4 0 0 0-4-1.3h-.8V113h.9a4.9 4.9 0 0 0 3.6-1.1 3.4 3.4 0 0 0 1.3-2.8 4.3 4.3 0 0 0-.3-1.7 4 4 0 0 0-1-1.2 3.7 3.7 0 0 0-1.4-.7 5.7 5.7 0 0 0-1.8-.3 6.2 6.2 0 0 0-3.1.8 5.3 5.3 0 0 0-2 2.2l-1.4-1.3a6.5 6.5 0 0 1 1-1.5 9.1 9.1 0 0 1 1.6-1.1l1.9-.7a7.8 7.8 0 0 1 2.2-.3 7.5 7.5 0 0 1 2.6.4 10.3 10.3 0 0 1 2.1 1.1 4.6 4.6 0 0 1 1.3 1.8 5.6 5.6 0 0 1 .5 2.3 4.7 4.7 0 0 1-.3 1.7 4.8 4.8 0 0 1-.8 1.6 4.7 4.7 0 0 1-1.3 1.1 4.3 4.3 0 0 1-1.7.6zm17 11.2v-5.5H48.3v-1.9l11.1-14.2h1.4v14.2h2.7v1.9h-2.7v5.5zm-8.1-7.4h8.3v-10.9zm22.6-6.2a8.7 8.7 0 0 1 2.8.5 7 7 0 0 1 2.3 1.5 7.1 7.1 0 0 1 1.5 2.2 6.4 6.4 0 0 1 .6 2.8 7.3 7.3 0 0 1-.6 3 6.6 6.6 0 0 1-1.7 2.3 9.7 9.7 0 0 1-2.4 1.5 9.4 9.4 0 0 1-3 .5 7.8 7.8 0 0 1-2.2-.3 9.3 9.3 0 0 1-2-.8 7.3 7.3 0 0 1-1.6-1.4 6.6 6.6 0 0 1-1.2-1.7l1.4-1.1a6.1 6.1 0 0 0 2.3 2.5 6.3 6.3 0 0 0 3.3.9 5.4 5.4 0 0 0 2.2-.4 4.5 4.5 0 0 0 1.7-1.1 5.2 5.2 0 0 0 1.2-1.7 5.1 5.1 0 0 0 .4-2.2 4.5 4.5 0 0 0-.4-2 7.1 7.1 0 0 0-1.1-1.7 5.9 5.9 0 0 0-1.7-1 4.6 4.6 0 0 0-2.1-.4 6 6 0 0 0-2.7.6 5.5 5.5 0 0 0-2.1 1.9h-2c0-.1.1-.4.2-.9s.2-.9.3-1.5a17.7 17.7 0 0 1 .4-2c.1-.7.3-1.5.4-2.2s.8-3.7 1.2-5.8h10.6v1.9h-9l-1.6 7.9a6.9 6.9 0 0 1 2-1.3 7.1 7.1 0 0 1 2.6-.5zm25.6 2.4a7.3 7.3 0 0 1-.6 3 7.8 7.8 0 0 1-1.6 2.4 8.4 8.4 0 0 1-8.8 1.6 7.9 7.9 0 0 1-2.5-1.9 7.3 7.3 0 0 1-1.6-2.9 11.2 11.2 0 0 1-.6-3.8 25.5 25.5 0 0 1 .6-5.9 14 14 0 0 1 1.6-4.1 7.7 7.7 0 0 1 2.6-2.5 7.3 7.3 0 0 1 3.3-.8 7.7 7.7 0 0 1 4 1.1 7 7 0 0 1 2.6 3l-1.4 1.2a5.5 5.5 0 0 0-2-2.5 5.7 5.7 0 0 0-3.2-.9 5.4 5.4 0 0 0-2.5.6 6.8 6.8 0 0 0-1.9 1.9 10.4 10.4 0 0 0-1.2 3 17 17 0 0 0-.5 4.1 6.2 6.2 0 0 1 2.4-2.9 6.1 6.1 0 0 1 3.8-1.1 7.2 7.2 0 0 1 2.9.6 7.5 7.5 0 0 1 2.4 1.5 7.8 7.8 0 0 1 1.6 2.4 7.2 7.2 0 0 1 .6 2.9zm-7.7 5.7a5.4 5.4 0 0 0 2.2-.4 5.7 5.7 0 0 0 1.8-1.2 8 8 0 0 0 1.3-1.9 5.4 5.4 0 0 0 .4-2.2 4.2 4.2 0 0 0-.5-2.2 5.7 5.7 0 0 0-1.2-1.8 7.1 7.1 0 0 0-1.8-1.2 5.9 5.9 0 0 0-2.3-.5 5.9 5.9 0 0 0-2.2.5 5.7 5.7 0 0 0-1.8 1.2 5.9 5.9 0 0 0-1.3 1.8 5.4 5.4 0 0 0-.4 2.2 5.4 5.4 0 0 0 .5 2.2 5.7 5.7 0 0 0 1.2 1.8 5 5 0 0 0 1.9 1.3 5.1 5.1 0 0 0 2.2.4zm22-14.6h-11.9v-1.9h15.3l-11.2 22h-2.4zm20.5 10.1a5.8 5.8 0 0 1-.6 2.6 6.5 6.5 0 0 1-1.7 2 7 7 0 0 1-2.4 1.3 10.3 10.3 0 0 1-3 .4 7.3 7.3 0 0 1-3-.5 5.7 5.7 0 0 1-2.4-1.4 7.4 7.4 0 0 1-1.6-2 5.4 5.4 0 0 1-.2-4.5 8.6 8.6 0 0 1 1-1.6 5.3 5.3 0 0 1 1.4-1.2 7.9 7.9 0 0 1 1.6-.8l-1.4-.8a5.2 5.2 0 0 1-1.1-1 5.7 5.7 0 0 1-.8-1.3 4 4 0 0 1-.3-1.5 4.8 4.8 0 0 1 .6-2.4 6.9 6.9 0 0 1 1.6-1.8 9.1 9.1 0 0 1 2.2-1.1l2.5-.3a10.7 10.7 0 0 1 2.5.3 9.1 9.1 0 0 1 2.2 1.1 6.5 6.5 0 0 1 1.6 1.7 5 5 0 0 1 .6 2.4 4.1 4.1 0 0 1-.3 1.6l-.8 1.3a5.8 5.8 0 0 1-1.2 1l-1.4.8 1.7.8a7.2 7.2 0 0 1 2.4 2.9 6.4 6.4 0 0 1 .3 2zm-2.1-.2a4.6 4.6 0 0 0-.5-2 5.7 5.7 0 0 0-1.3-1.4 5.1 5.1 0 0 0-1.8-.9 6.9 6.9 0 0 0-2-.3 6.3 6.3 0 0 0-1.9.3 5.1 5.1 0 0 0-1.8.9 5.7 5.7 0 0 0-1.2 1.5 4.1 4.1 0 0 0-.5 1.9 4.2 4.2 0 0 0 .5 2 4.4 4.4 0 0 0 1.3 1.4 5.1 5.1 0 0 0 1.8.9 6.3 6.3 0 0 0 1.9.3 6.4 6.4 0 0 0 2-.3 6.1 6.1 0 0 0 1.8-.9 4.4 4.4 0 0 0 1.2-1.5 3.8 3.8 0 0 0 .5-1.9zm-10.3-10a3 3 0 0 0 .5 1.6 2.9 2.9 0 0 0 1.1 1.1 3.6 3.6 0 0 0 1.5.8l1.7.2 1.6-.2a4.8 4.8 0 0 0 1.6-.8 4.3 4.3 0 0 0 1.1-1.2 3.4 3.4 0 0 0 0-3.2 3.5 3.5 0 0 0-1-1.1 4.8 4.8 0 0 0-1.6-.8l-1.8-.2-1.7.2a5.3 5.3 0 0 0-1.5.8 3.2 3.2 0 0 0-1.1 1.2 4.2 4.2 0 0 0-.4 1.6zm15.1 6.1a7.2 7.2 0 0 1 .6-2.9 8.1 8.1 0 0 1 1.7-2.4 6.3 6.3 0 0 1 2.4-1.6 8.1 8.1 0 0 1 3.1-.6 8.3 8.3 0 0 1 3.2.6 6.4 6.4 0 0 1 2.5 1.8 9 9 0 0 1 1.6 2.9 12.3 12.3 0 0 1 .6 3.9 24.6 24.6 0 0 1-.6 5.8 13.6 13.6 0 0 1-1.6 4.2 7.7 7.7 0 0 1-2.6 2.5 7.3 7.3 0 0 1-3.3.8 7.4 7.4 0 0 1-3.9-1.1 7.7 7.7 0 0 1-2.7-3l1.4-1.3a5.3 5.3 0 0 0 2.1 2.6 5.4 5.4 0 0 0 3.1.9 4.5 4.5 0 0 0 2.5-.7 5.4 5.4 0 0 0 1.9-1.8 8.2 8.2 0 0 0 1.2-3 17 17 0 0 0 .5-4.1 6.2 6.2 0 0 1-2.4 2.9 6.7 6.7 0 0 1-3.7 1.1 7.3 7.3 0 0 1-3-.6 7.8 7.8 0 0 1-2.4-1.6 6.3 6.3 0 0 1-1.6-2.3 7.7 7.7 0 0 1-.6-3zm7.8-5.7a5.4 5.4 0 0 0-2.2.5 7.6 7.6 0 0 0-1.9 1.2 5.7 5.7 0 0 0-1.2 1.8 5.9 5.9 0 0 0-.5 2.2 5.9 5.9 0 0 0 .5 2.3 7.1 7.1 0 0 0 1.2 1.8 7.6 7.6 0 0 0 1.9 1.2 6.2 6.2 0 0 0 4.4 0 7.6 7.6 0 0 0 1.9-1.2 7.1 7.1 0 0 0 1.2-1.8 5.9 5.9 0 0 0 .4-2.3 5.7 5.7 0 0 0-.4-2.2 5.5 5.5 0 0 0-1.3-1.8 5.7 5.7 0 0 0-1.8-1.2 5.4 5.4 0 0 0-2.2-.5zm26.5 6.8a15.2 15.2 0 0 1-.5 3.8 9.2 9.2 0 0 1-1.7 2.9 7.6 7.6 0 0 1-2.4 2 6.7 6.7 0 0 1-3.1.7 6.2 6.2 0 0 1-3.1-.7 6.9 6.9 0 0 1-2.5-2 9 9 0 0 1-1.6-2.9 12.3 12.3 0 0 1 0-7.6 10.8 10.8 0 0 1 1.6-3 6.7 6.7 0 0 1 2.5-1.9 6.2 6.2 0 0 1 3.1-.7 6.7 6.7 0 0 1 3.1.7 7.2 7.2 0 0 1 2.4 1.9 11.1 11.1 0 0 1 1.7 3 15.2 15.2 0 0 1 .5 3.8zm-2.1 0a9.5 9.5 0 0 0-.4-3 7.7 7.7 0 0 0-1.2-2.4 6.5 6.5 0 0 0-1.8-1.5 4.3 4.3 0 0 0-2.2-.6 4.8 4.8 0 0 0-2.4.6 8 8 0 0 0-1.7 1.5 7.7 7.7 0 0 0-1.2 2.4 11.5 11.5 0 0 0 0 6 9 9 0 0 0 1.2 2.4 8 8 0 0 0 1.7 1.5 6 6 0 0 0 2.4.5 5.4 5.4 0 0 0 2.2-.5 6.5 6.5 0 0 0 1.8-1.5 9 9 0 0 0 1.2-2.4 9.5 9.5 0 0 0 .4-3z"/></svg>