<svg xmlns="http://www.w3.org/2000/svg" width="509.7" height="121.7" viewBox="0 0 509.7 121.7"><path d="M14.3 16.6H5.1L3 22.4H0L8.4.3H11l8.4 22.1h-3zM6 14.2h7.5L9.7 3.9zm16.4 8.2V.3h7.2A8.3 8.3 0 0 1 35 1.8a5.3 5.3 0 0 1 1.8 4.4 4.4 4.4 0 0 1-.9 2.7 6.5 6.5 0 0 1-2.4 1.9 4.3 4.3 0 0 1 2.8 1.9 5.2 5.2 0 0 1 1.1 3.3 6.3 6.3 0 0 1-1.9 4.7 8.2 8.2 0 0 1-5.5 1.7zm2.9-12.7h4.4a4.7 4.7 0 0 0 3-.9 3.2 3.2 0 0 0 1.2-2.6 3.2 3.2 0 0 0-1.1-2.7 5.6 5.6 0 0 0-3.2-.8h-4.3zm0 2.3v8h4.8a4.8 4.8 0 0 0 3.2-1.1 3.6 3.6 0 0 0 1.2-2.9c0-2.6-1.5-4-4.4-4zm32.6 3.4a8.2 8.2 0 0 1-2.6 5.4 8.6 8.6 0 0 1-5.8 1.9 7.9 7.9 0 0 1-6.2-2.8 11.3 11.3 0 0 1-2.4-7.5v-2.2A13.3 13.3 0 0 1 42 4.8a9.9 9.9 0 0 1 3.1-3.6A9.1 9.1 0 0 1 49.8 0a7.8 7.8 0 0 1 5.6 2 7.7 7.7 0 0 1 2.5 5.4H55a6.1 6.1 0 0 0-1.7-3.8 4.8 4.8 0 0 0-3.5-1.2 5.4 5.4 0 0 0-4.4 2 10.1 10.1 0 0 0-1.5 5.9v2.1a10.2 10.2 0 0 0 1.5 5.8 4.8 4.8 0 0 0 4.1 2.1 5.9 5.9 0 0 0 3.8-1.1 6.4 6.4 0 0 0 1.7-3.8zm4 7V.3h6.2a9.7 9.7 0 0 1 5.1 1.3 7.9 7.9 0 0 1 3.4 3.6 11.9 11.9 0 0 1 1.2 5.4V12a12 12 0 0 1-1.2 5.5 9 9 0 0 1-3.4 3.6 12.1 12.1 0 0 1-5.2 1.3zm2.9-19.7V20h3a6.8 6.8 0 0 0 5.3-2.1 9 9 0 0 0 1.9-6v-1.3a8.6 8.6 0 0 0-1.8-5.8 6.3 6.3 0 0 0-5-2.1zm29.9 9.5h-9.6V20h11.1v2.4h-14V.3h13.9v2.4h-11v7.1h9.6zm17.3.4h-9.2v9.8h-2.9V.3h13.6v2.4h-10.7v7.5h9.2zm21.3 6.9a8.3 8.3 0 0 1-3.1 2.4 13.6 13.6 0 0 1-4.7.8 9.6 9.6 0 0 1-4.8-1.3 7.5 7.5 0 0 1-3.2-3.6 11.9 11.9 0 0 1-1.2-5.4v-1.9a12.1 12.1 0 0 1 2.3-7.8 8.2 8.2 0 0 1 6.6-2.7 8.1 8.1 0 0 1 5.5 1.8 7.4 7.4 0 0 1 2.6 5h-2.9c-.6-3-2.3-4.4-5.2-4.4a5.4 5.4 0 0 0-4.5 2 10.2 10.2 0 0 0-1.5 6v1.8a9.6 9.6 0 0 0 1.7 5.9 5.4 5.4 0 0 0 4.6 2.2 8.8 8.8 0 0 0 2.9-.4 3.7 3.7 0 0 0 2-1.2v-4.9h-5.1v-2.4h8zm21.8 2.9h-2.9V12.2H141v10.2h-2.9V.3h2.9v9.5h11.2V.3h2.9zm8.3 0h-2.9V.3h2.9zM177.9.3h3v15.6a6.9 6.9 0 0 1-1.9 5 8.3 8.3 0 0 1-10.2.1 5.8 5.8 0 0 1-1.9-4.7h2.9a4 4 0 0 0 1.1 2.9 4.1 4.1 0 0 0 3 1.1 3.7 3.7 0 0 0 2.9-1.2 4.3 4.3 0 0 0 1.1-3.1zm13.5 11.8l-2.7 2.8v7.5h-2.9V.3h2.9v10.9L198.5.3h3.5l-8.6 9.7 9.3 12.4h-3.5zm16.8 7.9h10.4v2.4h-13.3V.3h2.9zM225.7.3l7.2 18 7.2-18h3.8v22.1H241v-8.6l.3-9.3-7.3 17.9h-2.2l-7.2-17.9.3 9.3v8.6H222V.3zM266 22.4h-2.9L252 5.4v17h-3V.3h3l11.1 17.1V.3h2.9zM288.1 12a12.6 12.6 0 0 1-1.1 5.7 8.1 8.1 0 0 1-3.1 3.7 8.8 8.8 0 0 1-9.2 0 8.9 8.9 0 0 1-3.2-3.7 13.1 13.1 0 0 1-1.1-5.5v-1.5a14.5 14.5 0 0 1 1.1-5.7 8.7 8.7 0 0 1 3.1-3.7 8.2 8.2 0 0 1 4.6-1.3 8.1 8.1 0 0 1 4.7 1.3A7.6 7.6 0 0 1 287 5a12.6 12.6 0 0 1 1.1 5.7zm-2.9-1.4a10.2 10.2 0 0 0-1.5-6 5.4 5.4 0 0 0-4.5-2.1 5.2 5.2 0 0 0-4.3 2.1 9.1 9.1 0 0 0-1.6 5.8V12c0 2.6.5 4.6 1.6 6a5.5 5.5 0 0 0 8.7.1c1.1-1.3 1.6-3.3 1.6-5.8zm10.2 3.1v8.7h-2.9V.3h8.1a8 8 0 0 1 5.7 1.9 5.9 5.9 0 0 1 2 4.8 6.1 6.1 0 0 1-2 5 8.6 8.6 0 0 1-5.7 1.7zm0-2.4h5.2a4.9 4.9 0 0 0 3.6-1.1 3.9 3.9 0 0 0 1.2-3.1 4.4 4.4 0 0 0-1.2-3.2 4.7 4.7 0 0 0-3.4-1.2h-5.4zm33.5.7a12.9 12.9 0 0 1-1 5.5 8.3 8.3 0 0 1-2.9 3.7l4 3.1-2 1.8-4.7-3.7a8.5 8.5 0 0 1-2.3.3 9.1 9.1 0 0 1-4.6-1.3 8.7 8.7 0 0 1-3.1-3.7 13.1 13.1 0 0 1-1.2-5.5v-1.5a12.9 12.9 0 0 1 1.2-5.7 8.1 8.1 0 0 1 3.1-3.7A8 8 0 0 1 320 0a8.3 8.3 0 0 1 4.7 1.3 8.1 8.1 0 0 1 3.1 3.7 14 14 0 0 1 1.1 5.6zm-2.9-1.4c0-2.6-.5-4.6-1.6-6a5.1 5.1 0 0 0-4.4-2.1 5 5 0 0 0-4.3 2.1 9.1 9.1 0 0 0-1.6 5.8V12a10.2 10.2 0 0 0 1.5 6 5.2 5.2 0 0 0 4.4 2.2 5.1 5.1 0 0 0 4.4-2.1 9.5 9.5 0 0 0 1.6-5.8zm15.5 2.8h-5.2v9h-2.9V.3h7.3a8.6 8.6 0 0 1 5.7 1.7 6.2 6.2 0 0 1 2 4.9 6.1 6.1 0 0 1-1.1 3.6 6.7 6.7 0 0 1-3.1 2.3l5.2 9.4v.2h-3.1zm-5.2-2.3h4.5a4.7 4.7 0 0 0 3.4-1.2 3.5 3.5 0 0 0 1.3-3 4 4 0 0 0-1.2-3.1 5.3 5.3 0 0 0-3.6-1.1h-4.4zm22.7 1.4a14.8 14.8 0 0 1-5.5-2.6 5.4 5.4 0 0 1-1.7-3.9 5.3 5.3 0 0 1 2.1-4.3 8.5 8.5 0 0 1 5.4-1.7 9.1 9.1 0 0 1 4.1.9 6.4 6.4 0 0 1 2.7 2.4 5.9 5.9 0 0 1 1 3.4h-2.9a3.9 3.9 0 0 0-1.3-3.2 6.5 6.5 0 0 0-6.9-.2 3.3 3.3 0 0 0-1.2 2.7 2.8 2.8 0 0 0 1.1 2.2 11.9 11.9 0 0 0 3.9 1.8 14.8 14.8 0 0 1 4.3 1.7 6.7 6.7 0 0 1 2.3 2.1 5.8 5.8 0 0 1 .8 3 5 5 0 0 1-2.1 4.2 8.9 8.9 0 0 1-5.6 1.7 10.7 10.7 0 0 1-4.3-.9 7.3 7.3 0 0 1-3-2.4 6 6 0 0 1-1.1-3.4h3a3.8 3.8 0 0 0 1.4 3.1 6.2 6.2 0 0 0 4 1.2 5.2 5.2 0 0 0 3.5-1 2.9 2.9 0 0 0 1.2-2.5 2.8 2.8 0 0 0-1.1-2.5 13.5 13.5 0 0 0-4.1-1.8zm27.1-9.8H379v19.7h-2.9V2.7h-7V.3h17zM404.9.3v15a6.9 6.9 0 0 1-1.9 5.1 7.8 7.8 0 0 1-5.3 2.2h-.8a8.5 8.5 0 0 1-5.8-2 7 7 0 0 1-2.1-5.4V.3h2.8v14.9a5.2 5.2 0 0 0 1.4 3.8 5.2 5.2 0 0 0 3.7 1.3 5.4 5.4 0 0 0 3.8-1.3 4.9 4.9 0 0 0 1.3-3.7V.3zm11.9 18.2L423.1.3h3.2l-8.2 22.1h-2.6L407.4.3h3.2zm17.2-3.1l.4 2.9.7-2.6L439.4.3h2.5l4.2 15.4.6 2.7.5-3L450.6.3h3l-5.4 22.1h-2.6L441 6.3l-.3-1.7-.4 1.7-4.7 16.1H433L427.6.3h2.9zm30-6.6l5.3-8.5h3.4l-7 10.9 7.2 11.2h-3.5l-5.4-8.6-5.5 8.6h-3.4l7.1-11.2L455.3.3h3.4zm19 2.6L488.7.3h3.3l-7.6 13.8v8.3h-2.9v-8.3L473.9.3h3.3zm14 8.6h12.7v2.4h-16.1v-2.2l12.1-17.5h-11.9V.3h15.4v2.1zM12.8 71.4a5.3 5.3 0 0 1-.5-1.5 5.1 5.1 0 0 1-4.1 1.8 5.9 5.9 0 0 1-4-1.4 4.9 4.9 0 0 1 .3-7.5c1.3-1 3.2-1.4 5.6-1.5h2v-.9a3.2 3.2 0 0 0-.5-1.8 2.4 2.4 0 0 0-1.9-.7 2.9 2.9 0 0 0-1.7.5 2.1 2.1 0 0 0-.7 1.5H3a4.7 4.7 0 0 1 .8-2.6 5.3 5.3 0 0 1 2.5-1.9 8.6 8.6 0 0 1 3.6-.7 6.9 6.9 0 0 1 4.8 1.5 5.2 5.2 0 0 1 1.8 4.3v7.1a8 8 0 0 0 .7 3.5v.3zm-3.7-3.1a3.4 3.4 0 0 0 1.8-.4 2.3 2.3 0 0 0 1.2-1.2v-2.8h-1.6c-2.2 0-3.4.8-3.5 2.3v.2a1.8 1.8 0 0 0 .6 1.4 2.3 2.3 0 0 0 1.5.5zm25.6-5a10.4 10.4 0 0 1-1.7 6.2 5.7 5.7 0 0 1-4.7 2.2 5.2 5.2 0 0 1-4.3-2.1l-.2 1.8h-3.9V48.1h4.4v8.3a5.1 5.1 0 0 1 4-1.7 5.6 5.6 0 0 1 4.7 2.2 10 10 0 0 1 1.7 6.2zm-4.4-.3a6.4 6.4 0 0 0-.8-3.6 2.6 2.6 0 0 0-2.4-1.2 2.9 2.9 0 0 0-2.8 1.7v6.5a2.8 2.8 0 0 0 2.9 1.7A2.8 2.8 0 0 0 30 66a10.5 10.5 0 0 0 .3-3zm13.9 5.1a2.9 2.9 0 0 0 1.9-.6 2.5 2.5 0 0 0 .8-1.8H51a5.3 5.3 0 0 1-.9 3 5.6 5.6 0 0 1-2.4 2.2 8.2 8.2 0 0 1-3.5.8 7.2 7.2 0 0 1-5.5-2.3 9 9 0 0 1-2-6.1V63a8.5 8.5 0 0 1 2-6.1 6.9 6.9 0 0 1 5.5-2.2 6.5 6.5 0 0 1 4.9 1.7 6 6 0 0 1 1.9 4.7h-4.1a2.9 2.9 0 0 0-.8-2.1 2.6 2.6 0 0 0-2-.8 2.8 2.8 0 0 0-2.3 1.1 7 7 0 0 0-.7 3.6v.5a6.5 6.5 0 0 0 .7 3.6 2.6 2.6 0 0 0 2.4 1.1zm8.7-5.1a9.8 9.8 0 0 1 1.7-6.1 5.5 5.5 0 0 1 4.7-2.2 4.8 4.8 0 0 1 3.9 1.8v-8.4h4.4v23.3h-3.9l-.2-1.8a5.2 5.2 0 0 1-4.3 2.1 5.6 5.6 0 0 1-4.6-2.3c-1.2-1.5-1.7-3.6-1.7-6.4zm4.3.4a6.7 6.7 0 0 0 .8 3.5 3.1 3.1 0 0 0 5.2-.5v-6.5a2.9 2.9 0 0 0-2.8-1.7c-2.1 0-3.2 1.7-3.2 5.2zm21.4 8.3a8.4 8.4 0 0 1-5.9-2.2 8.1 8.1 0 0 1-2.3-5.9v-.5a9.2 9.2 0 0 1 1-4.4 6.6 6.6 0 0 1 2.7-3 7.4 7.4 0 0 1 4-1 6.9 6.9 0 0 1 5.3 2.1c1.3 1.4 1.9 3.4 1.9 6v1.8H74.9a4 4 0 0 0 1.2 2.6 4.4 4.4 0 0 0 2.7.9 4.8 4.8 0 0 0 4-1.8l2.2 2.4a7.3 7.3 0 0 1-2.7 2.2 9.1 9.1 0 0 1-3.7.8zm-.5-13.5a2.9 2.9 0 0 0-2.2.9 5.2 5.2 0 0 0-1 2.5H81v-.3a3.2 3.2 0 0 0-.8-2.3 2.9 2.9 0 0 0-2.1-.8zM89 71.4V58.2h-2.5V55H89v-1.4a5.4 5.4 0 0 1 1.6-4.3 6 6 0 0 1 4.4-1.5l2.2.3v3.4l-1.4-.2a2.1 2.1 0 0 0-2.4 2.4V55h3.2v3.2h-3.2v13.2zm9.3-8.4a9.3 9.3 0 0 1 1.8-6 5.6 5.6 0 0 1 4.8-2.3 5.2 5.2 0 0 1 4.2 1.8l.2-1.5h3.9v15.8a7.9 7.9 0 0 1-.9 3.8 7.3 7.3 0 0 1-2.8 2.4 10.3 10.3 0 0 1-4.1.8 8.4 8.4 0 0 1-3.5-.7 5.9 5.9 0 0 1-2.6-1.9l1.9-2.6a5.2 5.2 0 0 0 4 1.8 4 4 0 0 0 2.7-.9 3.7 3.7 0 0 0 1-2.7V70a5.4 5.4 0 0 1-4 1.7 5.9 5.9 0 0 1-4.8-2.3 9.9 9.9 0 0 1-1.8-6.2zm4.3.4a6.1 6.1 0 0 0 .9 3.5 3 3 0 0 0 2.5 1.2 3.2 3.2 0 0 0 2.9-1.5v-6.9a3.2 3.2 0 0 0-2.9-1.5 3.1 3.1 0 0 0-2.5 1.3 7 7 0 0 0-.9 3.9zm18.3-6.6a5.4 5.4 0 0 1 4.4-2.1c3.5 0 5.3 2 5.4 6.2v10.5h-4.4V61a2.9 2.9 0 0 0-.6-2.1 2.8 2.8 0 0 0-2-.7 3 3 0 0 0-2.8 1.5v11.7h-4.4V48.1h4.4zm13-6.1a2.4 2.4 0 0 1 .7-1.6 2.4 2.4 0 0 1 1.8-.6 2.8 2.8 0 0 1 1.8.6 2.3 2.3 0 0 1 .6 1.6 2.5 2.5 0 0 1-.6 1.7 3 3 0 0 1-3.6 0 2.6 2.6 0 0 1-.7-1.7zm4.7 20.7h-4.4V55h4.4zm8.2-16.4v17.3a5.6 5.6 0 0 1-1.4 4.2 5.5 5.5 0 0 1-4.2 1.5l-2.1-.3v-3.4h1.4c1.3 0 1.9-.7 1.9-2.1V55zm-4.7-4.3a2 2 0 0 1 .7-1.6 2.4 2.4 0 0 1 1.7-.6 2.4 2.4 0 0 1 1.8.6 2 2 0 0 1 .7 1.6 2.2 2.2 0 0 1-.7 1.7 2.4 2.4 0 0 1-1.8.6 2.4 2.4 0 0 1-1.7-.6 2.2 2.2 0 0 1-.7-1.7zm14.1 14.1l-1.6 1.6v5h-4.3V48.1h4.3V61l.9-1.1 4.2-4.9h5.2l-5.9 6.8 6.5 9.6h-5.1zm15.2 6.6h-4.3V48.1h4.3zm7.8-16.4v1.8a5.8 5.8 0 0 1 4.7-2.1 4.4 4.4 0 0 1 4.4 2.5 5.4 5.4 0 0 1 4.9-2.5 4.7 4.7 0 0 1 3.9 1.5 7.1 7.1 0 0 1 1.3 4.7v10.5h-4.3V60.9a2.8 2.8 0 0 0-.6-2 2.2 2.2 0 0 0-1.9-.7 2.8 2.8 0 0 0-2.7 1.9v11.3h-4.4V60.9a2.8 2.8 0 0 0-.6-2 2.1 2.1 0 0 0-1.9-.7 2.9 2.9 0 0 0-2.7 1.6v11.6H175V55zm26.7 0l.2 1.9a5.5 5.5 0 0 1 4.7-2.2 5 5 0 0 1 3.9 1.5 7.2 7.2 0 0 1 1.3 4.6v10.6h-4.4V60.9a2.7 2.7 0 0 0-.6-2 2.4 2.4 0 0 0-2-.7 3.1 3.1 0 0 0-2.8 1.6v11.6h-4.4V55zm12.7 8a9.7 9.7 0 0 1 .9-4.3 7.9 7.9 0 0 1 2.7-3 8 8 0 0 1 4.1-1 7.3 7.3 0 0 1 5.5 2 8.2 8.2 0 0 1 2.3 5.5v1.1a8.7 8.7 0 0 1-2.1 6.1 8.1 8.1 0 0 1-11.3 0 8.8 8.8 0 0 1-2.1-6.2zm4.4.3a6 6 0 0 0 .9 3.6 2.8 2.8 0 0 0 2.5 1.2 3 3 0 0 0 2.5-1.2 6.6 6.6 0 0 0 .9-3.9 5.8 5.8 0 0 0-.9-3.5 2.9 2.9 0 0 0-2.6-1.3 2.7 2.7 0 0 0-2.4 1.2 7 7 0 0 0-.9 3.9zm28.6 0a10.3 10.3 0 0 1-1.7 6.1 5.7 5.7 0 0 1-4.7 2.3 5 5 0 0 1-4-1.8v7.8h-4.4V55h4.1v1.6a5.2 5.2 0 0 1 4.2-1.9 5.5 5.5 0 0 1 4.7 2.2 10.4 10.4 0 0 1 1.7 6.2zm-4.4-.3a6.7 6.7 0 0 0-.8-3.5 2.5 2.5 0 0 0-2.4-1.3 3 3 0 0 0-2.8 1.6v6.7a2.9 2.9 0 0 0 2.9 1.6c2.1 0 3.1-1.7 3.1-5.1zm6.4 0a10 10 0 0 1 1.7-6.1 5.8 5.8 0 0 1 4.8-2.2 4.7 4.7 0 0 1 4.1 2l.3-1.7h3.9v22.7H264V70a5.1 5.1 0 0 1-4 1.7 5.5 5.5 0 0 1-4.6-2.3 10 10 0 0 1-1.8-6.4zm4.4.3a6.9 6.9 0 0 0 .8 3.6 2.7 2.7 0 0 0 2.3 1.2 3 3 0 0 0 2.9-1.6v-6.8a3 3 0 0 0-2.8-1.5 2.9 2.9 0 0 0-2.4 1.2 7.6 7.6 0 0 0-.8 3.9zm23-4.2h-1.5c-1.7 0-2.8.5-3.3 1.6v10.7h-4.4V55h4.2v1.9a4 4 0 0 1 3.6-2.2 3.2 3.2 0 0 1 1.4.2zm11 7.7a1.2 1.2 0 0 0-.8-1.2 11.3 11.3 0 0 0-2.5-.9c-3.9-.8-5.9-2.4-5.9-4.9a4.6 4.6 0 0 1 1.8-3.7 7.8 7.8 0 0 1 4.8-1.4 8.7 8.7 0 0 1 5 1.4 4.8 4.8 0 0 1 1.8 3.9h-4.4a2.1 2.1 0 0 0-.6-1.6 2.5 2.5 0 0 0-1.9-.6 2.9 2.9 0 0 0-1.7.5 1.5 1.5 0 0 0-.6 1.3 1.5 1.5 0 0 0 .7 1.1 7.6 7.6 0 0 0 2.3.8l2.8.7c2.3.9 3.5 2.4 3.5 4.4a4.4 4.4 0 0 1-2 3.7 8.1 8.1 0 0 1-4.9 1.4 8.7 8.7 0 0 1-3.7-.8 6.2 6.2 0 0 1-2.5-2 4.7 4.7 0 0 1-.9-2.8h4.2a2.2 2.2 0 0 0 .8 1.8 3.8 3.8 0 0 0 2.2.7 3.6 3.6 0 0 0 1.9-.5 1.6 1.6 0 0 0 .6-1.3zm12.3-15.9V55h2.8v3.2h-2.8v8.2a1.7 1.7 0 0 0 .4 1.3 2 2 0 0 0 1.3.4h1.3v3.3a11.7 11.7 0 0 1-2.7.4c-3 0-4.6-1.6-4.6-4.7v-8.9h-2.4V55h2.4v-4.1zm15.1 18.8a5.6 5.6 0 0 1-4.5 2 4.8 4.8 0 0 1-4-1.6 6.3 6.3 0 0 1-1.4-4.4V55h4.3v10.6c0 1.7.8 2.5 2.4 2.5a3 3 0 0 0 3-1.5V55h4.4v16.4h-4.1zm13.7-3.7l3-11h4.6l-5.5 16.4H331L325.4 55h4.6zM12.6 121.4H9.8v-18.7l-5.6 2.1v-2.6l8-3h.4zm22.7 0H20.8v-2.1l7.7-8.4a18.3 18.3 0 0 0 2.3-3.2 5.4 5.4 0 0 0 .6-2.5 3.9 3.9 0 0 0-1-2.8 3.8 3.8 0 0 0-2.8-1.1 4.1 4.1 0 0 0-3.2 1.2 4.5 4.5 0 0 0-1.2 3.3h-2.8a6.5 6.5 0 0 1 2-4.9 6.9 6.9 0 0 1 5.2-1.9 6.9 6.9 0 0 1 4.9 1.6 5.5 5.5 0 0 1 1.8 4.3q0 3.3-4.2 7.8l-5.9 6.4h11.1zm7-12.4h2.1a5.1 5.1 0 0 0 3.2-1.1 3.7 3.7 0 0 0 1.1-2.7q0-3.9-3.9-3.9a3.9 3.9 0 0 0-2.9 1 3.8 3.8 0 0 0-1.1 2.8H38a5.7 5.7 0 0 1 2-4.4 7 7 0 0 1 4.8-1.7 6.9 6.9 0 0 1 4.9 1.7 5.8 5.8 0 0 1 1.8 4.5 4.9 4.9 0 0 1-.9 2.8 5.7 5.7 0 0 1-2.6 2 5.4 5.4 0 0 1 2.8 2 4.7 4.7 0 0 1 1 3.2 5.8 5.8 0 0 1-1.9 4.7 7.2 7.2 0 0 1-5.1 1.8 7.6 7.6 0 0 1-5-1.7 5.6 5.6 0 0 1-2-4.5h2.9a3.4 3.4 0 0 0 1.1 2.8 4.4 4.4 0 0 0 3 1.1 4.2 4.2 0 0 0 3.1-1.1 3.7 3.7 0 0 0 1.1-3 3.8 3.8 0 0 0-1.2-3 4.8 4.8 0 0 0-3.4-1h-2.1zm25.2 5h3.1v2.2h-3.1v5.2h-2.8v-5.2H54.6v-1.6l9.9-15.3h3zm-9.7 0h6.9v-10.9l-.4.6zm16.6-3.7l1.1-11h11.3v2.6h-8.9l-.7 6a7.5 7.5 0 0 1 3.7-.9 6.2 6.2 0 0 1 4.8 1.9 8 8 0 0 1 1.8 5.4 7.7 7.7 0 0 1-1.9 5.4 6.6 6.6 0 0 1-5.1 2 6.9 6.9 0 0 1-4.8-1.7 6.4 6.4 0 0 1-2.1-4.4h2.6a4.7 4.7 0 0 0 1.4 2.8 3.9 3.9 0 0 0 2.9 1 3.6 3.6 0 0 0 3-1.4 5 5 0 0 0 1.1-3.6 5.2 5.2 0 0 0-1.2-3.6 3.9 3.9 0 0 0-3.2-1.3 4.1 4.1 0 0 0-2.8.8l-.8.6zm27.1-11v2.4h-.5a7.4 7.4 0 0 0-5.2 1.9 8.1 8.1 0 0 0-2.3 5.3 6.3 6.3 0 0 1 4.8-2 6 6 0 0 1 4.6 2 8.2 8.2 0 0 1 1.7 5.3 7.8 7.8 0 0 1-1.8 5.4 6.8 6.8 0 0 1-10.2-.4 9.6 9.6 0 0 1-1.9-6.2v-1.1c0-4.1.8-7.2 2.6-9.3s4.3-3.3 7.7-3.3zm-3.7 9.9a4.3 4.3 0 0 0-2.6.9 4.6 4.6 0 0 0-1.7 2.2v1a7.4 7.4 0 0 0 1.2 4.4 3.7 3.7 0 0 0 3.1 1.6 3.8 3.8 0 0 0 3-1.3 6.2 6.2 0 0 0 1-3.7 5.6 5.6 0 0 0-1.1-3.7 3.6 3.6 0 0 0-2.9-1.4zm24.4-8.3l-9.2 20.5h-2.9l9.1-19.8h-11.9v-2.3h14.9zm16.5 4.2a5.7 5.7 0 0 1-.8 2.9 5.9 5.9 0 0 1-2.4 2 5.4 5.4 0 0 1 2.7 2.2 5.1 5.1 0 0 1 1 3.2 5.9 5.9 0 0 1-1.9 4.6 8.5 8.5 0 0 1-10.2 0 6.3 6.3 0 0 1-1.9-4.6 5.1 5.1 0 0 1 1-3.2 5.4 5.4 0 0 1 2.7-2.2 5.7 5.7 0 0 1-2.3-2 5 5 0 0 1-.9-2.9 5.8 5.8 0 0 1 1.8-4.5 6.7 6.7 0 0 1 4.7-1.6 6.5 6.5 0 0 1 4.7 1.6 5.8 5.8 0 0 1 1.8 4.5zm-2.3 10.2a4.4 4.4 0 0 0-1.1-3 4.5 4.5 0 0 0-3.1-1.1 3.7 3.7 0 0 0-3 1.1 4.5 4.5 0 0 0-.1 6 4.5 4.5 0 0 0 3.1 1.1 4.3 4.3 0 0 0 3.1-1.1 3.7 3.7 0 0 0 1.1-3zm-4.2-14a3.3 3.3 0 0 0-2.6 1 3.8 3.8 0 0 0-1.1 2.8 4.1 4.1 0 0 0 1 2.7 3.7 3.7 0 0 0 2.7 1.1 3.5 3.5 0 0 0 2.7-1.1 4.1 4.1 0 0 0 0-5.4 3.7 3.7 0 0 0-2.7-1.1zm21.3 10.4a6.5 6.5 0 0 1-2.1 1.6 5 5 0 0 1-2.7.7 5.6 5.6 0 0 1-3.3-1 6.3 6.3 0 0 1-2.2-2.6 9.2 9.2 0 0 1-.7-3.8 8.3 8.3 0 0 1 .8-3.9 7.3 7.3 0 0 1 2.4-2.8 6.9 6.9 0 0 1 3.6-.9 6 6 0 0 1 5.1 2.4 10.7 10.7 0 0 1 1.9 6.7v.8c0 4.3-.8 7.5-2.5 9.4s-4.3 3-7.7 3.1h-.5V119h.6a7.4 7.4 0 0 0 5.3-1.8 7.9 7.9 0 0 0 2-5.5zm-4.3 0a4.3 4.3 0 0 0 2.6-.9 4.8 4.8 0 0 0 1.7-2.1v-1.2a7.4 7.4 0 0 0-1.2-4.4 3.5 3.5 0 0 0-3-1.8 3.7 3.7 0 0 0-3 1.5 5.8 5.8 0 0 0-1.1 3.7 6.2 6.2 0 0 0 1.1 3.7 3.4 3.4 0 0 0 2.9 1.5zm24.8.3c0 3.2-.5 5.7-1.7 7.3a6.8 6.8 0 0 1-10.4 0c-1.2-1.5-1.8-3.9-1.8-7v-3.7c0-3.3.6-5.7 1.7-7.2a6 6 0 0 1 5.3-2.4 6.1 6.1 0 0 1 5.2 2.3c1.1 1.5 1.7 3.8 1.7 7zm-2.8-3.9c0-2.4-.3-4.1-1-5.2a3.3 3.3 0 0 0-3.1-1.6 3.4 3.4 0 0 0-3.2 1.6 10.7 10.7 0 0 0-1 5v4.5a11.8 11.8 0 0 0 1 5.3 3.8 3.8 0 0 0 6.3.1 10.9 10.9 0 0 0 1-5.1z"/></svg>