<svg xmlns="http://www.w3.org/2000/svg" width="256" height="531" viewBox="0 0 256 531"><defs><linearGradient id="a" x1="128.24" x2="128.24" y1="9.59" y2="231.96" gradientUnits="userSpaceOnUse"><stop offset="0" stop-color="#b781ef"/><stop offset=".52" stop-color="#5b88ed"/><stop offset="1" stop-color="#3defcd"/></linearGradient></defs><path fill="url(#a)" d="M128.2 0A127.8 127.8 0 1 0 256 127.8 127.8 127.8 0 0 0 128.2 0zm0 233.3s-39.3 0-54.4-31.7c0 0-6-14.7-28.8-24.1 0 0 15.3-36.8 58.2-36.8 17 0 25 5 25 5l-23.9-20.6s-19.5-15.4-19.5-36.2c0 0-1.5-24.3 20.7-36.3s22.7-39.4 22.7-39.4V58l12.5-32v35.1l38.3 9.5-6.5 12.5h-44.3V92l42.1 32.5s20 14.7 20.5 47.3c.4 27.6-21.2 61.5-62.6 61.5z"/><path fill="none" stroke="#3defcd" stroke-miterlimit="10" stroke-width="5" d="M127.5 246.5v284"/></svg>