<svg xmlns="http://www.w3.org/2000/svg"><symbol id="typeface" viewBox="0 0 256 256"><path d="M210 87.9a172.3 172.3 0 0 0 .8 18.5h-5.9q-8.4-33.6-21.8-48.5C174.2 48 164.6 43 154.3 43h-.2v146.9c0 7.2.7 12.4 2.1 15.7a12.1 12.1 0 0 0 8 6.5c3.9 1.1 10 1.7 18.4 1.7v5.1c-24.2-.5-42.9-.8-56.3-.8s-29.8.3-52.9.8v-5.1c8.4 0 14.5-.6 18.4-1.7a12.1 12.1 0 0 0 8-6.5c1.4-3.3 2.1-8.5 2.1-15.7V43h-.2c-10.5 0-20.1 4.9-28.9 14.8s-16.1 26-21.7 48.6h-5.9a172.3 172.3 0 0 0 .8-18.5c0-14.9-.6-31.8-1.8-50.8q24.3.8 83.9.8t83.7-.8c-1.2 19-1.8 35.9-1.8 50.8z"/></symbol><symbol id="vd" viewBox="0 0 256 256"><path d="M230.8 78.8a76.7 76.7 0 0 0-30-30.8 83.5 83.5 0 0 0-18-7.5 86.3 86.3 0 0 0-21.8-3.3H99.1v131.2l-.3.9-36-132.1H14.3l60.6 181.5h83.9a84.6 84.6 0 0 0 42.7-11.3 77.1 77.1 0 0 0 29.7-31q10.5-19.7 10.5-44.7v-8.3c0-16.5-3.7-31.3-10.9-44.6zm-33.7 52.9c0 17.7-3.4 31-10.1 39.9S170.6 185 158 185h-15.2V70.9h14.8a42.7 42.7 0 0 1 14.2 2.2A32.3 32.3 0 0 1 187 84.2c6.7 8.9 10.1 22.1 10.1 39.7z"/></symbol><symbol id="hamburger" viewBox="0 0 256 256"><path d="M24 37.3h208.1v38.6H24zm0 71.3h208.1v38.6H24zm0 71h208.1v38.6H24z"/></symbol><symbol id="tg-aud" viewBox="0 0 256 256"><circle cx="128" cy="132" r="36.4"/><path d="M153.5 176.2a72 72 0 0 1 14.4 7.9 65.7 65.7 0 1 0-79.8 0 72 72 0 0 1 14.4-7.9 51 51 0 1 1 51 0z"/><path d="M128 37.1A94.9 94.9 0 0 0 68.5 206a68.1 68.1 0 0 1 8.6-11.9 80.3 80.3 0 1 1 101.8 0 68.1 68.1 0 0 1 8.6 11.9A94.9 94.9 0 0 0 128 37.1z"/><path d="M166.6 218.7a100.8 100.8 0 0 0 14.4-7.9c-9.7-18.9-30.1-31.6-53-31.6s-43.3 12.7-53 31.6a100.8 100.8 0 0 0 14.4 7.9"/></symbol><symbol id="logo" viewBox="0 0 256 256"><path d="M128 37.3a90.7 90.7 0 1 0 90.7 90.7A90.7 90.7 0 0 0 128 37.3zm46.5 135.5c-3.4 12.1-13.5 30-46.5 30-12.3 0-25.5-5-33.6-14.6-7.6-11.3-11-19.3-25.5-24.9.2-1.1 12.3-26.5 41.4-26.1.8-.3 12.8.4 17.7 3.5-18.9-16-42.4-32.2-24.8-58.8 2.7-3.8 7.4-6.5 11.9-9.3 12.8-9.3 12.8-25.8 12.9-25.9v31.8l8.9-22.8s-.1 25.7 0 25l27.2 6.7-4.7 8.9H128v6.3l.4.3c5.5 4.5 31.1 23.7 32 25.1 13.1 10.9 18.4 29.7 14.1 44.8z"/></symbol><symbol id="colour" viewBox="0 0 256 256"><path d="M147.9 185.6c-2.1 0-4.9.7-4.9 7.6s2.7 7.5 4.9 7.5 5-.8 5-7.5-2.9-7.6-5-7.6zm-66.5 10.8h4.9l-2.4-8.4-2.5 8.4zm122.2-13.2h-.3v.7h.3a.4.4 0 0 0 .4-.4c0-.2-.2-.3-.4-.3zm-137.3 3.1h-3.6v6h3.6c2.2 0 3.2-.9 3.2-3.1s-2.2-2.9-3.2-2.9z"/><path d="M37.1 37.1v181.8h181.8V37.1zm25.6 159.6v7.8h-5.4v-22.6h9.9c4.5 0 8.1 1.7 8.1 7.3s-5.5 7.5-8.2 7.5zm26 7.8l-1.3-4.3h-7l-1.3 4.3h-5.7l7.8-22.6h5.4l7.8 22.6zm27.5 0h-5.5l-7.4-13.5h-.3v13.5h-5.5v-22.6h5.5l7.4 13.4h.4v-13.4h5.4zm20.4-18.2h-6.2v18.2H125v-18.2h-6.3v-4.4h17.9zm11.3 18.8c-9.8 0-10.7-8.5-10.7-11.9s.9-11.9 10.7-11.9 10.8 6.6 10.8 11.9-2 11.9-10.8 11.9zm32.9-.6h-5.4l-7.5-13.5h-.3v13.5h-5.4v-22.6h5.4l7.5 13.4h.3v-13.4h5.4zm18.7 0h-14.4v-22.6h14.1v4.4h-8.7v4.6h7.9v4.1h-7.9v5.1h9zm4.1-18a2.5 2.5 0 0 1 0-4.9 2.5 2.5 0 1 1 0 4.9z"/><path d="M203.6 182.1a1.9 1.9 0 0 0-1.9 2 1.9 1.9 0 0 0 1.9 1.9 1.8 1.8 0 0 0 1.9-1.9 1.9 1.9 0 0 0-1.9-2zm.5 3.2c-.4-.4.2-1-.7-1h-.1v1h-.6v-2.5h1.1a.7.7 0 0 1 .8.7.6.6 0 0 1-.4.6.6.6 0 0 1 .4.6c0 .4 0 .5.1.6z"/></symbol></svg>