<svg xmlns="http://www.w3.org/2000/svg"><symbol id="behance" viewBox="0 0 256 256"><path d="M219 199.5a19.5 19.5 0 0 1-19.5 19.5h-143A19.5 19.5 0 0 1 37 199.5v-143A19.5 19.5 0 0 1 56.5 37h143A19.5 19.5 0 0 1 219 56.5zm-92.6-68.9a19.2 19.2 0 0 0-10.6-7.5 24.9 24.9 0 0 0 7.9-6.1c1.8-2.1 2.7-5.1 2.7-8.9 0-13-8.3-19.5-24.8-19.5h-37v78h37.8c7.9 0 14.2-1.8 19.1-5.3s8.5-9.9 8.5-17.5a23.7 23.7 0 0 0-3.6-13.2zm-28.5-29.8H81.7v18.3h17.5c7 0 10.5-3.1 10.5-9.4s-3.9-8.9-11.8-8.9zm2.1 52.4H81.7v-21.5h18.7c8.1.2 12.2 4 12.2 11.3h.4c0 6.8-4.4 10.2-13 10.2zm84-37.2q-7.2-8.7-20.1-8.7c-8.5 0-15.5 2.8-20.9 8.5s-8.1 12.9-8.1 21.5 2.6 15.8 7.9 21.4 12.3 8.3 20.9 8.3c13.6 0 22.4-6.4 26.4-19.1h-13.4a10.2 10.2 0 0 1-4.8 5.3 15.8 15.8 0 0 1-7.4 2c-4.6 0-8-1.2-10.3-3.6s-3.5-6-3.5-10.6h40.7v-3.3c0-8.6-2.5-15.9-7.4-21.7zm-4.8-16.8v-7.7h-31.7v7.7zm-25 23.1a13.4 13.4 0 0 0-3.9 8.9h25.6c-.8-8.1-5-12.1-12.6-12.1-3.8 0-6.8 1-9.1 3.2z"/></symbol><symbol id="chevron" viewBox="0 0 256 256"><path d="M90.7 219.9l-17.4-17.3 74.6-74.6-74.6-74.6 17.4-17.3 92 91.9-92 91.9z"/></symbol><symbol id="linkedin" viewBox="0 0 256 256"><path d="M77.7 218.9V97.5H39.9v121.4zM59 80.9a20.9 20.9 0 0 0 15.4-6.5 21.5 21.5 0 0 0 0-30.8 21.5 21.5 0 0 0-30.8 0 21.5 21.5 0 0 0 0 30.8A20.9 20.9 0 0 0 59 80.9zm159.9 138v-66.6q0-27.9-8.1-41.4c-7-11.1-19.3-16.6-36.9-16.6a40.1 40.1 0 0 0-22.8 6.5 32.9 32.9 0 0 0-13 13.4h-.4V97.5h-36.1v121.4H139v-60.1a44.2 44.2 0 0 1 4-21.5 18.9 18.9 0 0 1 18.3-9.7 17 17 0 0 1 17.4 10.9 65.6 65.6 0 0 1 2.5 21.1v59.3z"/></symbol><symbol id="email" viewBox="0 0 256 256"><path d="M226.4 37.2a22.5 22.5 0 0 1 22.7 22.7v136.2a21.7 21.7 0 0 1-6.7 16.1 21.9 21.9 0 0 1-16 6.6H29.6a21.9 21.9 0 0 1-16-6.6 21.8 21.8 0 0 1-6.7-16.1V59.9a21.8 21.8 0 0 1 6.7-16.1 21.9 21.9 0 0 1 16-6.6zm0 22.7H29.6v19.4c11.1 8.8 32.3 25.5 63.9 50.1l4.2 3.8a120.5 120.5 0 0 0 15.2 11.4 28.8 28.8 0 0 0 15.1 6.1 28.8 28.8 0 0 0 15.1-6.1 120.5 120.5 0 0 0 15.2-11.4l4.2-3.8c31.6-24.2 52.8-41 63.9-50.1zM29.6 196.1h196.8v-88l-54.9 43.5a128.7 128.7 0 0 1-19.4 14.2 47 47 0 0 1-24.1 7.6 49 49 0 0 1-24.6-7.6A178.5 178.5 0 0 1 84 151.6l-54.4-43.5z"/></symbol><symbol id="colour" viewBox="0 0 256 256"><path d="M147.9 185.6c-2.1 0-4.9.7-4.9 7.6s2.7 7.5 4.9 7.5 5-.8 5-7.5-2.9-7.6-5-7.6zm-66.5 10.8h4.9l-2.4-8.4-2.5 8.4zm122.2-13.2h-.3v.7h.3a.4.4 0 0 0 .4-.4c0-.2-.2-.3-.4-.3zm-137.3 3.1h-3.6v6h3.6c2.2 0 3.2-.9 3.2-3.1s-2.2-2.9-3.2-2.9z"/><path d="M37.1 37.1v181.8h181.8V37.1zm25.6 159.6v7.8h-5.4v-22.6h9.9c4.5 0 8.1 1.7 8.1 7.3s-5.5 7.5-8.2 7.5zm26 7.8l-1.3-4.3h-7l-1.3 4.3h-5.7l7.8-22.6h5.4l7.8 22.6zm27.5 0h-5.5l-7.4-13.5h-.3v13.5h-5.5v-22.6h5.5l7.4 13.4h.4v-13.4h5.4zm20.4-18.2h-6.2v18.2H125v-18.2h-6.3v-4.4h17.9zm11.3 18.8c-9.8 0-10.7-8.5-10.7-11.9s.9-11.9 10.7-11.9 10.8 6.6 10.8 11.9-2 11.9-10.8 11.9zm32.9-.6h-5.4l-7.5-13.5h-.3v13.5h-5.4v-22.6h5.4l7.5 13.4h.3v-13.4h5.4zm18.7 0h-14.4v-22.6h14.1v4.4h-8.7v4.6h7.9v4.1h-7.9v5.1h9zm4.1-18a2.5 2.5 0 0 1 0-4.9 2.5 2.5 0 1 1 0 4.9z"/><path d="M203.6 182.1a1.9 1.9 0 0 0-1.9 2 1.9 1.9 0 0 0 1.9 1.9 1.8 1.8 0 0 0 1.9-1.9 1.9 1.9 0 0 0-1.9-2zm.5 3.2c-.4-.4.2-1-.7-1h-.1v1h-.6v-2.5h1.1a.7.7 0 0 1 .8.7.6.6 0 0 1-.4.6.6.6 0 0 1 .4.6c0 .4 0 .5.1.6z"/></symbol><symbol id="close" viewBox="0 0 256 256"><path d="M149 128l65.6-65.7a14.8 14.8 0 1 0-21-20.9L128 107 62.4 41.4a14.8 14.8 0 0 0-21 20.9L107 128l-65.6 65.6a14.8 14.8 0 0 0 21 21l65.6-65.7 65.6 65.7a14.8 14.8 0 0 0 21-21z"/></symbol><symbol id="github" viewBox="0 0 256 256"><path d="M97.2 183.3c0 1-.7 1.6-2.1 1.7s-2-.3-2-1.3.6-1.5 1.8-1.5a3.2 3.2 0 0 1 1.7.3c.4.3.6.5.6.8zm-11.7-1.5c.3-1 1-1.3 2.3-1s1.8.9 1.7 1.5a2.1 2.1 0 0 1-1 1.4 1.9 1.9 0 0 1-1.5 0l-1.3-1c-.4-.4-.4-.7-.2-.9zm16.6-.8c1.2 0 1.9.4 2 1.2s-.4 1.3-1.7 1.8h-1.3a1.8 1.8 0 0 1-.7-1.4c-.2-.7.4-1.2 1.7-1.5zm24.8-143.9a96.7 96.7 0 0 1 47.3 12 89.5 89.5 0 0 1 34.2 32.7 90.5 90.5 0 0 1 12.8 47 94.5 94.5 0 0 1-17.5 55.8 89.6 89.6 0 0 1-45.6 34 4.7 4.7 0 0 1-4.7-.8 4.5 4.5 0 0 1-1.7-3.7v-31.6c0-8-2.2-13.7-6.4-17.3a102.3 102.3 0 0 0 20.6-3.7 33.7 33.7 0 0 0 16.2-11.3 47.9 47.9 0 0 0 6.4-26.7 28.2 28.2 0 0 0-2.6-12.4 43.7 43.7 0 0 0-7.2-9.3 31.4 31.4 0 0 0 1.9-9.1 44.2 44.2 0 0 0-2.6-16.5 17.2 17.2 0 0 0-10.5 1.5 95.3 95.3 0 0 0-10.6 5.3l-4.9 3.3a86.6 86.6 0 0 0-23.8-3.3 80.9 80.9 0 0 0-23.5 3.3L99.8 83a84.4 84.4 0 0 0-10.9-5.3 16.1 16.1 0 0 0-10.1-1.5 35.9 35.9 0 0 0-2.7 16.5 23.4 23.4 0 0 0 1.5 8.7 45.9 45.9 0 0 0-6.5 10.3 30 30 0 0 0-2.1 11.8 49 49 0 0 0 6 26.3 31.3 31.3 0 0 0 15.8 11.7 99.4 99.4 0 0 0 20.3 3.7 20.5 20.5 0 0 0-6 12.8 22.1 22.1 0 0 1-12.4 2.3 18 18 0 0 1-15-10.2 18.7 18.7 0 0 0-6.1-6.7 36.1 36.1 0 0 0-5.6-2.7l-2.6-.3c-2.8 0-4.2.4-4.3 1.3s.4 1.8 1.7 2.8l1.8 1.5a17.7 17.7 0 0 1 5.3 4.9 23.1 23.1 0 0 1 3.7 6l1.5 3a15 15 0 0 0 7.2 8.6 25.8 25.8 0 0 0 10.9 3.4 37.1 37.1 0 0 0 9.4-.4l4.1-.3.4 22.9a5.2 5.2 0 0 1-1.7 3.8 4.9 4.9 0 0 1-4.7.7 89.9 89.9 0 0 1-46.2-34 93.1 93.1 0 0 1-17.7-55.8 92.8 92.8 0 0 1 12-46.6 87.7 87.7 0 0 1 33.1-33.1 93 93 0 0 1 47-12zM71.3 166.8c.5-.6 1.1-.4 1.8.3s.9 1.4.4 1.9-1.1.4-1.9-.4-.8-1.4-.3-1.8zm-4.2-3.1a1.5 1.5 0 0 1 1.9-.1 1.1 1.1 0 0 1 .8 1.5c-.3.6-.9.7-1.7.1s-1.2-1-1-1.5zm12.4 13.2a1.3 1.3 0 0 1 1.2-.2 2.6 2.6 0 0 1 1.3.8 2.7 2.7 0 0 1 .7 1.3 1.1 1.1 0 0 1-.1 1.1c-.8.8-1.7.7-2.7-.4a2 2 0 0 1-.7-1.5 1.1 1.1 0 0 1 .3-1.1zm-4.5-5.3a2 2 0 0 1 1.3-.2 1.9 1.9 0 0 1 1 1c.7 1 .7 1.7 0 2.2s-.6.3-1 0l-1.3-.7c-.5-1.3-.5-2 0-2.3z"/></symbol><symbol id="logo" viewBox="0 0 256 256"><path d="M128 37.3a90.7 90.7 0 1 0 90.7 90.7A90.7 90.7 0 0 0 128 37.3zm46.5 135.5c-3.4 12.1-13.5 30-46.5 30-12.3 0-25.5-5-33.6-14.6-7.6-11.3-11-19.3-25.5-24.9.2-1.1 12.3-26.5 41.4-26.1.8-.3 12.8.4 17.7 3.5-18.9-16-42.4-32.2-24.8-58.8 2.7-3.8 7.4-6.5 11.9-9.3 12.8-9.3 12.8-25.8 12.9-25.9v31.8l8.9-22.8s-.1 25.7 0 25l27.2 6.7-4.7 8.9H128v6.3l.4.3c5.5 4.5 31.1 23.7 32 25.1 13.1 10.9 18.4 29.7 14.1 44.8z"/></symbol><symbol id="typeface" viewBox="0 0 256 256"><path d="M210 87.9a172.3 172.3 0 0 0 .8 18.5h-5.9q-8.4-33.6-21.8-48.5C174.2 48 164.6 43 154.3 43h-.2v146.9c0 7.2.7 12.4 2.1 15.7a12.1 12.1 0 0 0 8 6.5c3.9 1.1 10 1.7 18.4 1.7v5.1c-24.2-.5-42.9-.8-56.3-.8s-29.8.3-52.9.8v-5.1c8.4 0 14.5-.6 18.4-1.7a12.1 12.1 0 0 0 8-6.5c1.4-3.3 2.1-8.5 2.1-15.7V43h-.2c-10.5 0-20.1 4.9-28.9 14.8s-16.1 26-21.7 48.6h-5.9a172.3 172.3 0 0 0 .8-18.5c0-14.9-.6-31.8-1.8-50.8q24.3.8 83.9.8t83.7-.8c-1.2 19-1.8 35.9-1.8 50.8z"/></symbol><symbol id="instagram" viewBox="0 0 256 256"><path d="M128 81.3a46.3 46.3 0 0 1 23.3 6.3 46.7 46.7 0 0 1 17.1 17.1 46.2 46.2 0 0 1 0 46.6 46.7 46.7 0 0 1-17.1 17.1 46.2 46.2 0 0 1-46.6 0 46.7 46.7 0 0 1-17.1-17.1 46.2 46.2 0 0 1 0-46.6 46.7 46.7 0 0 1 17.1-17.1 46.3 46.3 0 0 1 23.3-6.3zm0 77.1a30.4 30.4 0 0 0 30.4-30.4A30.4 30.4 0 0 0 128 97.6a29 29 0 0 0-21.5 8.9 30.2 30.2 0 0 0 0 43 29 29 0 0 0 21.5 8.9zm59.7-79.1a13 13 0 0 1-3.5 7.7 10.2 10.2 0 0 1-7.5 3.3 11 11 0 1 1 7.7-18.7 10.2 10.2 0 0 1 3.2 7.7zm30.8 11c.3 7.5.4 20.1.4 37.7s-.2 30.2-.6 37.9a71.9 71.9 0 0 1-3.5 20.1 46.2 46.2 0 0 1-11.1 17.7 47.7 47.7 0 0 1-17.7 11.2 79.8 79.8 0 0 1-20.1 3.4c-7.7.4-20.3.6-37.9.6s-30.2-.2-38-.6a62.3 62.3 0 0 1-20-3.9 43.5 43.5 0 0 1-17.7-10.7A47.7 47.7 0 0 1 41.1 186a75.6 75.6 0 0 1-3.4-20.1c-.4-7.7-.6-20.3-.6-37.9s.2-30.2.6-38a75.5 75.5 0 0 1 3.4-20A47.7 47.7 0 0 1 70 41.1a79.8 79.8 0 0 1 20-3.4c7.8-.4 20.4-.6 38-.6s30.2.2 37.9.6a79.8 79.8 0 0 1 20.1 3.4 47.7 47.7 0 0 1 17.7 11.2A46.2 46.2 0 0 1 214.8 70a81.7 81.7 0 0 1 3.7 20.3zM199 181.6a90.7 90.7 0 0 0 3.3-21.9c.2-6 .4-14.4.4-25.2v-13c0-11.1-.2-19.5-.4-25.2a81.8 81.8 0 0 0-3.3-21.9A29.1 29.1 0 0 0 181.6 57a81.9 81.9 0 0 0-22-3.3c-5.9-.3-14.3-.4-25.1-.4h-13c-10.8 0-19.2.1-25.2.4A81.8 81.8 0 0 0 74.4 57 28.8 28.8 0 0 0 57 74.4a81.2 81.2 0 0 0-3.3 21.9c-.3 6-.4 14.4-.4 25.2v13c0 10.8.1 19.2.4 25.1a81.9 81.9 0 0 0 3.3 22A30.4 30.4 0 0 0 74.4 199a90 90 0 0 0 21.9 3.3c6 .2 14.4.4 25.2.4h13c11.1 0 19.5-.2 25.1-.4a81.9 81.9 0 0 0 22-3.3 30.4 30.4 0 0 0 17.4-17.4z"/></symbol><symbol id="vd" viewBox="0 0 256 256"><path d="M230.8 78.8a76.7 76.7 0 0 0-30-30.8 83.5 83.5 0 0 0-18-7.5 86.3 86.3 0 0 0-21.8-3.3H99.1v131.2l-.3.9-36-132.1H14.3l60.6 181.5h83.9a84.6 84.6 0 0 0 42.7-11.3 77.1 77.1 0 0 0 29.7-31q10.5-19.7 10.5-44.7v-8.3c0-16.5-3.7-31.3-10.9-44.6zm-33.7 52.9c0 17.7-3.4 31-10.1 39.9S170.6 185 158 185h-15.2V70.9h14.8a42.7 42.7 0 0 1 14.2 2.2A32.3 32.3 0 0 1 187 84.2c6.7 8.9 10.1 22.1 10.1 39.7z"/></symbol><symbol id="tg-aud" viewBox="0 0 256 256"><circle cx="128" cy="132" r="36.4"/><path d="M153.5 176.2a72 72 0 0 1 14.4 7.9 65.7 65.7 0 1 0-79.8 0 72 72 0 0 1 14.4-7.9 51 51 0 1 1 51 0z"/><path d="M128 37.1A94.9 94.9 0 0 0 68.5 206a68.1 68.1 0 0 1 8.6-11.9 80.3 80.3 0 1 1 101.8 0 68.1 68.1 0 0 1 8.6 11.9A94.9 94.9 0 0 0 128 37.1z"/><path d="M166.6 218.7a100.8 100.8 0 0 0 14.4-7.9c-9.7-18.9-30.1-31.6-53-31.6s-43.3 12.7-53 31.6a100.8 100.8 0 0 0 14.4 7.9"/></symbol></svg>