<svg xmlns="http://www.w3.org/2000/svg" width="256" height="256" viewBox="0 0 256 256"><path fill="#5f6ede" d="M128 0a128 128 0 1 0 128 128A128 128 0 0 0 128 0zM99.7 82c1.8-23.8 16.9-50.8 35.2-66.8a1 1 0 0 1 1.7 1 108.5 108.5 0 0 0 2 56.1c11.1 2.8 19.3 11.1 26.9 20.5 3.8 4.6 9.6 7.2 16.9 7.5a1.1 1.1 0 0 1 .8 1.5c-3.7 7.1-10 11.7-19 14.9a.5.5 0 0 1-.4-.9c3.9-2.5 8.6-5.9 10.1-10.2-15.8-3.2-28.4 6.5-34.7 13.4l-.3.4a23.3 23.3 0 0 1-15.2 7.7 18.6 18.6 0 0 1-5.3-.2 44.1 44.1 0 0 0 3.7 10.7l1.8 3.2-.7.2a12.8 12.8 0 0 1-5.5-.1c-.8 5.9 0 14.8 1.3 20.6a.5.5 0 0 1-.8.5 66.2 66.2 0 0 1-18.6-26.8h-.1a69.5 69.5 0 0 1-4-25.9c-2.1-.8-5.5-3.2-6.4-6.9 7.3-5.5 10.4-9.5 10.6-20.4zm27.7 154.3c-42.6.9-88.7-31.9-66.6-87.6a.5.5 0 0 1 1 .2c0 9.3 3.3 22.3 11.3 28.3-.5-4.9 1.9-9.9 4.6-13.9a.6.6 0 0 1 .9 0 38.4 38.4 0 0 0 4.5 6.1 14.9 14.9 0 0 1 6.5-8.3c.2-.1.5-.1.6.1 17.8 23.6 41.6 27.3 59.8 25.3s30.6-9.8 26.2-9.3a93.8 93.8 0 0 1-14.8 1.5 65.3 65.3 0 0 1-26.6-5.6c-7.4-6.1-8.3-18.1-6.9-27.4 3.7-25.4 58.7-33.8 58.7 28 0 39.5-31 62.1-59.2 62.6z"/><path fill="#5f6ede" d="M153.6 95.2a9.5 9.5 0 0 1 5.3 1.6 3.2 3.2 0 0 0 .4-1.6 3.7 3.7 0 0 0-7.4 0h1.7z"/></svg>