<svg xmlns="http://www.w3.org/2000/svg" width="64" height="64" viewBox="0 0 64 64"><path fill="#5f6ede" d="M32 0a32 32 0 1 0 32 32A32 32 0 0 0 32 0zm-7.1 20.5c.5-6 4.3-12.7 8.8-16.7.2-.2.5 0 .4.2a27.2 27.2 0 0 0 .6 14.1c2.7.7 4.8 2.7 6.7 5.1a5.7 5.7 0 0 0 4.2 1.9c.2 0 .3.2.2.3a7.9 7.9 0 0 1-4.7 3.8c-.2 0-.3-.2-.2-.3a5.7 5.7 0 0 0 2.6-2.5c-4-.8-7.1 1.6-8.7 3.4h-.1a5.7 5.7 0 0 1-3.8 2h-1.3a9.4 9.4 0 0 0 .9 2.7l.5.8h-1.6a18.2 18.2 0 0 0 .3 5.2c.1.1-.1.2-.2.1a17.1 17.1 0 0 1-4.6-6.7 16.5 16.5 0 0 1-1-6.5 2.7 2.7 0 0 1-1.6-1.7c1.8-1.5 2.6-2.5 2.6-5.2zm6.9 38.6c-10.6.2-22.1-8-16.6-21.9.1-.1.2-.1.2 0 .1 2.3.9 5.6 2.9 7.1a5.6 5.6 0 0 1 1.1-3.5h.3a5.8 5.8 0 0 0 1.1 1.5 3.5 3.5 0 0 1 1.6-2h.2a15.7 15.7 0 0 0 14.9 6.3c4.5-.5 7.6-2.4 6.5-2.3a23.9 23.9 0 0 1-3.6.4 16.4 16.4 0 0 1-6.7-1.4c-1.9-1.5-2.1-4.6-1.7-6.9.9-6.3 14.7-8.4 14.7 7a15.4 15.4 0 0 1-14.9 15.7z"/><path fill="#5f6ede" d="M38.4 23.8a2 2 0 0 1 1.3.4.6.6 0 0 0 .1-.4.9.9 0 0 0-1.8 0h.4z"/></svg>