<svg xmlns="http://www.w3.org/2000/svg" width="16" height="16" viewBox="0 0 16 16"><circle cx="8" cy="8" r="8" fill="#fff"/><path fill="#5f6ede" d="M12.4 6.1a1.7 1.7 0 0 1-1.2-.5 3.9 3.9 0 0 0-1.9-1.5 6.8 6.8 0 0 1-.2-4H9a7.8 7.8 0 0 0-2.5 4.7 1.5 1.5 0 0 1-.8 1.5 1.2 1.2 0 0 0 .5.5 5.2 5.2 0 0 0 .3 1.8 4.3 4.3 0 0 0 1.3 1.9h.1A3.8 3.8 0 0 1 7.8 9h.4v-.2L7.8 8h.4a1.5 1.5 0 0 0 1.1-.5 3.2 3.2 0 0 1 2.5-.9c-.1.3-.5.5-.7.7s0 .1 0 .1a2.1 2.1 0 0 0 1.3-1.1c.1-.1 0-.2 0-.2zm-1.7-.2a.5.5 0 0 0-.4-.2h-.1c0-.1.1-.2.3-.2a.2.2 0 0 1 .2.2z"/><path fill="#5f6ede" d="M8.5 15.8c-3.1.1-6.4-2.3-4.8-6.2h.1a2.6 2.6 0 0 0 .8 2 1.7 1.7 0 0 1 .3-1H5l.3.4.5-.5a4.9 4.9 0 0 0 4.3 1.8c1.3-.2 2.2-.7 1.8-.7h-1a4.1 4.1 0 0 1-1.9-.3 2.2 2.2 0 0 1-.5-1.9c.3-1.9 4.2-2.5 4.2 1.9a4.3 4.3 0 0 1-4.2 4.5z"/></svg>