<svg xmlns="http://www.w3.org/2000/svg" width="32" height="32" viewBox="0 0 32 32"><path fill="#5f6ede" d="M16 0a16 16 0 1 0 16 16A16 16 0 0 0 16 0zm-3.5 10.2a13.3 13.3 0 0 1 4.4-8.3c.1-.1.2 0 .2.1a13.9 13.9 0 0 0 .2 7 7.1 7.1 0 0 1 3.4 2.6 2.6 2.6 0 0 0 2.1.9c.1 0 .1.1.1.2a4.2 4.2 0 0 1-2.4 1.9s-.1-.1 0-.1a2.5 2.5 0 0 0 1.2-1.3 4.7 4.7 0 0 0-4.3 1.7 3.5 3.5 0 0 1-1.9 1h-.7a5.5 5.5 0 0 0 .5 1.3.8.8 0 0 0 .2.4h-.8a7.4 7.4 0 0 0 .2 2.6s-.1.1-.1 0a8.3 8.3 0 0 1-2.4-3.3 10.7 10.7 0 0 1-.5-3.2 1.8 1.8 0 0 1-.8-.9 2.8 2.8 0 0 0 1.4-2.6zm3.4 19.3c-5.3.2-11.1-3.9-8.3-10.9 0-.1.1-.1.1 0a4.8 4.8 0 0 0 1.4 3.6 3.5 3.5 0 0 1 .6-1.8h.1l.6.8a1.8 1.8 0 0 1 .8-1.1h.1a7.8 7.8 0 0 0 7.5 3.1C21 23 22.6 22 22 22l-1.8.2a8 8 0 0 1-3.4-.7c-.9-.7-1-2.2-.8-3.4.4-3.2 7.3-4.2 7.3 3.5a7.5 7.5 0 0 1-7.4 7.9z"/><path fill="#5f6ede" d="M19.2 11.9l.7.2v-.2a.5.5 0 0 0-.4-.5.5.5 0 0 0-.5.5h.2z"/></svg>